<mxfile host="Electron" modified="2023-11-26T12:02:25.914Z" agent="Mozilla/5.0 (Macintosh; Intel Mac OS X 10_15_7) AppleWebKit/537.36 (KHTML, like Gecko) draw.io/22.1.2 Chrome/114.0.5735.289 Electron/25.9.4 Safari/537.36" etag="LCQnxvRGLjO0pVqBtt8U" version="22.1.2" type="device">
  <diagram name="Page-1" id="3BcUYwAnAn19YrTtsJ6D">
    <mxGraphModel dx="1354" dy="608" grid="0" gridSize="10" guides="1" tooltips="1" connect="1" arrows="1" fold="1" page="0" pageScale="1" pageWidth="850" pageHeight="1100" math="0" shadow="1">
      <root>
        <mxCell id="0" />
        <mxCell id="1" parent="0" />
        <mxCell id="5jTDvBwV7yWnziTKpoq--56" value="" style="rounded=1;whiteSpace=wrap;html=1;fillColor=#FFCFCF;strokeColor=#b85450;gradientColor=#FF0000;" vertex="1" parent="1">
          <mxGeometry x="395" y="15" width="119.01" height="544" as="geometry" />
        </mxCell>
        <mxCell id="5jTDvBwV7yWnziTKpoq--54" value="" style="rounded=1;whiteSpace=wrap;html=1;fillColor=#FFCFCF;gradientColor=#EA6060;strokeColor=#b85450;" vertex="1" parent="1">
          <mxGeometry x="139" y="15" width="246" height="544" as="geometry" />
        </mxCell>
        <mxCell id="5jTDvBwV7yWnziTKpoq--53" value="" style="rounded=1;whiteSpace=wrap;html=1;fillColor=#FFD6D6;gradientColor=#EA9393;strokeColor=#b85450;" vertex="1" parent="1">
          <mxGeometry x="9.99" y="15" width="119.01" height="544" as="geometry" />
        </mxCell>
        <mxCell id="5jTDvBwV7yWnziTKpoq--1" value="" style="endArrow=none;dashed=1;html=1;rounded=0;" edge="1" parent="1">
          <mxGeometry width="50" height="50" relative="1" as="geometry">
            <mxPoint x="134.99" y="494" as="sourcePoint" />
            <mxPoint x="134.99" y="334" as="targetPoint" />
          </mxGeometry>
        </mxCell>
        <mxCell id="5jTDvBwV7yWnziTKpoq--2" value="" style="endArrow=none;dashed=1;html=1;rounded=0;" edge="1" parent="1">
          <mxGeometry width="50" height="50" relative="1" as="geometry">
            <mxPoint x="257.99" y="507" as="sourcePoint" />
            <mxPoint x="257.99" y="347" as="targetPoint" />
          </mxGeometry>
        </mxCell>
        <mxCell id="5jTDvBwV7yWnziTKpoq--3" value="" style="endArrow=none;dashed=1;html=1;rounded=0;" edge="1" parent="1">
          <mxGeometry width="50" height="50" relative="1" as="geometry">
            <mxPoint x="389.99" y="494" as="sourcePoint" />
            <mxPoint x="389.99" y="334" as="targetPoint" />
          </mxGeometry>
        </mxCell>
        <mxCell id="5jTDvBwV7yWnziTKpoq--7" value="prod&lt;br&gt;&lt;font style=&quot;font-size: 8px;&quot;&gt;10.5.0.0/16&lt;/font&gt;" style="rounded=1;whiteSpace=wrap;html=1;" vertex="1" parent="1">
          <mxGeometry x="415.99" y="520" width="70" height="30" as="geometry" />
        </mxCell>
        <mxCell id="5jTDvBwV7yWnziTKpoq--8" value="uat&lt;br&gt;&lt;font style=&quot;font-size: 8px;&quot;&gt;10.4.0.0/16&lt;/font&gt;" style="rounded=1;whiteSpace=wrap;html=1;" vertex="1" parent="1">
          <mxGeometry x="281.99" y="520" width="70" height="30" as="geometry" />
        </mxCell>
        <mxCell id="5jTDvBwV7yWnziTKpoq--9" value="qa&lt;br&gt;&lt;font style=&quot;font-size: 8px;&quot;&gt;10.3.0.0/16&lt;/font&gt;" style="rounded=1;whiteSpace=wrap;html=1;" vertex="1" parent="1">
          <mxGeometry x="154.99" y="520" width="70" height="30" as="geometry" />
        </mxCell>
        <mxCell id="5jTDvBwV7yWnziTKpoq--10" value="dev&lt;br&gt;&lt;font style=&quot;font-size: 8px;&quot;&gt;10.2.0.0/16&lt;/font&gt;" style="rounded=1;whiteSpace=wrap;html=1;" vertex="1" parent="1">
          <mxGeometry x="34.99" y="520" width="70" height="30" as="geometry" />
        </mxCell>
        <mxCell id="5jTDvBwV7yWnziTKpoq--39" style="edgeStyle=orthogonalEdgeStyle;rounded=0;orthogonalLoop=1;jettySize=auto;html=1;dashed=1;" edge="1" parent="1" source="5jTDvBwV7yWnziTKpoq--11">
          <mxGeometry relative="1" as="geometry">
            <mxPoint x="68.67499999999995" y="240" as="targetPoint" />
          </mxGeometry>
        </mxCell>
        <mxCell id="5jTDvBwV7yWnziTKpoq--11" value="" style="shape=image;verticalLabelPosition=bottom;labelBackgroundColor=default;verticalAlign=top;aspect=fixed;imageAspect=0;image=data:image/png,iVBORw0KGgoAAAANSUhEUgAAAGwAAAByCAYAAAC2ujQmAAAAAXNSR0IArs4c6QAAAJZlWElmTU0AKgAAAAgABAEaAAUAAAABAAAAPgEbAAUAAAABAAAARgEoAAMAAAABAAIAAIdpAAQAAAABAAAATgAAAAAAAACQAAAAAQAAAJAAAAABAASShgAHAAAAEgAAAISgAQADAAAAAQABAACgAgAEAAAAAQAAAGygAwAEAAAAAQAAAHIAAAAAQVNDSUkAAABTY3JlZW5zaG90SpNP0QAAAAlwSFlzAAAWJQAAFiUBSVIk8AAAAdZpVFh0WE1MOmNvbS5hZG9iZS54bXAAAAAAADx4OnhtcG1ldGEgeG1sbnM6eD0iYWRvYmU6bnM6bWV0YS8iIHg6eG1wdGs9IlhNUCBDb3JlIDYuMC4wIj4KICAgPHJkZjpSREYgeG1sbnM6cmRmPSJodHRwOi8vd3d3LnczLm9yZy8xOTk5LzAyLzIyLXJkZi1zeW50YXgtbnMjIj4KICAgICAgPHJkZjpEZXNjcmlwdGlvbiByZGY6YWJvdXQ9IiIKICAgICAgICAgICAgeG1sbnM6ZXhpZj0iaHR0cDovL25zLmFkb2JlLmNvbS9leGlmLzEuMC8iPgogICAgICAgICA8ZXhpZjpQaXhlbFlEaW1lbnNpb24+MTE0PC9leGlmOlBpeGVsWURpbWVuc2lvbj4KICAgICAgICAgPGV4aWY6UGl4ZWxYRGltZW5zaW9uPjEwODwvZXhpZjpQaXhlbFhEaW1lbnNpb24+CiAgICAgICAgIDxleGlmOlVzZXJDb21tZW50PlNjcmVlbnNob3Q8L2V4aWY6VXNlckNvbW1lbnQ+CiAgICAgIDwvcmRmOkRlc2NyaXB0aW9uPgogICA8L3JkZjpSREY+CjwveDp4bXBtZXRhPgqpEfr/AAAAHGlET1QAAAACAAAAAAAAADkAAAAoAAAAOQAAADkAAAuFM8yaVQAAC1FJREFUeAHsXAmQFNUZ/nfZgz3ZZS/2RlhATiUoQkBRDkEU5BZJgRo1iSbeibFMNB6pMkpMNJKYeMUygAe364EgEYggiIASDpFz2ZO92fvE/F+Ht9Mz87qnZ6Zndrpqvqqpnn3zuvv1+/v9x/f/b0O+Z1AQlpmBkKDALCMrZaBBgVlLXhQUWFBgFpsBiw03uMKCArPYDFhsuMEVFhSYxWbAYsMNrrCgwCw2AxYbbnCFBQVmsRmw2HCDKywoMIvNgMWGa/kVVtV6nk43dNCphnblWN5ynmrb/v85136eQlggiRGhlMCfxMhQyojqQRfFhlO/uDA+hlHPHuhhHVhOYGXNnbS5tJm2lLYon6KmDo9nO5RlNSopkian9+RPFI1LiaTIABegJQQGIa041Ujvnm6kPZWtHgvI1YmxYaE0MzuKbr4ohqZmRFE4JBpgCGiBbSpppmcOnqOtZS1uTVtyZA9F/SWxCuzkfHoNq83qtk6q5qNRQIXe2j+WHh3ei1J69jB6ms/7BaTANhY30xPf1NJuF6tpcK9wui4zioYkRFAe26S8uHDKjNaf3ILGDjpex5/6dvpvTRvlFzXTGW7TQhSryF9cHE8PD4snvAjdjYASGJyHu3dX0ccsMC1AQNP5c2N2NGXHhGl1c6v9yLl2+ojvmV/YRNvOyldzTFgIPXFJAv1yaC+3rm1254AR2NMHaunxr2ulzwfh3JoXq9gVvPG+xDn2MNez4F76to72VrU53Qqr+h9jk+jK1J5Ov/mjodsFdrSuneZuLadDte1Oz3tp7whaNjqJxqVGOv3mj4ZVBY30yL4aOllvrzLxytw7OJ6e/UGi373KbhXY37+rp7t2VTnNfR+OlZ4blUiL+8U6/dYdDc8fruPVX0NNHfYVgSMSI+i9CSk0KD7cb8PqNoHdtqOS3jzR4PSgv2Gv7NHhCRTNNiOQgNDi17za3pKMeRULbV5ujF+G63eB1TP7MOPf5U7GHbZhzdWphGMg4zMOMW7eXkFnWzq7holXC3btzgFxXW2++uJXgZXzQ07efFZxp9UPdD/bgz9f3lvdFNDfK1s7afHnlYTwQ42nLk2gx0YkqJtM/+43gTVzBDvmo1I6wLGPAN7MN8cl0xIOUK2In3xRRa8eq7cb+jPsiDwyzHeuv18EBlM9k9XgB0VNXQ8H73z5lSm0sK9/dH/XjU3+cs+X1bSMQwABvISrJqTS3Nxo0WTq0S8Cg7F+jikmNeBdzTdgqGs4LgLb3h0A6w+KyhUe3ltDSw/ZP9/O69JpLJPJZsPnAsvnVYXVpcY/WQ2Cp9ND+/nvFR5x6cE62j8jXaGd9Pqb/RtelH5rixRHArbJVRrG0esFj3noxkxKM5mH9KnAwNeNzC+lhg4b6foCOxf3sZOhhxMcqM7mYBpcHwDmfOPkNL1TTP/tpxwfvsJxIoA4a8PEVN14i98vWrC9nNYU2NQ+Vtj2aelkZoTiU4ENe7/YjsG4a1Ac/e2KJN3J/YQZ+gXbKqiO3X81VrC9W8RpD39gV0Urjf241O5W8eGh9D4LbUKaPiU18oMS+rra5lj9irlHkABmwWcCA9v+JH8EwAp8dX26bo5pxclGWrKjgvC2OgIq5uisLMLRlwCZMXRDMX3HlJkjwkJClJUG8lkLILBH5JcQ4k2BfTdk0Eim2cyATwR2igcN/S8Qx2/ngRkZ1JdT8lpYzbzdTRyQyoQlzgFV9db4ZPGnT45PMQn9Ow0SGjeM4KTmh5NSlQy11gAc7fYYVo1fsBNiBnwisGs2ldklHV8a3VvJKWkN+PPyFrr6kzIl2ajVR7RvmpJGUzid7wtgVWF1tCLrqQPQZl9dn6HLysxntY6XUODtq8wJYUwXGGotJm8uE+MkMO77WSVooZQ5Otg6o9lgJCiPzc4iX6RZYLdgv4wAyVJ4rygrkKG4qZMGrCsiEAZADufuCuZmybq61Wa6wCby6gLfJvDl9HS6PFk7HhnN7Ie7dRoPDImnP11mLpX1+vEGumNnpRi2oeOcnGiF/9TqjNgMMZrA6z9Mph9zXs8bmCqwfewdjWIvSWBGVrTiWYm/HY+Psa34PdsMdwE2Ya+JhhxE7qD1xYTkpbtYPj6FftRP7r1idWWuKiTEdMBADg+OcGzmTW2PqQKb/Vm5kq0VDw1DC4Mrg6NwZX302oYmhNPBmZl6XQz/tpCdHVRkeQI4VMdmawfIjpl0b1MxpgkMDHbae4VdXt5VHK9sm9pHcw7Gsb3YadBeaF3kaWYgfuslO47KrKmfntW6haH2uzm+/KtGfInVhVUmbJmreXF1Q9ME9ixzhUinC+i9SY5urzjH3SNc7IMzM2iAhxlfTOLAdcXkTTEqxgwiG44QKolluJNZ/ddUrP7JOdp9Zeer20wTWN81RYQSMqAXE6YVC7I1g+RL2HVWp1nUA3L3+xXs0Oxix8YTPLCnml44YmPaPbmGOOd2diZeY6dChh3lrTR+o405eZy1wpOsHTyBKQI7zGViYAcEUKDyokZCEmVkiLnMBOgu0F7uADb0MnaQ9CMu41dEiXfJvGzqrcHE5LGLD44UyGUX/7SHLr4pAnMsptFzNuYwqbvujI0gNT4l2j1RMwjaylURqfoKZq5ycV09m4oSPjggAp6qRVMEpvayMHn1i3KVXSNicOKIqqOYlQXiT90jaCzwckYBfu/DScYYfcf4SO8esI/HJLyi7BzYMAhCBsSmiFEFXuUakDs8qAExRWDp7AWhqgi4gWOvfGa1ZdjABZqz2PU3grVckAM7BxLZKIwkRcFzQn0Lr83VtUHc/oXtnKzCS3buVvaMZYx+Czs4ie+cIRwBZB6QgXAXXgushCmYzNWFXfdFMQ2KamRADSLUpyuMZkdi9wVHApMLG2kESBYenZWpOD1a/UGbgT4zggeZUXmeGRV4kdmrbWS23rl69lvNAmF/2gn2LN2F1wLDXq1ruRJKYMu1fWhiH3nOCMSqSEqK/rIjyt1A+wD7L7AnRp2D29hbe0PDW1t+skGpdpLd07ENKvkwsxKCs1zCVVL/4vNdYTinkZCZkOE+9kqxWgU6FvdVQgLxt5Gj1wJ7kQdwPw9EoHR+NqFy1xHIDyWwStBLn+Ac7BApmZ9lFxLg+riPUSBgR4CqBmin/uypYcemETheA1uekIUwgqqbcqTe4stH65XNHuIaeCHcrcP0WmDYbYKBAChYqVmYI8ZjdzTqzstUCpyVIawaRZxnd2HJH1A3oK3E6kAXx5oLyWldTSBoQdQ6IodjzUKdrUmiv5aWcRT6hmtSeQOhe9VVXgts0X8q6G3eHQnopVLeYDb8dgNs+LucN1ogKX1zVL1icrSO2Ba09EJq3ujLgmvp2UGULmCDhCu8PCaJfjbQOS7EPrRcFrrAMo4ff+5m/Oi1wOZtsxWeqJ0FMShxNMrMn2K3WCszfQvX48tq28U91EfQRXs4yTiES78H8+qEd2gEepQaSvVQsucKD7Gz8kdJ+qeN7UHkcltYoxe3ad3Da4GhhA3cIIA9U9unyQlf5JqQc9IDYrgGjuG0ACJ1MKdB1HXtWn3RjjoKVFz9gSfaCLAPbT2rKS1go+H0LTYHS6vfLVzCh4pmGeJWnumqIlNrAVlfWZvXApvGTDcqnYBJvBv/0ylygalVp2wgaDOSlUUaBIG62QD/iZBAr44QiVYkXF0BO1mwUmWA4yP2m2HzxCscQLsDrwWGnSiiBFsvdaBWnVoDRGXVNxousfoc9T3V7d58B3ELAlcPjsVFWn3hSMChkOFi1hDYxAhoOTey80Sb1wJTrxyoIDADMmCLzjsukoT92bs7biCYhErMW1vcpVpk93OnTe9FU1/nWw7gYQ9dAf82YqUGi5HBrBDqWABPdu38DwAA//8JFEdRAAAKyklEQVTtWwtwFdUZ/kMCISEJSSABkpAA8hYRLCAVFBUfVAtBAeXRUdvSOlQZHduptmOx4lTtg9oqo9WOj9oaBQoIikWmCAV0kLfyELAIeZCQF3mSN9D/u8nenLs5Z++5uXuTbGe/meTunj3n7L/n3/O/N+wyg4LAg7tL6bWTVZ4ZhsV1p5OzU6WzPfR5Kb18ormftAM3JkZ2o9J701WXfdr/wvdcwvcOFj26hdEJpnlQTITfqT4tqqepmwv89ls6Mo5enJQo7ReTlU0XmpqXfNnYeHp6XLy0n6oxLFiG/Xx/Gf3+aIVn/v5R4VQwb6D0Xk8dKqflX5ZLr4mNNYsyKCo8TGxSHt+w+RztLKpTXte58IcJifTT0XE6XWnVmQs0f0ex377LmQm/YmbIEPb2GW/zCr73Y5r3NgYFzbAVxyrpZ/vOG/NRHS94pGTB3/hvNf3wsxJvP9XBttv60439e6ou+7R/XdlIYzbmU8Ol9gmJ8Yk9aO+dKSQh1+c+xslj/Jwv8PP6w6obkuieQb3adDte0UijNpz1tr/L/eZL+nk7SA6CZtgHeTU065Mi79QHv5tC43ghzNhXWk8TN/kXJ89dk0BPjOltHq48/+2RCnriQJnyutWFQzNT6OqEtrSqxkz5VwF9VlyvuuxtP84idgSrBzM25NbQ7G2ta3WA1wovTSAImmEn+C0f+b7/t6bu4mWKeifbL21X8QJ+yQsZCMZ/mE+HzjcEMoSeZJH1TAD6I/dCE6WvzfN7D4hziHUZfscv1+PCy6WSRrKxRlvQDMNEolz+xVW96dnxCcb8Pr+TPiqgvSX+39A9dwygiX0jfcZanRxkZk3clE/8TmgBxtGRWSkEg0MXz7D+XcZ62B8yB0bT+zclS7tB/0EPAgN7RVDOnDRpP6tGWxg2gRdrf2nzG34tL/RuXnAZdB96bkYvWjMtSTaFsk00fpSdWi6APtCpC0iHQby7Cusu+h3y1pS+dP8VMdJ+fVbl0Pn6S55rd6VH07ob5YyVDm5ptIVh4mLhpa1YkE4xEd3a3PdwWQON/SC/TbusYT/L92sClO8zWZdWNTYviGxOtN3EBs1TV8stONUYWMF4Rh2cn59OCT3aPvtXbHCMFgyOldf2oYdGxOpM6dPHFoZ9nF9LM/5d6J140/R+dEdqlPdcPPgW65sDGvrGaqeK84X6OK+myWOJVjRYvwigY/GwWPrrt/tISVp5vJKW7mm1puH7DZcYJtLBQqMtDKtlkREtGBT3sUj4G4sGGV5n836xhnmPsY+ztfg8W42dBXgL0z4+R7s0fb1jmak0qndb6xD0T2b9/XmL/k6NDqe8uXJ/1d+z2sIw3ASmPUx8oCdbSiUcsegV0Vapg7nQB0Ua+gBzZV2fRAsGt/VpcC3U0InOGDRAokCyyHC6uomGrGu1MB8dFUcvTJRHQmTjxTbbGLaarZ97hSjAG9f1pe8PlSvfN3mX/UBzl0Envj0liRYN6Vim/YRDaa/4CaWJC3mYrc4x8XKf6pcHy+i5w83RIIxpj3427mUbw7Bz+q3O9Sr9sexPfWHhT+ma+CAU+xTuwvJxCdpRCeMBA/2Frlq0q5g25dVqD4UEgCSQAeuSuiaXylp04JDYCDp1V+DmvDG3bQzDhAg9IQRlYMut/ejWAXLj4xhbTVcKVpMxxup3anJPeo2VukpPWI3Vuba1oI4e+LSEYGjoIrZ7NzqWmUJp0fLg8YtfVdIje1uNDehk6Ob2wlaGnWyJehj+681sQm/l2KAKZs9f1c/cDqPmFTaLoyU60txX57yk/iLdv6uEPjqrv6uMeWFcgR4ZEJTPWJtL+TXN/htcnYJ70qQuj2y8rM1WhuEGd28vovU5zcYHznfM6E/X886QAVbYZI7P6UQ/xPEILlcvzCCb+OURV4nv5Yi30Dq+PSWKNt8iNzQwwZ95dz0q7C6rKJDWDbmT7QwzB3lHspl7ZFaqUvd8U9XEzvRZb45Ih3CIWYhbOwGHHo69LpJ7htNRFoV9I8OlQ87VXqThHGM1HHnEGHPmpin7SyeRNNrOMNxj7n+KaG126y7zl/fZfq6ObmfHWzdNglgl3lY7AT0DfaMD6K2dLDmsIv0L2GJ+ryVuiDnbk6yU0RIShp1lmT1sfR7BQgIgu5HKuIItJBU+ZB8OqYeWIapunvZAY4GWk7VcNKc+VGPgY0IvX5ekjkVu5DRKppBGGczZbDjVGBssQsIwEGU2KEazaIT/YUX0u6cv0MKd1hldML9yYbrH1A/24cXx1U2XKC4rhwyDSbxmHEeEhbFznEy3se5SoZgDAiNYFBpmPPoFkpRVzWu0h4xhuIEYxcf5j4fH0quT5bE2XAfWscFyH/tBRt1Dc2vr/5lp0bTx5sCj3K0zqI+QYIUOliGJdRbSJlY7C+O+s7WQNgvWJiL3iODbhZAy7AyHZJBcLBcCp3/ikMwjHJqxApKimRzqwq8ZCOkgtBMKILkIyWDGJE7FbGBmoWbFCk9/UU6/5j8D8Bf3cQmCXe4H5g0pw3ADvG1460ToxAchouDEisYL5rAKAYn3aM/xFs46wPgRoRv3A50wtgyASYj0DI2VB4ONfoH+hpxhIAhvHd4+Ef+clkxzMqLFJukxog8P7yklFLAgz4R8U6hQzxZPDOuxJq78Q3rnVY6qWFmCBh2o80C9h4j1vCNnc/bZbnQIw0A0aghRS2gABtM/OP6mUzUEyxG1j4fLG+hljnCEEkjjI82vmyHYxi7JzE8KfXTum6yzHlBEP4KlvcMYButrnsk/g5Gb1Y5Sr2Af2q7xcEXu3l5MjUKZnY6ODub+HcYwg0ikYJCKEYFiSjjXTsJvOF3yJKdNRAQb2BXnUh13OMMg3r7HvpYYBQBx0BVruSjFyrlWPURHtiOUNp/pN8c/X+LS7Ie5RDvU6HCGGQ9kTsUY7SiQQSGplYNt9O3o3z9y1e+yQ2U++go0QK8uaUdBTXvo7zSGgVjVBw2o2VsxIYHmcblbVwDCVijTxu4SgdoMlFurshFiX7uOO5VheIij5Y00h1MyMicZ4SwEeRcMjlFG++1aCPM8MJLWsW/1PDvSsujHnWlR9PepSdKSNvNcdp53OsOMh7H6uiWDd9ziYTFcIxJLeKtDCaRD3jpVTS8dryJ8bGEG0imwBDu6xsSgo8swDASdYpHz4O4SgrOswi2cC4OPhDe8H8f37ACiKjsK6ynrdDW9842vBSvODz0FSzCO0yudhS7FMGMRkB/Dx39rstWLh774SmYGR86RJEUIaGhchBYT8eEEagTxt5ujFKjKVQHZgR8Nj/HEP7HTOxtdkmHGomTzFyMrWTS9/nWVT7rCuK76RWQdYSx80RkpfPCABCk+nECtvD+gKnfpyFiPGJbVV/obH6rrXZphxkMjxreadxt2HXZEqNCdmYuPFJZwGkj3o8JQ0aKa1xEME4lHCdqW/DrWc7UeXafzRYk43nx8ZXx3ms56cTpXeOFDCaT/uzIcxzDzYqLkG6XQyL3hDxnfisbLhIJQ5OEgESEe4/kvgUXkAM5p4QP0QayPhrDe60rizvxssnPHM0z2UP/PbS7DHMZdl2Euwxy2Ag4j191hLsMctgIOI9fdYS7DHLYCDiPX3WEuwxy2Ag4j191hLsMctgIOI9fdYS7DHLYCDiPX3WEuwxy2Ag4j191hLsMctgIOI9fdYQ5j2P8Ayv/GMrDq4rwAAAAASUVORK5CYII=;imageBorder=default;dashed=1;" vertex="1" parent="1">
          <mxGeometry x="44.99000000000005" y="374" width="47.37" height="50" as="geometry" />
        </mxCell>
        <mxCell id="5jTDvBwV7yWnziTKpoq--48" style="edgeStyle=orthogonalEdgeStyle;rounded=0;orthogonalLoop=1;jettySize=auto;html=1;dashed=1;" edge="1" parent="1" source="5jTDvBwV7yWnziTKpoq--12">
          <mxGeometry relative="1" as="geometry">
            <mxPoint x="182.35500000000002" y="320" as="targetPoint" />
          </mxGeometry>
        </mxCell>
        <mxCell id="5jTDvBwV7yWnziTKpoq--12" value="" style="shape=image;verticalLabelPosition=bottom;labelBackgroundColor=default;verticalAlign=top;aspect=fixed;imageAspect=0;image=data:image/png,iVBORw0KGgoAAAANSUhEUgAAAGwAAAByCAYAAAC2ujQmAAAAAXNSR0IArs4c6QAAAJZlWElmTU0AKgAAAAgABAEaAAUAAAABAAAAPgEbAAUAAAABAAAARgEoAAMAAAABAAIAAIdpAAQAAAABAAAATgAAAAAAAACQAAAAAQAAAJAAAAABAASShgAHAAAAEgAAAISgAQADAAAAAQABAACgAgAEAAAAAQAAAGygAwAEAAAAAQAAAHIAAAAAQVNDSUkAAABTY3JlZW5zaG90SpNP0QAAAAlwSFlzAAAWJQAAFiUBSVIk8AAAAdZpVFh0WE1MOmNvbS5hZG9iZS54bXAAAAAAADx4OnhtcG1ldGEgeG1sbnM6eD0iYWRvYmU6bnM6bWV0YS8iIHg6eG1wdGs9IlhNUCBDb3JlIDYuMC4wIj4KICAgPHJkZjpSREYgeG1sbnM6cmRmPSJodHRwOi8vd3d3LnczLm9yZy8xOTk5LzAyLzIyLXJkZi1zeW50YXgtbnMjIj4KICAgICAgPHJkZjpEZXNjcmlwdGlvbiByZGY6YWJvdXQ9IiIKICAgICAgICAgICAgeG1sbnM6ZXhpZj0iaHR0cDovL25zLmFkb2JlLmNvbS9leGlmLzEuMC8iPgogICAgICAgICA8ZXhpZjpQaXhlbFlEaW1lbnNpb24+MTE0PC9leGlmOlBpeGVsWURpbWVuc2lvbj4KICAgICAgICAgPGV4aWY6UGl4ZWxYRGltZW5zaW9uPjEwODwvZXhpZjpQaXhlbFhEaW1lbnNpb24+CiAgICAgICAgIDxleGlmOlVzZXJDb21tZW50PlNjcmVlbnNob3Q8L2V4aWY6VXNlckNvbW1lbnQ+CiAgICAgIDwvcmRmOkRlc2NyaXB0aW9uPgogICA8L3JkZjpSREY+CjwveDp4bXBtZXRhPgqpEfr/AAAAHGlET1QAAAACAAAAAAAAADkAAAAoAAAAOQAAADkAAAuFM8yaVQAAC1FJREFUeAHsXAmQFNUZ/nfZgz3ZZS/2RlhATiUoQkBRDkEU5BZJgRo1iSbeibFMNB6pMkpMNJKYeMUygAe364EgEYggiIASDpFz2ZO92fvE/F+Ht9Mz87qnZ6Zndrpqvqqpnn3zuvv1+/v9x/f/b0O+Z1AQlpmBkKDALCMrZaBBgVlLXhQUWFBgFpsBiw03uMKCArPYDFhsuMEVFhSYxWbAYsMNrrCgwCw2AxYbbnCFBQVmsRmw2HCDKywoMIvNgMWGa/kVVtV6nk43dNCphnblWN5ynmrb/v85136eQlggiRGhlMCfxMhQyojqQRfFhlO/uDA+hlHPHuhhHVhOYGXNnbS5tJm2lLYon6KmDo9nO5RlNSopkian9+RPFI1LiaTIABegJQQGIa041Ujvnm6kPZWtHgvI1YmxYaE0MzuKbr4ohqZmRFE4JBpgCGiBbSpppmcOnqOtZS1uTVtyZA9F/SWxCuzkfHoNq83qtk6q5qNRQIXe2j+WHh3ei1J69jB6ms/7BaTANhY30xPf1NJuF6tpcK9wui4zioYkRFAe26S8uHDKjNaf3ILGDjpex5/6dvpvTRvlFzXTGW7TQhSryF9cHE8PD4snvAjdjYASGJyHu3dX0ccsMC1AQNP5c2N2NGXHhGl1c6v9yLl2+ojvmV/YRNvOyldzTFgIPXFJAv1yaC+3rm1254AR2NMHaunxr2ulzwfh3JoXq9gVvPG+xDn2MNez4F76to72VrU53Qqr+h9jk+jK1J5Ov/mjodsFdrSuneZuLadDte1Oz3tp7whaNjqJxqVGOv3mj4ZVBY30yL4aOllvrzLxytw7OJ6e/UGi373KbhXY37+rp7t2VTnNfR+OlZ4blUiL+8U6/dYdDc8fruPVX0NNHfYVgSMSI+i9CSk0KD7cb8PqNoHdtqOS3jzR4PSgv2Gv7NHhCRTNNiOQgNDi17za3pKMeRULbV5ujF+G63eB1TP7MOPf5U7GHbZhzdWphGMg4zMOMW7eXkFnWzq7holXC3btzgFxXW2++uJXgZXzQ07efFZxp9UPdD/bgz9f3lvdFNDfK1s7afHnlYTwQ42nLk2gx0YkqJtM/+43gTVzBDvmo1I6wLGPAN7MN8cl0xIOUK2In3xRRa8eq7cb+jPsiDwyzHeuv18EBlM9k9XgB0VNXQ8H73z5lSm0sK9/dH/XjU3+cs+X1bSMQwABvISrJqTS3Nxo0WTq0S8Cg7F+jikmNeBdzTdgqGs4LgLb3h0A6w+KyhUe3ltDSw/ZP9/O69JpLJPJZsPnAsvnVYXVpcY/WQ2Cp9ND+/nvFR5x6cE62j8jXaGd9Pqb/RtelH5rixRHArbJVRrG0esFj3noxkxKM5mH9KnAwNeNzC+lhg4b6foCOxf3sZOhhxMcqM7mYBpcHwDmfOPkNL1TTP/tpxwfvsJxIoA4a8PEVN14i98vWrC9nNYU2NQ+Vtj2aelkZoTiU4ENe7/YjsG4a1Ac/e2KJN3J/YQZ+gXbKqiO3X81VrC9W8RpD39gV0Urjf241O5W8eGh9D4LbUKaPiU18oMS+rra5lj9irlHkABmwWcCA9v+JH8EwAp8dX26bo5pxclGWrKjgvC2OgIq5uisLMLRlwCZMXRDMX3HlJkjwkJClJUG8lkLILBH5JcQ4k2BfTdk0Eim2cyATwR2igcN/S8Qx2/ngRkZ1JdT8lpYzbzdTRyQyoQlzgFV9db4ZPGnT45PMQn9Ow0SGjeM4KTmh5NSlQy11gAc7fYYVo1fsBNiBnwisGs2ldklHV8a3VvJKWkN+PPyFrr6kzIl2ajVR7RvmpJGUzid7wtgVWF1tCLrqQPQZl9dn6HLysxntY6XUODtq8wJYUwXGGotJm8uE+MkMO77WSVooZQ5Otg6o9lgJCiPzc4iX6RZYLdgv4wAyVJ4rygrkKG4qZMGrCsiEAZADufuCuZmybq61Wa6wCby6gLfJvDl9HS6PFk7HhnN7Ie7dRoPDImnP11mLpX1+vEGumNnpRi2oeOcnGiF/9TqjNgMMZrA6z9Mph9zXs8bmCqwfewdjWIvSWBGVrTiWYm/HY+Psa34PdsMdwE2Ya+JhhxE7qD1xYTkpbtYPj6FftRP7r1idWWuKiTEdMBADg+OcGzmTW2PqQKb/Vm5kq0VDw1DC4Mrg6NwZX302oYmhNPBmZl6XQz/tpCdHVRkeQI4VMdmawfIjpl0b1MxpgkMDHbae4VdXt5VHK9sm9pHcw7Gsb3YadBeaF3kaWYgfuslO47KrKmfntW6haH2uzm+/KtGfInVhVUmbJmreXF1Q9ME9ixzhUinC+i9SY5urzjH3SNc7IMzM2iAhxlfTOLAdcXkTTEqxgwiG44QKolluJNZ/ddUrP7JOdp9Zeer20wTWN81RYQSMqAXE6YVC7I1g+RL2HVWp1nUA3L3+xXs0Oxix8YTPLCnml44YmPaPbmGOOd2diZeY6dChh3lrTR+o405eZy1wpOsHTyBKQI7zGViYAcEUKDyokZCEmVkiLnMBOgu0F7uADb0MnaQ9CMu41dEiXfJvGzqrcHE5LGLD44UyGUX/7SHLr4pAnMsptFzNuYwqbvujI0gNT4l2j1RMwjaylURqfoKZq5ycV09m4oSPjggAp6qRVMEpvayMHn1i3KVXSNicOKIqqOYlQXiT90jaCzwckYBfu/DScYYfcf4SO8esI/HJLyi7BzYMAhCBsSmiFEFXuUakDs8qAExRWDp7AWhqgi4gWOvfGa1ZdjABZqz2PU3grVckAM7BxLZKIwkRcFzQn0Lr83VtUHc/oXtnKzCS3buVvaMZYx+Czs4ie+cIRwBZB6QgXAXXgushCmYzNWFXfdFMQ2KamRADSLUpyuMZkdi9wVHApMLG2kESBYenZWpOD1a/UGbgT4zggeZUXmeGRV4kdmrbWS23rl69lvNAmF/2gn2LN2F1wLDXq1ruRJKYMu1fWhiH3nOCMSqSEqK/rIjyt1A+wD7L7AnRp2D29hbe0PDW1t+skGpdpLd07ENKvkwsxKCs1zCVVL/4vNdYTinkZCZkOE+9kqxWgU6FvdVQgLxt5Gj1wJ7kQdwPw9EoHR+NqFy1xHIDyWwStBLn+Ac7BApmZ9lFxLg+riPUSBgR4CqBmin/uypYcemETheA1uekIUwgqqbcqTe4stH65XNHuIaeCHcrcP0WmDYbYKBAChYqVmYI8ZjdzTqzstUCpyVIawaRZxnd2HJH1A3oK3E6kAXx5oLyWldTSBoQdQ6IodjzUKdrUmiv5aWcRT6hmtSeQOhe9VVXgts0X8q6G3eHQnopVLeYDb8dgNs+LucN1ogKX1zVL1icrSO2Ba09EJq3ujLgmvp2UGULmCDhCu8PCaJfjbQOS7EPrRcFrrAMo4ff+5m/Oi1wOZtsxWeqJ0FMShxNMrMn2K3WCszfQvX48tq28U91EfQRXs4yTiES78H8+qEd2gEepQaSvVQsucKD7Gz8kdJ+qeN7UHkcltYoxe3ad3Da4GhhA3cIIA9U9unyQlf5JqQc9IDYrgGjuG0ACJ1MKdB1HXtWn3RjjoKVFz9gSfaCLAPbT2rKS1go+H0LTYHS6vfLVzCh4pmGeJWnumqIlNrAVlfWZvXApvGTDcqnYBJvBv/0ylygalVp2wgaDOSlUUaBIG62QD/iZBAr44QiVYkXF0BO1mwUmWA4yP2m2HzxCscQLsDrwWGnSiiBFsvdaBWnVoDRGXVNxousfoc9T3V7d58B3ELAlcPjsVFWn3hSMChkOFi1hDYxAhoOTey80Sb1wJTrxyoIDADMmCLzjsukoT92bs7biCYhErMW1vcpVpk93OnTe9FU1/nWw7gYQ9dAf82YqUGi5HBrBDqWABPdu38DwAA//8JFEdRAAAKyklEQVTtWwtwFdUZ/kMCISEJSSABkpAA8hYRLCAVFBUfVAtBAeXRUdvSOlQZHduptmOx4lTtg9oqo9WOj9oaBQoIikWmCAV0kLfyELAIeZCQF3mSN9D/u8nenLs5Z++5uXuTbGe/meTunj3n7L/n3/O/N+wyg4LAg7tL6bWTVZ4ZhsV1p5OzU6WzPfR5Kb18ormftAM3JkZ2o9J701WXfdr/wvdcwvcOFj26hdEJpnlQTITfqT4tqqepmwv89ls6Mo5enJQo7ReTlU0XmpqXfNnYeHp6XLy0n6oxLFiG/Xx/Gf3+aIVn/v5R4VQwb6D0Xk8dKqflX5ZLr4mNNYsyKCo8TGxSHt+w+RztLKpTXte58IcJifTT0XE6XWnVmQs0f0ex377LmQm/YmbIEPb2GW/zCr73Y5r3NgYFzbAVxyrpZ/vOG/NRHS94pGTB3/hvNf3wsxJvP9XBttv60439e6ou+7R/XdlIYzbmU8Ol9gmJ8Yk9aO+dKSQh1+c+xslj/Jwv8PP6w6obkuieQb3adDte0UijNpz1tr/L/eZL+nk7SA6CZtgHeTU065Mi79QHv5tC43ghzNhXWk8TN/kXJ89dk0BPjOltHq48/+2RCnriQJnyutWFQzNT6OqEtrSqxkz5VwF9VlyvuuxtP84idgSrBzM25NbQ7G2ta3WA1wovTSAImmEn+C0f+b7/t6bu4mWKeifbL21X8QJ+yQsZCMZ/mE+HzjcEMoSeZJH1TAD6I/dCE6WvzfN7D4hziHUZfscv1+PCy6WSRrKxRlvQDMNEolz+xVW96dnxCcb8Pr+TPiqgvSX+39A9dwygiX0jfcZanRxkZk3clE/8TmgBxtGRWSkEg0MXz7D+XcZ62B8yB0bT+zclS7tB/0EPAgN7RVDOnDRpP6tGWxg2gRdrf2nzG34tL/RuXnAZdB96bkYvWjMtSTaFsk00fpSdWi6APtCpC0iHQby7Cusu+h3y1pS+dP8VMdJ+fVbl0Pn6S55rd6VH07ob5YyVDm5ptIVh4mLhpa1YkE4xEd3a3PdwWQON/SC/TbusYT/L92sClO8zWZdWNTYviGxOtN3EBs1TV8stONUYWMF4Rh2cn59OCT3aPvtXbHCMFgyOldf2oYdGxOpM6dPHFoZ9nF9LM/5d6J140/R+dEdqlPdcPPgW65sDGvrGaqeK84X6OK+myWOJVjRYvwigY/GwWPrrt/tISVp5vJKW7mm1puH7DZcYJtLBQqMtDKtlkREtGBT3sUj4G4sGGV5n836xhnmPsY+ztfg8W42dBXgL0z4+R7s0fb1jmak0qndb6xD0T2b9/XmL/k6NDqe8uXJ/1d+z2sIw3ASmPUx8oCdbSiUcsegV0Vapg7nQB0Ua+gBzZV2fRAsGt/VpcC3U0InOGDRAokCyyHC6uomGrGu1MB8dFUcvTJRHQmTjxTbbGLaarZ97hSjAG9f1pe8PlSvfN3mX/UBzl0Envj0liRYN6Vim/YRDaa/4CaWJC3mYrc4x8XKf6pcHy+i5w83RIIxpj3427mUbw7Bz+q3O9Sr9sexPfWHhT+ma+CAU+xTuwvJxCdpRCeMBA/2Frlq0q5g25dVqD4UEgCSQAeuSuiaXylp04JDYCDp1V+DmvDG3bQzDhAg9IQRlYMut/ejWAXLj4xhbTVcKVpMxxup3anJPeo2VukpPWI3Vuba1oI4e+LSEYGjoIrZ7NzqWmUJp0fLg8YtfVdIje1uNDehk6Ob2wlaGnWyJehj+681sQm/l2KAKZs9f1c/cDqPmFTaLoyU60txX57yk/iLdv6uEPjqrv6uMeWFcgR4ZEJTPWJtL+TXN/htcnYJ70qQuj2y8rM1WhuEGd28vovU5zcYHznfM6E/X886QAVbYZI7P6UQ/xPEILlcvzCCb+OURV4nv5Yi30Dq+PSWKNt8iNzQwwZ95dz0q7C6rKJDWDbmT7QwzB3lHspl7ZFaqUvd8U9XEzvRZb45Ih3CIWYhbOwGHHo69LpJ7htNRFoV9I8OlQ87VXqThHGM1HHnEGHPmpin7SyeRNNrOMNxj7n+KaG126y7zl/fZfq6ObmfHWzdNglgl3lY7AT0DfaMD6K2dLDmsIv0L2GJ+ryVuiDnbk6yU0RIShp1lmT1sfR7BQgIgu5HKuIItJBU+ZB8OqYeWIapunvZAY4GWk7VcNKc+VGPgY0IvX5ekjkVu5DRKppBGGczZbDjVGBssQsIwEGU2KEazaIT/YUX0u6cv0MKd1hldML9yYbrH1A/24cXx1U2XKC4rhwyDSbxmHEeEhbFznEy3se5SoZgDAiNYFBpmPPoFkpRVzWu0h4xhuIEYxcf5j4fH0quT5bE2XAfWscFyH/tBRt1Dc2vr/5lp0bTx5sCj3K0zqI+QYIUOliGJdRbSJlY7C+O+s7WQNgvWJiL3iODbhZAy7AyHZJBcLBcCp3/ikMwjHJqxApKimRzqwq8ZCOkgtBMKILkIyWDGJE7FbGBmoWbFCk9/UU6/5j8D8Bf3cQmCXe4H5g0pw3ADvG1460ToxAchouDEisYL5rAKAYn3aM/xFs46wPgRoRv3A50wtgyASYj0DI2VB4ONfoH+hpxhIAhvHd4+Ef+clkxzMqLFJukxog8P7yklFLAgz4R8U6hQzxZPDOuxJq78Q3rnVY6qWFmCBh2o80C9h4j1vCNnc/bZbnQIw0A0aghRS2gABtM/OP6mUzUEyxG1j4fLG+hljnCEEkjjI82vmyHYxi7JzE8KfXTum6yzHlBEP4KlvcMYButrnsk/g5Gb1Y5Sr2Af2q7xcEXu3l5MjUKZnY6ODub+HcYwg0ikYJCKEYFiSjjXTsJvOF3yJKdNRAQb2BXnUh13OMMg3r7HvpYYBQBx0BVruSjFyrlWPURHtiOUNp/pN8c/X+LS7Ie5RDvU6HCGGQ9kTsUY7SiQQSGplYNt9O3o3z9y1e+yQ2U++go0QK8uaUdBTXvo7zSGgVjVBw2o2VsxIYHmcblbVwDCVijTxu4SgdoMlFurshFiX7uOO5VheIij5Y00h1MyMicZ4SwEeRcMjlFG++1aCPM8MJLWsW/1PDvSsujHnWlR9PepSdKSNvNcdp53OsOMh7H6uiWDd9ziYTFcIxJLeKtDCaRD3jpVTS8dryJ8bGEG0imwBDu6xsSgo8swDASdYpHz4O4SgrOswi2cC4OPhDe8H8f37ACiKjsK6ynrdDW9842vBSvODz0FSzCO0yudhS7FMGMRkB/Dx39rstWLh774SmYGR86RJEUIaGhchBYT8eEEagTxt5ujFKjKVQHZgR8Nj/HEP7HTOxtdkmHGomTzFyMrWTS9/nWVT7rCuK76RWQdYSx80RkpfPCABCk+nECtvD+gKnfpyFiPGJbVV/obH6rrXZphxkMjxreadxt2HXZEqNCdmYuPFJZwGkj3o8JQ0aKa1xEME4lHCdqW/DrWc7UeXafzRYk43nx8ZXx3ms56cTpXeOFDCaT/uzIcxzDzYqLkG6XQyL3hDxnfisbLhIJQ5OEgESEe4/kvgUXkAM5p4QP0QayPhrDe60rizvxssnPHM0z2UP/PbS7DHMZdl2Euwxy2Ag4j191hLsMctgIOI9fdYS7DHLYCDiPX3WEuwxy2Ag4j191hLsMctgIOI9fdYS7DHLYCDiPX3WEuwxy2Ag4j191hLsMctgIOI9fdYQ5j2P8Ayv/GMrDq4rwAAAAASUVORK5CYII=;imageBorder=default;dashed=1;" vertex="1" parent="1">
          <mxGeometry x="158.67000000000007" y="374" width="47.37" height="50" as="geometry" />
        </mxCell>
        <mxCell id="5jTDvBwV7yWnziTKpoq--49" style="edgeStyle=orthogonalEdgeStyle;rounded=0;orthogonalLoop=1;jettySize=auto;html=1;exitX=0.5;exitY=0;exitDx=0;exitDy=0;dashed=1;" edge="1" parent="1" source="5jTDvBwV7yWnziTKpoq--13">
          <mxGeometry relative="1" as="geometry">
            <mxPoint x="308" y="320" as="targetPoint" />
          </mxGeometry>
        </mxCell>
        <mxCell id="5jTDvBwV7yWnziTKpoq--13" value="" style="shape=image;verticalLabelPosition=bottom;labelBackgroundColor=default;verticalAlign=top;aspect=fixed;imageAspect=0;image=data:image/png,iVBORw0KGgoAAAANSUhEUgAAAGwAAAByCAYAAAC2ujQmAAAAAXNSR0IArs4c6QAAAJZlWElmTU0AKgAAAAgABAEaAAUAAAABAAAAPgEbAAUAAAABAAAARgEoAAMAAAABAAIAAIdpAAQAAAABAAAATgAAAAAAAACQAAAAAQAAAJAAAAABAASShgAHAAAAEgAAAISgAQADAAAAAQABAACgAgAEAAAAAQAAAGygAwAEAAAAAQAAAHIAAAAAQVNDSUkAAABTY3JlZW5zaG90SpNP0QAAAAlwSFlzAAAWJQAAFiUBSVIk8AAAAdZpVFh0WE1MOmNvbS5hZG9iZS54bXAAAAAAADx4OnhtcG1ldGEgeG1sbnM6eD0iYWRvYmU6bnM6bWV0YS8iIHg6eG1wdGs9IlhNUCBDb3JlIDYuMC4wIj4KICAgPHJkZjpSREYgeG1sbnM6cmRmPSJodHRwOi8vd3d3LnczLm9yZy8xOTk5LzAyLzIyLXJkZi1zeW50YXgtbnMjIj4KICAgICAgPHJkZjpEZXNjcmlwdGlvbiByZGY6YWJvdXQ9IiIKICAgICAgICAgICAgeG1sbnM6ZXhpZj0iaHR0cDovL25zLmFkb2JlLmNvbS9leGlmLzEuMC8iPgogICAgICAgICA8ZXhpZjpQaXhlbFlEaW1lbnNpb24+MTE0PC9leGlmOlBpeGVsWURpbWVuc2lvbj4KICAgICAgICAgPGV4aWY6UGl4ZWxYRGltZW5zaW9uPjEwODwvZXhpZjpQaXhlbFhEaW1lbnNpb24+CiAgICAgICAgIDxleGlmOlVzZXJDb21tZW50PlNjcmVlbnNob3Q8L2V4aWY6VXNlckNvbW1lbnQ+CiAgICAgIDwvcmRmOkRlc2NyaXB0aW9uPgogICA8L3JkZjpSREY+CjwveDp4bXBtZXRhPgqpEfr/AAAAHGlET1QAAAACAAAAAAAAADkAAAAoAAAAOQAAADkAAAuFM8yaVQAAC1FJREFUeAHsXAmQFNUZ/nfZgz3ZZS/2RlhATiUoQkBRDkEU5BZJgRo1iSbeibFMNB6pMkpMNJKYeMUygAe364EgEYggiIASDpFz2ZO92fvE/F+Ht9Mz87qnZ6Zndrpqvqqpnn3zuvv1+/v9x/f/b0O+Z1AQlpmBkKDALCMrZaBBgVlLXhQUWFBgFpsBiw03uMKCArPYDFhsuMEVFhSYxWbAYsMNrrCgwCw2AxYbbnCFBQVmsRmw2HCDKywoMIvNgMWGa/kVVtV6nk43dNCphnblWN5ynmrb/v85136eQlggiRGhlMCfxMhQyojqQRfFhlO/uDA+hlHPHuhhHVhOYGXNnbS5tJm2lLYon6KmDo9nO5RlNSopkian9+RPFI1LiaTIABegJQQGIa041Ujvnm6kPZWtHgvI1YmxYaE0MzuKbr4ohqZmRFE4JBpgCGiBbSpppmcOnqOtZS1uTVtyZA9F/SWxCuzkfHoNq83qtk6q5qNRQIXe2j+WHh3ei1J69jB6ms/7BaTANhY30xPf1NJuF6tpcK9wui4zioYkRFAe26S8uHDKjNaf3ILGDjpex5/6dvpvTRvlFzXTGW7TQhSryF9cHE8PD4snvAjdjYASGJyHu3dX0ccsMC1AQNP5c2N2NGXHhGl1c6v9yLl2+ojvmV/YRNvOyldzTFgIPXFJAv1yaC+3rm1254AR2NMHaunxr2ulzwfh3JoXq9gVvPG+xDn2MNez4F76to72VrU53Qqr+h9jk+jK1J5Ov/mjodsFdrSuneZuLadDte1Oz3tp7whaNjqJxqVGOv3mj4ZVBY30yL4aOllvrzLxytw7OJ6e/UGi373KbhXY37+rp7t2VTnNfR+OlZ4blUiL+8U6/dYdDc8fruPVX0NNHfYVgSMSI+i9CSk0KD7cb8PqNoHdtqOS3jzR4PSgv2Gv7NHhCRTNNiOQgNDi17za3pKMeRULbV5ujF+G63eB1TP7MOPf5U7GHbZhzdWphGMg4zMOMW7eXkFnWzq7holXC3btzgFxXW2++uJXgZXzQ07efFZxp9UPdD/bgz9f3lvdFNDfK1s7afHnlYTwQ42nLk2gx0YkqJtM/+43gTVzBDvmo1I6wLGPAN7MN8cl0xIOUK2In3xRRa8eq7cb+jPsiDwyzHeuv18EBlM9k9XgB0VNXQ8H73z5lSm0sK9/dH/XjU3+cs+X1bSMQwABvISrJqTS3Nxo0WTq0S8Cg7F+jikmNeBdzTdgqGs4LgLb3h0A6w+KyhUe3ltDSw/ZP9/O69JpLJPJZsPnAsvnVYXVpcY/WQ2Cp9ND+/nvFR5x6cE62j8jXaGd9Pqb/RtelH5rixRHArbJVRrG0esFj3noxkxKM5mH9KnAwNeNzC+lhg4b6foCOxf3sZOhhxMcqM7mYBpcHwDmfOPkNL1TTP/tpxwfvsJxIoA4a8PEVN14i98vWrC9nNYU2NQ+Vtj2aelkZoTiU4ENe7/YjsG4a1Ac/e2KJN3J/YQZ+gXbKqiO3X81VrC9W8RpD39gV0Urjf241O5W8eGh9D4LbUKaPiU18oMS+rra5lj9irlHkABmwWcCA9v+JH8EwAp8dX26bo5pxclGWrKjgvC2OgIq5uisLMLRlwCZMXRDMX3HlJkjwkJClJUG8lkLILBH5JcQ4k2BfTdk0Eim2cyATwR2igcN/S8Qx2/ngRkZ1JdT8lpYzbzdTRyQyoQlzgFV9db4ZPGnT45PMQn9Ow0SGjeM4KTmh5NSlQy11gAc7fYYVo1fsBNiBnwisGs2ldklHV8a3VvJKWkN+PPyFrr6kzIl2ajVR7RvmpJGUzid7wtgVWF1tCLrqQPQZl9dn6HLysxntY6XUODtq8wJYUwXGGotJm8uE+MkMO77WSVooZQ5Otg6o9lgJCiPzc4iX6RZYLdgv4wAyVJ4rygrkKG4qZMGrCsiEAZADufuCuZmybq61Wa6wCby6gLfJvDl9HS6PFk7HhnN7Ie7dRoPDImnP11mLpX1+vEGumNnpRi2oeOcnGiF/9TqjNgMMZrA6z9Mph9zXs8bmCqwfewdjWIvSWBGVrTiWYm/HY+Psa34PdsMdwE2Ya+JhhxE7qD1xYTkpbtYPj6FftRP7r1idWWuKiTEdMBADg+OcGzmTW2PqQKb/Vm5kq0VDw1DC4Mrg6NwZX302oYmhNPBmZl6XQz/tpCdHVRkeQI4VMdmawfIjpl0b1MxpgkMDHbae4VdXt5VHK9sm9pHcw7Gsb3YadBeaF3kaWYgfuslO47KrKmfntW6haH2uzm+/KtGfInVhVUmbJmreXF1Q9ME9ixzhUinC+i9SY5urzjH3SNc7IMzM2iAhxlfTOLAdcXkTTEqxgwiG44QKolluJNZ/ddUrP7JOdp9Zeer20wTWN81RYQSMqAXE6YVC7I1g+RL2HVWp1nUA3L3+xXs0Oxix8YTPLCnml44YmPaPbmGOOd2diZeY6dChh3lrTR+o405eZy1wpOsHTyBKQI7zGViYAcEUKDyokZCEmVkiLnMBOgu0F7uADb0MnaQ9CMu41dEiXfJvGzqrcHE5LGLD44UyGUX/7SHLr4pAnMsptFzNuYwqbvujI0gNT4l2j1RMwjaylURqfoKZq5ycV09m4oSPjggAp6qRVMEpvayMHn1i3KVXSNicOKIqqOYlQXiT90jaCzwckYBfu/DScYYfcf4SO8esI/HJLyi7BzYMAhCBsSmiFEFXuUakDs8qAExRWDp7AWhqgi4gWOvfGa1ZdjABZqz2PU3grVckAM7BxLZKIwkRcFzQn0Lr83VtUHc/oXtnKzCS3buVvaMZYx+Czs4ie+cIRwBZB6QgXAXXgushCmYzNWFXfdFMQ2KamRADSLUpyuMZkdi9wVHApMLG2kESBYenZWpOD1a/UGbgT4zggeZUXmeGRV4kdmrbWS23rl69lvNAmF/2gn2LN2F1wLDXq1ruRJKYMu1fWhiH3nOCMSqSEqK/rIjyt1A+wD7L7AnRp2D29hbe0PDW1t+skGpdpLd07ENKvkwsxKCs1zCVVL/4vNdYTinkZCZkOE+9kqxWgU6FvdVQgLxt5Gj1wJ7kQdwPw9EoHR+NqFy1xHIDyWwStBLn+Ac7BApmZ9lFxLg+riPUSBgR4CqBmin/uypYcemETheA1uekIUwgqqbcqTe4stH65XNHuIaeCHcrcP0WmDYbYKBAChYqVmYI8ZjdzTqzstUCpyVIawaRZxnd2HJH1A3oK3E6kAXx5oLyWldTSBoQdQ6IodjzUKdrUmiv5aWcRT6hmtSeQOhe9VVXgts0X8q6G3eHQnopVLeYDb8dgNs+LucN1ogKX1zVL1icrSO2Ba09EJq3ujLgmvp2UGULmCDhCu8PCaJfjbQOS7EPrRcFrrAMo4ff+5m/Oi1wOZtsxWeqJ0FMShxNMrMn2K3WCszfQvX48tq28U91EfQRXs4yTiES78H8+qEd2gEepQaSvVQsucKD7Gz8kdJ+qeN7UHkcltYoxe3ad3Da4GhhA3cIIA9U9unyQlf5JqQc9IDYrgGjuG0ACJ1MKdB1HXtWn3RjjoKVFz9gSfaCLAPbT2rKS1go+H0LTYHS6vfLVzCh4pmGeJWnumqIlNrAVlfWZvXApvGTDcqnYBJvBv/0ylygalVp2wgaDOSlUUaBIG62QD/iZBAr44QiVYkXF0BO1mwUmWA4yP2m2HzxCscQLsDrwWGnSiiBFsvdaBWnVoDRGXVNxousfoc9T3V7d58B3ELAlcPjsVFWn3hSMChkOFi1hDYxAhoOTey80Sb1wJTrxyoIDADMmCLzjsukoT92bs7biCYhErMW1vcpVpk93OnTe9FU1/nWw7gYQ9dAf82YqUGi5HBrBDqWABPdu38DwAA//8JFEdRAAAKyklEQVTtWwtwFdUZ/kMCISEJSSABkpAA8hYRLCAVFBUfVAtBAeXRUdvSOlQZHduptmOx4lTtg9oqo9WOj9oaBQoIikWmCAV0kLfyELAIeZCQF3mSN9D/u8nenLs5Z++5uXuTbGe/meTunj3n7L/n3/O/N+wyg4LAg7tL6bWTVZ4ZhsV1p5OzU6WzPfR5Kb18ormftAM3JkZ2o9J701WXfdr/wvdcwvcOFj26hdEJpnlQTITfqT4tqqepmwv89ls6Mo5enJQo7ReTlU0XmpqXfNnYeHp6XLy0n6oxLFiG/Xx/Gf3+aIVn/v5R4VQwb6D0Xk8dKqflX5ZLr4mNNYsyKCo8TGxSHt+w+RztLKpTXte58IcJifTT0XE6XWnVmQs0f0ex377LmQm/YmbIEPb2GW/zCr73Y5r3NgYFzbAVxyrpZ/vOG/NRHS94pGTB3/hvNf3wsxJvP9XBttv60439e6ou+7R/XdlIYzbmU8Ol9gmJ8Yk9aO+dKSQh1+c+xslj/Jwv8PP6w6obkuieQb3adDte0UijNpz1tr/L/eZL+nk7SA6CZtgHeTU065Mi79QHv5tC43ghzNhXWk8TN/kXJ89dk0BPjOltHq48/+2RCnriQJnyutWFQzNT6OqEtrSqxkz5VwF9VlyvuuxtP84idgSrBzM25NbQ7G2ta3WA1wovTSAImmEn+C0f+b7/t6bu4mWKeifbL21X8QJ+yQsZCMZ/mE+HzjcEMoSeZJH1TAD6I/dCE6WvzfN7D4hziHUZfscv1+PCy6WSRrKxRlvQDMNEolz+xVW96dnxCcb8Pr+TPiqgvSX+39A9dwygiX0jfcZanRxkZk3clE/8TmgBxtGRWSkEg0MXz7D+XcZ62B8yB0bT+zclS7tB/0EPAgN7RVDOnDRpP6tGWxg2gRdrf2nzG34tL/RuXnAZdB96bkYvWjMtSTaFsk00fpSdWi6APtCpC0iHQby7Cusu+h3y1pS+dP8VMdJ+fVbl0Pn6S55rd6VH07ob5YyVDm5ptIVh4mLhpa1YkE4xEd3a3PdwWQON/SC/TbusYT/L92sClO8zWZdWNTYviGxOtN3EBs1TV8stONUYWMF4Rh2cn59OCT3aPvtXbHCMFgyOldf2oYdGxOpM6dPHFoZ9nF9LM/5d6J140/R+dEdqlPdcPPgW65sDGvrGaqeK84X6OK+myWOJVjRYvwigY/GwWPrrt/tISVp5vJKW7mm1puH7DZcYJtLBQqMtDKtlkREtGBT3sUj4G4sGGV5n836xhnmPsY+ztfg8W42dBXgL0z4+R7s0fb1jmak0qndb6xD0T2b9/XmL/k6NDqe8uXJ/1d+z2sIw3ASmPUx8oCdbSiUcsegV0Vapg7nQB0Ua+gBzZV2fRAsGt/VpcC3U0InOGDRAokCyyHC6uomGrGu1MB8dFUcvTJRHQmTjxTbbGLaarZ97hSjAG9f1pe8PlSvfN3mX/UBzl0Envj0liRYN6Vim/YRDaa/4CaWJC3mYrc4x8XKf6pcHy+i5w83RIIxpj3427mUbw7Bz+q3O9Sr9sexPfWHhT+ma+CAU+xTuwvJxCdpRCeMBA/2Frlq0q5g25dVqD4UEgCSQAeuSuiaXylp04JDYCDp1V+DmvDG3bQzDhAg9IQRlYMut/ejWAXLj4xhbTVcKVpMxxup3anJPeo2VukpPWI3Vuba1oI4e+LSEYGjoIrZ7NzqWmUJp0fLg8YtfVdIje1uNDehk6Ob2wlaGnWyJehj+681sQm/l2KAKZs9f1c/cDqPmFTaLoyU60txX57yk/iLdv6uEPjqrv6uMeWFcgR4ZEJTPWJtL+TXN/htcnYJ70qQuj2y8rM1WhuEGd28vovU5zcYHznfM6E/X886QAVbYZI7P6UQ/xPEILlcvzCCb+OURV4nv5Yi30Dq+PSWKNt8iNzQwwZ95dz0q7C6rKJDWDbmT7QwzB3lHspl7ZFaqUvd8U9XEzvRZb45Ih3CIWYhbOwGHHo69LpJ7htNRFoV9I8OlQ87VXqThHGM1HHnEGHPmpin7SyeRNNrOMNxj7n+KaG126y7zl/fZfq6ObmfHWzdNglgl3lY7AT0DfaMD6K2dLDmsIv0L2GJ+ryVuiDnbk6yU0RIShp1lmT1sfR7BQgIgu5HKuIItJBU+ZB8OqYeWIapunvZAY4GWk7VcNKc+VGPgY0IvX5ekjkVu5DRKppBGGczZbDjVGBssQsIwEGU2KEazaIT/YUX0u6cv0MKd1hldML9yYbrH1A/24cXx1U2XKC4rhwyDSbxmHEeEhbFznEy3se5SoZgDAiNYFBpmPPoFkpRVzWu0h4xhuIEYxcf5j4fH0quT5bE2XAfWscFyH/tBRt1Dc2vr/5lp0bTx5sCj3K0zqI+QYIUOliGJdRbSJlY7C+O+s7WQNgvWJiL3iODbhZAy7AyHZJBcLBcCp3/ikMwjHJqxApKimRzqwq8ZCOkgtBMKILkIyWDGJE7FbGBmoWbFCk9/UU6/5j8D8Bf3cQmCXe4H5g0pw3ADvG1460ToxAchouDEisYL5rAKAYn3aM/xFs46wPgRoRv3A50wtgyASYj0DI2VB4ONfoH+hpxhIAhvHd4+Ef+clkxzMqLFJukxog8P7yklFLAgz4R8U6hQzxZPDOuxJq78Q3rnVY6qWFmCBh2o80C9h4j1vCNnc/bZbnQIw0A0aghRS2gABtM/OP6mUzUEyxG1j4fLG+hljnCEEkjjI82vmyHYxi7JzE8KfXTum6yzHlBEP4KlvcMYButrnsk/g5Gb1Y5Sr2Af2q7xcEXu3l5MjUKZnY6ODub+HcYwg0ikYJCKEYFiSjjXTsJvOF3yJKdNRAQb2BXnUh13OMMg3r7HvpYYBQBx0BVruSjFyrlWPURHtiOUNp/pN8c/X+LS7Ie5RDvU6HCGGQ9kTsUY7SiQQSGplYNt9O3o3z9y1e+yQ2U++go0QK8uaUdBTXvo7zSGgVjVBw2o2VsxIYHmcblbVwDCVijTxu4SgdoMlFurshFiX7uOO5VheIij5Y00h1MyMicZ4SwEeRcMjlFG++1aCPM8MJLWsW/1PDvSsujHnWlR9PepSdKSNvNcdp53OsOMh7H6uiWDd9ziYTFcIxJLeKtDCaRD3jpVTS8dryJ8bGEG0imwBDu6xsSgo8swDASdYpHz4O4SgrOswi2cC4OPhDe8H8f37ACiKjsK6ynrdDW9842vBSvODz0FSzCO0yudhS7FMGMRkB/Dx39rstWLh774SmYGR86RJEUIaGhchBYT8eEEagTxt5ujFKjKVQHZgR8Nj/HEP7HTOxtdkmHGomTzFyMrWTS9/nWVT7rCuK76RWQdYSx80RkpfPCABCk+nECtvD+gKnfpyFiPGJbVV/obH6rrXZphxkMjxreadxt2HXZEqNCdmYuPFJZwGkj3o8JQ0aKa1xEME4lHCdqW/DrWc7UeXafzRYk43nx8ZXx3ms56cTpXeOFDCaT/uzIcxzDzYqLkG6XQyL3hDxnfisbLhIJQ5OEgESEe4/kvgUXkAM5p4QP0QayPhrDe60rizvxssnPHM0z2UP/PbS7DHMZdl2Euwxy2Ag4j191hLsMctgIOI9fdYS7DHLYCDiPX3WEuwxy2Ag4j191hLsMctgIOI9fdYS7DHLYCDiPX3WEuwxy2Ag4j191hLsMctgIOI9fdYQ5j2P8Ayv/GMrDq4rwAAAAASUVORK5CYII=;imageBorder=default;dashed=1;" vertex="1" parent="1">
          <mxGeometry x="284.62000000000006" y="374" width="47.37" height="50" as="geometry" />
        </mxCell>
        <mxCell id="5jTDvBwV7yWnziTKpoq--50" style="edgeStyle=orthogonalEdgeStyle;rounded=0;orthogonalLoop=1;jettySize=auto;html=1;exitX=0.5;exitY=0;exitDx=0;exitDy=0;dashed=1;" edge="1" parent="1" source="5jTDvBwV7yWnziTKpoq--14">
          <mxGeometry relative="1" as="geometry">
            <mxPoint x="451" y="330" as="targetPoint" />
          </mxGeometry>
        </mxCell>
        <mxCell id="5jTDvBwV7yWnziTKpoq--14" value="" style="shape=image;verticalLabelPosition=bottom;labelBackgroundColor=default;verticalAlign=top;aspect=fixed;imageAspect=0;image=data:image/png,iVBORw0KGgoAAAANSUhEUgAAAGwAAAByCAYAAAC2ujQmAAAAAXNSR0IArs4c6QAAAJZlWElmTU0AKgAAAAgABAEaAAUAAAABAAAAPgEbAAUAAAABAAAARgEoAAMAAAABAAIAAIdpAAQAAAABAAAATgAAAAAAAACQAAAAAQAAAJAAAAABAASShgAHAAAAEgAAAISgAQADAAAAAQABAACgAgAEAAAAAQAAAGygAwAEAAAAAQAAAHIAAAAAQVNDSUkAAABTY3JlZW5zaG90SpNP0QAAAAlwSFlzAAAWJQAAFiUBSVIk8AAAAdZpVFh0WE1MOmNvbS5hZG9iZS54bXAAAAAAADx4OnhtcG1ldGEgeG1sbnM6eD0iYWRvYmU6bnM6bWV0YS8iIHg6eG1wdGs9IlhNUCBDb3JlIDYuMC4wIj4KICAgPHJkZjpSREYgeG1sbnM6cmRmPSJodHRwOi8vd3d3LnczLm9yZy8xOTk5LzAyLzIyLXJkZi1zeW50YXgtbnMjIj4KICAgICAgPHJkZjpEZXNjcmlwdGlvbiByZGY6YWJvdXQ9IiIKICAgICAgICAgICAgeG1sbnM6ZXhpZj0iaHR0cDovL25zLmFkb2JlLmNvbS9leGlmLzEuMC8iPgogICAgICAgICA8ZXhpZjpQaXhlbFlEaW1lbnNpb24+MTE0PC9leGlmOlBpeGVsWURpbWVuc2lvbj4KICAgICAgICAgPGV4aWY6UGl4ZWxYRGltZW5zaW9uPjEwODwvZXhpZjpQaXhlbFhEaW1lbnNpb24+CiAgICAgICAgIDxleGlmOlVzZXJDb21tZW50PlNjcmVlbnNob3Q8L2V4aWY6VXNlckNvbW1lbnQ+CiAgICAgIDwvcmRmOkRlc2NyaXB0aW9uPgogICA8L3JkZjpSREY+CjwveDp4bXBtZXRhPgqpEfr/AAAAHGlET1QAAAACAAAAAAAAADkAAAAoAAAAOQAAADkAAAuFM8yaVQAAC1FJREFUeAHsXAmQFNUZ/nfZgz3ZZS/2RlhATiUoQkBRDkEU5BZJgRo1iSbeibFMNB6pMkpMNJKYeMUygAe364EgEYggiIASDpFz2ZO92fvE/F+Ht9Mz87qnZ6Zndrpqvqqpnn3zuvv1+/v9x/f/b0O+Z1AQlpmBkKDALCMrZaBBgVlLXhQUWFBgFpsBiw03uMKCArPYDFhsuMEVFhSYxWbAYsMNrrCgwCw2AxYbbnCFBQVmsRmw2HCDKywoMIvNgMWGa/kVVtV6nk43dNCphnblWN5ynmrb/v85136eQlggiRGhlMCfxMhQyojqQRfFhlO/uDA+hlHPHuhhHVhOYGXNnbS5tJm2lLYon6KmDo9nO5RlNSopkian9+RPFI1LiaTIABegJQQGIa041Ujvnm6kPZWtHgvI1YmxYaE0MzuKbr4ohqZmRFE4JBpgCGiBbSpppmcOnqOtZS1uTVtyZA9F/SWxCuzkfHoNq83qtk6q5qNRQIXe2j+WHh3ei1J69jB6ms/7BaTANhY30xPf1NJuF6tpcK9wui4zioYkRFAe26S8uHDKjNaf3ILGDjpex5/6dvpvTRvlFzXTGW7TQhSryF9cHE8PD4snvAjdjYASGJyHu3dX0ccsMC1AQNP5c2N2NGXHhGl1c6v9yLl2+ojvmV/YRNvOyldzTFgIPXFJAv1yaC+3rm1254AR2NMHaunxr2ulzwfh3JoXq9gVvPG+xDn2MNez4F76to72VrU53Qqr+h9jk+jK1J5Ov/mjodsFdrSuneZuLadDte1Oz3tp7whaNjqJxqVGOv3mj4ZVBY30yL4aOllvrzLxytw7OJ6e/UGi373KbhXY37+rp7t2VTnNfR+OlZ4blUiL+8U6/dYdDc8fruPVX0NNHfYVgSMSI+i9CSk0KD7cb8PqNoHdtqOS3jzR4PSgv2Gv7NHhCRTNNiOQgNDi17za3pKMeRULbV5ujF+G63eB1TP7MOPf5U7GHbZhzdWphGMg4zMOMW7eXkFnWzq7holXC3btzgFxXW2++uJXgZXzQ07efFZxp9UPdD/bgz9f3lvdFNDfK1s7afHnlYTwQ42nLk2gx0YkqJtM/+43gTVzBDvmo1I6wLGPAN7MN8cl0xIOUK2In3xRRa8eq7cb+jPsiDwyzHeuv18EBlM9k9XgB0VNXQ8H73z5lSm0sK9/dH/XjU3+cs+X1bSMQwABvISrJqTS3Nxo0WTq0S8Cg7F+jikmNeBdzTdgqGs4LgLb3h0A6w+KyhUe3ltDSw/ZP9/O69JpLJPJZsPnAsvnVYXVpcY/WQ2Cp9ND+/nvFR5x6cE62j8jXaGd9Pqb/RtelH5rixRHArbJVRrG0esFj3noxkxKM5mH9KnAwNeNzC+lhg4b6foCOxf3sZOhhxMcqM7mYBpcHwDmfOPkNL1TTP/tpxwfvsJxIoA4a8PEVN14i98vWrC9nNYU2NQ+Vtj2aelkZoTiU4ENe7/YjsG4a1Ac/e2KJN3J/YQZ+gXbKqiO3X81VrC9W8RpD39gV0Urjf241O5W8eGh9D4LbUKaPiU18oMS+rra5lj9irlHkABmwWcCA9v+JH8EwAp8dX26bo5pxclGWrKjgvC2OgIq5uisLMLRlwCZMXRDMX3HlJkjwkJClJUG8lkLILBH5JcQ4k2BfTdk0Eim2cyATwR2igcN/S8Qx2/ngRkZ1JdT8lpYzbzdTRyQyoQlzgFV9db4ZPGnT45PMQn9Ow0SGjeM4KTmh5NSlQy11gAc7fYYVo1fsBNiBnwisGs2ldklHV8a3VvJKWkN+PPyFrr6kzIl2ajVR7RvmpJGUzid7wtgVWF1tCLrqQPQZl9dn6HLysxntY6XUODtq8wJYUwXGGotJm8uE+MkMO77WSVooZQ5Otg6o9lgJCiPzc4iX6RZYLdgv4wAyVJ4rygrkKG4qZMGrCsiEAZADufuCuZmybq61Wa6wCby6gLfJvDl9HS6PFk7HhnN7Ie7dRoPDImnP11mLpX1+vEGumNnpRi2oeOcnGiF/9TqjNgMMZrA6z9Mph9zXs8bmCqwfewdjWIvSWBGVrTiWYm/HY+Psa34PdsMdwE2Ya+JhhxE7qD1xYTkpbtYPj6FftRP7r1idWWuKiTEdMBADg+OcGzmTW2PqQKb/Vm5kq0VDw1DC4Mrg6NwZX302oYmhNPBmZl6XQz/tpCdHVRkeQI4VMdmawfIjpl0b1MxpgkMDHbae4VdXt5VHK9sm9pHcw7Gsb3YadBeaF3kaWYgfuslO47KrKmfntW6haH2uzm+/KtGfInVhVUmbJmreXF1Q9ME9ixzhUinC+i9SY5urzjH3SNc7IMzM2iAhxlfTOLAdcXkTTEqxgwiG44QKolluJNZ/ddUrP7JOdp9Zeer20wTWN81RYQSMqAXE6YVC7I1g+RL2HVWp1nUA3L3+xXs0Oxix8YTPLCnml44YmPaPbmGOOd2diZeY6dChh3lrTR+o405eZy1wpOsHTyBKQI7zGViYAcEUKDyokZCEmVkiLnMBOgu0F7uADb0MnaQ9CMu41dEiXfJvGzqrcHE5LGLD44UyGUX/7SHLr4pAnMsptFzNuYwqbvujI0gNT4l2j1RMwjaylURqfoKZq5ycV09m4oSPjggAp6qRVMEpvayMHn1i3KVXSNicOKIqqOYlQXiT90jaCzwckYBfu/DScYYfcf4SO8esI/HJLyi7BzYMAhCBsSmiFEFXuUakDs8qAExRWDp7AWhqgi4gWOvfGa1ZdjABZqz2PU3grVckAM7BxLZKIwkRcFzQn0Lr83VtUHc/oXtnKzCS3buVvaMZYx+Czs4ie+cIRwBZB6QgXAXXgushCmYzNWFXfdFMQ2KamRADSLUpyuMZkdi9wVHApMLG2kESBYenZWpOD1a/UGbgT4zggeZUXmeGRV4kdmrbWS23rl69lvNAmF/2gn2LN2F1wLDXq1ruRJKYMu1fWhiH3nOCMSqSEqK/rIjyt1A+wD7L7AnRp2D29hbe0PDW1t+skGpdpLd07ENKvkwsxKCs1zCVVL/4vNdYTinkZCZkOE+9kqxWgU6FvdVQgLxt5Gj1wJ7kQdwPw9EoHR+NqFy1xHIDyWwStBLn+Ac7BApmZ9lFxLg+riPUSBgR4CqBmin/uypYcemETheA1uekIUwgqqbcqTe4stH65XNHuIaeCHcrcP0WmDYbYKBAChYqVmYI8ZjdzTqzstUCpyVIawaRZxnd2HJH1A3oK3E6kAXx5oLyWldTSBoQdQ6IodjzUKdrUmiv5aWcRT6hmtSeQOhe9VVXgts0X8q6G3eHQnopVLeYDb8dgNs+LucN1ogKX1zVL1icrSO2Ba09EJq3ujLgmvp2UGULmCDhCu8PCaJfjbQOS7EPrRcFrrAMo4ff+5m/Oi1wOZtsxWeqJ0FMShxNMrMn2K3WCszfQvX48tq28U91EfQRXs4yTiES78H8+qEd2gEepQaSvVQsucKD7Gz8kdJ+qeN7UHkcltYoxe3ad3Da4GhhA3cIIA9U9unyQlf5JqQc9IDYrgGjuG0ACJ1MKdB1HXtWn3RjjoKVFz9gSfaCLAPbT2rKS1go+H0LTYHS6vfLVzCh4pmGeJWnumqIlNrAVlfWZvXApvGTDcqnYBJvBv/0ylygalVp2wgaDOSlUUaBIG62QD/iZBAr44QiVYkXF0BO1mwUmWA4yP2m2HzxCscQLsDrwWGnSiiBFsvdaBWnVoDRGXVNxousfoc9T3V7d58B3ELAlcPjsVFWn3hSMChkOFi1hDYxAhoOTey80Sb1wJTrxyoIDADMmCLzjsukoT92bs7biCYhErMW1vcpVpk93OnTe9FU1/nWw7gYQ9dAf82YqUGi5HBrBDqWABPdu38DwAA//8JFEdRAAAKyklEQVTtWwtwFdUZ/kMCISEJSSABkpAA8hYRLCAVFBUfVAtBAeXRUdvSOlQZHduptmOx4lTtg9oqo9WOj9oaBQoIikWmCAV0kLfyELAIeZCQF3mSN9D/u8nenLs5Z++5uXuTbGe/meTunj3n7L/n3/O/N+wyg4LAg7tL6bWTVZ4ZhsV1p5OzU6WzPfR5Kb18ormftAM3JkZ2o9J701WXfdr/wvdcwvcOFj26hdEJpnlQTITfqT4tqqepmwv89ls6Mo5enJQo7ReTlU0XmpqXfNnYeHp6XLy0n6oxLFiG/Xx/Gf3+aIVn/v5R4VQwb6D0Xk8dKqflX5ZLr4mNNYsyKCo8TGxSHt+w+RztLKpTXte58IcJifTT0XE6XWnVmQs0f0ex377LmQm/YmbIEPb2GW/zCr73Y5r3NgYFzbAVxyrpZ/vOG/NRHS94pGTB3/hvNf3wsxJvP9XBttv60439e6ou+7R/XdlIYzbmU8Ol9gmJ8Yk9aO+dKSQh1+c+xslj/Jwv8PP6w6obkuieQb3adDte0UijNpz1tr/L/eZL+nk7SA6CZtgHeTU065Mi79QHv5tC43ghzNhXWk8TN/kXJ89dk0BPjOltHq48/+2RCnriQJnyutWFQzNT6OqEtrSqxkz5VwF9VlyvuuxtP84idgSrBzM25NbQ7G2ta3WA1wovTSAImmEn+C0f+b7/t6bu4mWKeifbL21X8QJ+yQsZCMZ/mE+HzjcEMoSeZJH1TAD6I/dCE6WvzfN7D4hziHUZfscv1+PCy6WSRrKxRlvQDMNEolz+xVW96dnxCcb8Pr+TPiqgvSX+39A9dwygiX0jfcZanRxkZk3clE/8TmgBxtGRWSkEg0MXz7D+XcZ62B8yB0bT+zclS7tB/0EPAgN7RVDOnDRpP6tGWxg2gRdrf2nzG34tL/RuXnAZdB96bkYvWjMtSTaFsk00fpSdWi6APtCpC0iHQby7Cusu+h3y1pS+dP8VMdJ+fVbl0Pn6S55rd6VH07ob5YyVDm5ptIVh4mLhpa1YkE4xEd3a3PdwWQON/SC/TbusYT/L92sClO8zWZdWNTYviGxOtN3EBs1TV8stONUYWMF4Rh2cn59OCT3aPvtXbHCMFgyOldf2oYdGxOpM6dPHFoZ9nF9LM/5d6J140/R+dEdqlPdcPPgW65sDGvrGaqeK84X6OK+myWOJVjRYvwigY/GwWPrrt/tISVp5vJKW7mm1puH7DZcYJtLBQqMtDKtlkREtGBT3sUj4G4sGGV5n836xhnmPsY+ztfg8W42dBXgL0z4+R7s0fb1jmak0qndb6xD0T2b9/XmL/k6NDqe8uXJ/1d+z2sIw3ASmPUx8oCdbSiUcsegV0Vapg7nQB0Ua+gBzZV2fRAsGt/VpcC3U0InOGDRAokCyyHC6uomGrGu1MB8dFUcvTJRHQmTjxTbbGLaarZ97hSjAG9f1pe8PlSvfN3mX/UBzl0Envj0liRYN6Vim/YRDaa/4CaWJC3mYrc4x8XKf6pcHy+i5w83RIIxpj3427mUbw7Bz+q3O9Sr9sexPfWHhT+ma+CAU+xTuwvJxCdpRCeMBA/2Frlq0q5g25dVqD4UEgCSQAeuSuiaXylp04JDYCDp1V+DmvDG3bQzDhAg9IQRlYMut/ejWAXLj4xhbTVcKVpMxxup3anJPeo2VukpPWI3Vuba1oI4e+LSEYGjoIrZ7NzqWmUJp0fLg8YtfVdIje1uNDehk6Ob2wlaGnWyJehj+681sQm/l2KAKZs9f1c/cDqPmFTaLoyU60txX57yk/iLdv6uEPjqrv6uMeWFcgR4ZEJTPWJtL+TXN/htcnYJ70qQuj2y8rM1WhuEGd28vovU5zcYHznfM6E/X886QAVbYZI7P6UQ/xPEILlcvzCCb+OURV4nv5Yi30Dq+PSWKNt8iNzQwwZ95dz0q7C6rKJDWDbmT7QwzB3lHspl7ZFaqUvd8U9XEzvRZb45Ih3CIWYhbOwGHHo69LpJ7htNRFoV9I8OlQ87VXqThHGM1HHnEGHPmpin7SyeRNNrOMNxj7n+KaG126y7zl/fZfq6ObmfHWzdNglgl3lY7AT0DfaMD6K2dLDmsIv0L2GJ+ryVuiDnbk6yU0RIShp1lmT1sfR7BQgIgu5HKuIItJBU+ZB8OqYeWIapunvZAY4GWk7VcNKc+VGPgY0IvX5ekjkVu5DRKppBGGczZbDjVGBssQsIwEGU2KEazaIT/YUX0u6cv0MKd1hldML9yYbrH1A/24cXx1U2XKC4rhwyDSbxmHEeEhbFznEy3se5SoZgDAiNYFBpmPPoFkpRVzWu0h4xhuIEYxcf5j4fH0quT5bE2XAfWscFyH/tBRt1Dc2vr/5lp0bTx5sCj3K0zqI+QYIUOliGJdRbSJlY7C+O+s7WQNgvWJiL3iODbhZAy7AyHZJBcLBcCp3/ikMwjHJqxApKimRzqwq8ZCOkgtBMKILkIyWDGJE7FbGBmoWbFCk9/UU6/5j8D8Bf3cQmCXe4H5g0pw3ADvG1460ToxAchouDEisYL5rAKAYn3aM/xFs46wPgRoRv3A50wtgyASYj0DI2VB4ONfoH+hpxhIAhvHd4+Ef+clkxzMqLFJukxog8P7yklFLAgz4R8U6hQzxZPDOuxJq78Q3rnVY6qWFmCBh2o80C9h4j1vCNnc/bZbnQIw0A0aghRS2gABtM/OP6mUzUEyxG1j4fLG+hljnCEEkjjI82vmyHYxi7JzE8KfXTum6yzHlBEP4KlvcMYButrnsk/g5Gb1Y5Sr2Af2q7xcEXu3l5MjUKZnY6ODub+HcYwg0ikYJCKEYFiSjjXTsJvOF3yJKdNRAQb2BXnUh13OMMg3r7HvpYYBQBx0BVruSjFyrlWPURHtiOUNp/pN8c/X+LS7Ie5RDvU6HCGGQ9kTsUY7SiQQSGplYNt9O3o3z9y1e+yQ2U++go0QK8uaUdBTXvo7zSGgVjVBw2o2VsxIYHmcblbVwDCVijTxu4SgdoMlFurshFiX7uOO5VheIij5Y00h1MyMicZ4SwEeRcMjlFG++1aCPM8MJLWsW/1PDvSsujHnWlR9PepSdKSNvNcdp53OsOMh7H6uiWDd9ziYTFcIxJLeKtDCaRD3jpVTS8dryJ8bGEG0imwBDu6xsSgo8swDASdYpHz4O4SgrOswi2cC4OPhDe8H8f37ACiKjsK6ynrdDW9842vBSvODz0FSzCO0yudhS7FMGMRkB/Dx39rstWLh774SmYGR86RJEUIaGhchBYT8eEEagTxt5ujFKjKVQHZgR8Nj/HEP7HTOxtdkmHGomTzFyMrWTS9/nWVT7rCuK76RWQdYSx80RkpfPCABCk+nECtvD+gKnfpyFiPGJbVV/obH6rrXZphxkMjxreadxt2HXZEqNCdmYuPFJZwGkj3o8JQ0aKa1xEME4lHCdqW/DrWc7UeXafzRYk43nx8ZXx3ms56cTpXeOFDCaT/uzIcxzDzYqLkG6XQyL3hDxnfisbLhIJQ5OEgESEe4/kvgUXkAM5p4QP0QayPhrDe60rizvxssnPHM0z2UP/PbS7DHMZdl2Euwxy2Ag4j191hLsMctgIOI9fdYS7DHLYCDiPX3WEuwxy2Ag4j191hLsMctgIOI9fdYS7DHLYCDiPX3WEuwxy2Ag4j191hLsMctgIOI9fdYQ5j2P8Ayv/GMrDq4rwAAAAASUVORK5CYII=;imageBorder=default;dashed=1;" vertex="1" parent="1">
          <mxGeometry x="426.99000000000007" y="374" width="47.37" height="50" as="geometry" />
        </mxCell>
        <mxCell id="5jTDvBwV7yWnziTKpoq--41" style="edgeStyle=orthogonalEdgeStyle;rounded=0;orthogonalLoop=1;jettySize=auto;html=1;dashed=1;" edge="1" parent="1" source="5jTDvBwV7yWnziTKpoq--15">
          <mxGeometry relative="1" as="geometry">
            <mxPoint x="190" y="120" as="targetPoint" />
          </mxGeometry>
        </mxCell>
        <mxCell id="5jTDvBwV7yWnziTKpoq--42" style="edgeStyle=orthogonalEdgeStyle;rounded=0;orthogonalLoop=1;jettySize=auto;html=1;dashed=1;" edge="1" parent="1">
          <mxGeometry relative="1" as="geometry">
            <mxPoint x="321" y="123" as="targetPoint" />
            <mxPoint x="278.8299999999999" y="189" as="sourcePoint" />
          </mxGeometry>
        </mxCell>
        <mxCell id="5jTDvBwV7yWnziTKpoq--15" value="non-prod conf" style="sketch=0;outlineConnect=0;fontColor=#232F3E;gradientColor=none;fillColor=#E7157B;strokeColor=none;dashed=0;verticalLabelPosition=bottom;verticalAlign=top;align=center;html=1;fontSize=12;fontStyle=0;aspect=fixed;pointerEvents=1;shape=mxgraph.aws4.http_notification;" vertex="1" parent="1">
          <mxGeometry x="231.99" y="169" width="50" height="50" as="geometry" />
        </mxCell>
        <mxCell id="5jTDvBwV7yWnziTKpoq--43" style="edgeStyle=orthogonalEdgeStyle;rounded=0;orthogonalLoop=1;jettySize=auto;html=1;dashed=1;" edge="1" parent="1" source="5jTDvBwV7yWnziTKpoq--16">
          <mxGeometry relative="1" as="geometry">
            <mxPoint x="449.3600000000001" y="120" as="targetPoint" />
          </mxGeometry>
        </mxCell>
        <mxCell id="5jTDvBwV7yWnziTKpoq--16" value="prod conf" style="sketch=0;outlineConnect=0;fontColor=#232F3E;gradientColor=none;fillColor=#E7157B;strokeColor=none;dashed=0;verticalLabelPosition=bottom;verticalAlign=top;align=center;html=1;fontSize=12;fontStyle=0;aspect=fixed;pointerEvents=1;shape=mxgraph.aws4.http_notification;" vertex="1" parent="1">
          <mxGeometry x="424.36" y="164" width="50" height="50" as="geometry" />
        </mxCell>
        <mxCell id="5jTDvBwV7yWnziTKpoq--18" value="" style="endArrow=none;dashed=1;html=1;rounded=0;" edge="1" parent="1">
          <mxGeometry width="50" height="50" relative="1" as="geometry">
            <mxPoint x="134" y="291" as="sourcePoint" />
            <mxPoint x="134" y="161" as="targetPoint" />
          </mxGeometry>
        </mxCell>
        <mxCell id="5jTDvBwV7yWnziTKpoq--19" value="" style="shape=image;verticalLabelPosition=bottom;labelBackgroundColor=default;verticalAlign=top;aspect=fixed;imageAspect=0;image=data:image/png,iVBORw0KGgoAAAANSUhEUgAAAGwAAAByCAYAAAC2ujQmAAAAAXNSR0IArs4c6QAAAJZlWElmTU0AKgAAAAgABAEaAAUAAAABAAAAPgEbAAUAAAABAAAARgEoAAMAAAABAAIAAIdpAAQAAAABAAAATgAAAAAAAACQAAAAAQAAAJAAAAABAASShgAHAAAAEgAAAISgAQADAAAAAQABAACgAgAEAAAAAQAAAGygAwAEAAAAAQAAAHIAAAAAQVNDSUkAAABTY3JlZW5zaG90SpNP0QAAAAlwSFlzAAAWJQAAFiUBSVIk8AAAAdZpVFh0WE1MOmNvbS5hZG9iZS54bXAAAAAAADx4OnhtcG1ldGEgeG1sbnM6eD0iYWRvYmU6bnM6bWV0YS8iIHg6eG1wdGs9IlhNUCBDb3JlIDYuMC4wIj4KICAgPHJkZjpSREYgeG1sbnM6cmRmPSJodHRwOi8vd3d3LnczLm9yZy8xOTk5LzAyLzIyLXJkZi1zeW50YXgtbnMjIj4KICAgICAgPHJkZjpEZXNjcmlwdGlvbiByZGY6YWJvdXQ9IiIKICAgICAgICAgICAgeG1sbnM6ZXhpZj0iaHR0cDovL25zLmFkb2JlLmNvbS9leGlmLzEuMC8iPgogICAgICAgICA8ZXhpZjpQaXhlbFlEaW1lbnNpb24+MTE0PC9leGlmOlBpeGVsWURpbWVuc2lvbj4KICAgICAgICAgPGV4aWY6UGl4ZWxYRGltZW5zaW9uPjEwODwvZXhpZjpQaXhlbFhEaW1lbnNpb24+CiAgICAgICAgIDxleGlmOlVzZXJDb21tZW50PlNjcmVlbnNob3Q8L2V4aWY6VXNlckNvbW1lbnQ+CiAgICAgIDwvcmRmOkRlc2NyaXB0aW9uPgogICA8L3JkZjpSREY+CjwveDp4bXBtZXRhPgqpEfr/AAAAHGlET1QAAAACAAAAAAAAADkAAAAoAAAAOQAAADkAAAuFM8yaVQAAC1FJREFUeAHsXAmQFNUZ/nfZgz3ZZS/2RlhATiUoQkBRDkEU5BZJgRo1iSbeibFMNB6pMkpMNJKYeMUygAe364EgEYggiIASDpFz2ZO92fvE/F+Ht9Mz87qnZ6Zndrpqvqqpnn3zuvv1+/v9x/f/b0O+Z1AQlpmBkKDALCMrZaBBgVlLXhQUWFBgFpsBiw03uMKCArPYDFhsuMEVFhSYxWbAYsMNrrCgwCw2AxYbbnCFBQVmsRmw2HCDKywoMIvNgMWGa/kVVtV6nk43dNCphnblWN5ynmrb/v85136eQlggiRGhlMCfxMhQyojqQRfFhlO/uDA+hlHPHuhhHVhOYGXNnbS5tJm2lLYon6KmDo9nO5RlNSopkian9+RPFI1LiaTIABegJQQGIa041Ujvnm6kPZWtHgvI1YmxYaE0MzuKbr4ohqZmRFE4JBpgCGiBbSpppmcOnqOtZS1uTVtyZA9F/SWxCuzkfHoNq83qtk6q5qNRQIXe2j+WHh3ei1J69jB6ms/7BaTANhY30xPf1NJuF6tpcK9wui4zioYkRFAe26S8uHDKjNaf3ILGDjpex5/6dvpvTRvlFzXTGW7TQhSryF9cHE8PD4snvAjdjYASGJyHu3dX0ccsMC1AQNP5c2N2NGXHhGl1c6v9yLl2+ojvmV/YRNvOyldzTFgIPXFJAv1yaC+3rm1254AR2NMHaunxr2ulzwfh3JoXq9gVvPG+xDn2MNez4F76to72VrU53Qqr+h9jk+jK1J5Ov/mjodsFdrSuneZuLadDte1Oz3tp7whaNjqJxqVGOv3mj4ZVBY30yL4aOllvrzLxytw7OJ6e/UGi373KbhXY37+rp7t2VTnNfR+OlZ4blUiL+8U6/dYdDc8fruPVX0NNHfYVgSMSI+i9CSk0KD7cb8PqNoHdtqOS3jzR4PSgv2Gv7NHhCRTNNiOQgNDi17za3pKMeRULbV5ujF+G63eB1TP7MOPf5U7GHbZhzdWphGMg4zMOMW7eXkFnWzq7holXC3btzgFxXW2++uJXgZXzQ07efFZxp9UPdD/bgz9f3lvdFNDfK1s7afHnlYTwQ42nLk2gx0YkqJtM/+43gTVzBDvmo1I6wLGPAN7MN8cl0xIOUK2In3xRRa8eq7cb+jPsiDwyzHeuv18EBlM9k9XgB0VNXQ8H73z5lSm0sK9/dH/XjU3+cs+X1bSMQwABvISrJqTS3Nxo0WTq0S8Cg7F+jikmNeBdzTdgqGs4LgLb3h0A6w+KyhUe3ltDSw/ZP9/O69JpLJPJZsPnAsvnVYXVpcY/WQ2Cp9ND+/nvFR5x6cE62j8jXaGd9Pqb/RtelH5rixRHArbJVRrG0esFj3noxkxKM5mH9KnAwNeNzC+lhg4b6foCOxf3sZOhhxMcqM7mYBpcHwDmfOPkNL1TTP/tpxwfvsJxIoA4a8PEVN14i98vWrC9nNYU2NQ+Vtj2aelkZoTiU4ENe7/YjsG4a1Ac/e2KJN3J/YQZ+gXbKqiO3X81VrC9W8RpD39gV0Urjf241O5W8eGh9D4LbUKaPiU18oMS+rra5lj9irlHkABmwWcCA9v+JH8EwAp8dX26bo5pxclGWrKjgvC2OgIq5uisLMLRlwCZMXRDMX3HlJkjwkJClJUG8lkLILBH5JcQ4k2BfTdk0Eim2cyATwR2igcN/S8Qx2/ngRkZ1JdT8lpYzbzdTRyQyoQlzgFV9db4ZPGnT45PMQn9Ow0SGjeM4KTmh5NSlQy11gAc7fYYVo1fsBNiBnwisGs2ldklHV8a3VvJKWkN+PPyFrr6kzIl2ajVR7RvmpJGUzid7wtgVWF1tCLrqQPQZl9dn6HLysxntY6XUODtq8wJYUwXGGotJm8uE+MkMO77WSVooZQ5Otg6o9lgJCiPzc4iX6RZYLdgv4wAyVJ4rygrkKG4qZMGrCsiEAZADufuCuZmybq61Wa6wCby6gLfJvDl9HS6PFk7HhnN7Ie7dRoPDImnP11mLpX1+vEGumNnpRi2oeOcnGiF/9TqjNgMMZrA6z9Mph9zXs8bmCqwfewdjWIvSWBGVrTiWYm/HY+Psa34PdsMdwE2Ya+JhhxE7qD1xYTkpbtYPj6FftRP7r1idWWuKiTEdMBADg+OcGzmTW2PqQKb/Vm5kq0VDw1DC4Mrg6NwZX302oYmhNPBmZl6XQz/tpCdHVRkeQI4VMdmawfIjpl0b1MxpgkMDHbae4VdXt5VHK9sm9pHcw7Gsb3YadBeaF3kaWYgfuslO47KrKmfntW6haH2uzm+/KtGfInVhVUmbJmreXF1Q9ME9ixzhUinC+i9SY5urzjH3SNc7IMzM2iAhxlfTOLAdcXkTTEqxgwiG44QKolluJNZ/ddUrP7JOdp9Zeer20wTWN81RYQSMqAXE6YVC7I1g+RL2HVWp1nUA3L3+xXs0Oxix8YTPLCnml44YmPaPbmGOOd2diZeY6dChh3lrTR+o405eZy1wpOsHTyBKQI7zGViYAcEUKDyokZCEmVkiLnMBOgu0F7uADb0MnaQ9CMu41dEiXfJvGzqrcHE5LGLD44UyGUX/7SHLr4pAnMsptFzNuYwqbvujI0gNT4l2j1RMwjaylURqfoKZq5ycV09m4oSPjggAp6qRVMEpvayMHn1i3KVXSNicOKIqqOYlQXiT90jaCzwckYBfu/DScYYfcf4SO8esI/HJLyi7BzYMAhCBsSmiFEFXuUakDs8qAExRWDp7AWhqgi4gWOvfGa1ZdjABZqz2PU3grVckAM7BxLZKIwkRcFzQn0Lr83VtUHc/oXtnKzCS3buVvaMZYx+Czs4ie+cIRwBZB6QgXAXXgushCmYzNWFXfdFMQ2KamRADSLUpyuMZkdi9wVHApMLG2kESBYenZWpOD1a/UGbgT4zggeZUXmeGRV4kdmrbWS23rl69lvNAmF/2gn2LN2F1wLDXq1ruRJKYMu1fWhiH3nOCMSqSEqK/rIjyt1A+wD7L7AnRp2D29hbe0PDW1t+skGpdpLd07ENKvkwsxKCs1zCVVL/4vNdYTinkZCZkOE+9kqxWgU6FvdVQgLxt5Gj1wJ7kQdwPw9EoHR+NqFy1xHIDyWwStBLn+Ac7BApmZ9lFxLg+riPUSBgR4CqBmin/uypYcemETheA1uekIUwgqqbcqTe4stH65XNHuIaeCHcrcP0WmDYbYKBAChYqVmYI8ZjdzTqzstUCpyVIawaRZxnd2HJH1A3oK3E6kAXx5oLyWldTSBoQdQ6IodjzUKdrUmiv5aWcRT6hmtSeQOhe9VVXgts0X8q6G3eHQnopVLeYDb8dgNs+LucN1ogKX1zVL1icrSO2Ba09EJq3ujLgmvp2UGULmCDhCu8PCaJfjbQOS7EPrRcFrrAMo4ff+5m/Oi1wOZtsxWeqJ0FMShxNMrMn2K3WCszfQvX48tq28U91EfQRXs4yTiES78H8+qEd2gEepQaSvVQsucKD7Gz8kdJ+qeN7UHkcltYoxe3ad3Da4GhhA3cIIA9U9unyQlf5JqQc9IDYrgGjuG0ACJ1MKdB1HXtWn3RjjoKVFz9gSfaCLAPbT2rKS1go+H0LTYHS6vfLVzCh4pmGeJWnumqIlNrAVlfWZvXApvGTDcqnYBJvBv/0ylygalVp2wgaDOSlUUaBIG62QD/iZBAr44QiVYkXF0BO1mwUmWA4yP2m2HzxCscQLsDrwWGnSiiBFsvdaBWnVoDRGXVNxousfoc9T3V7d58B3ELAlcPjsVFWn3hSMChkOFi1hDYxAhoOTey80Sb1wJTrxyoIDADMmCLzjsukoT92bs7biCYhErMW1vcpVpk93OnTe9FU1/nWw7gYQ9dAf82YqUGi5HBrBDqWABPdu38DwAA//8JFEdRAAAKyklEQVTtWwtwFdUZ/kMCISEJSSABkpAA8hYRLCAVFBUfVAtBAeXRUdvSOlQZHduptmOx4lTtg9oqo9WOj9oaBQoIikWmCAV0kLfyELAIeZCQF3mSN9D/u8nenLs5Z++5uXuTbGe/meTunj3n7L/n3/O/N+wyg4LAg7tL6bWTVZ4ZhsV1p5OzU6WzPfR5Kb18ormftAM3JkZ2o9J701WXfdr/wvdcwvcOFj26hdEJpnlQTITfqT4tqqepmwv89ls6Mo5enJQo7ReTlU0XmpqXfNnYeHp6XLy0n6oxLFiG/Xx/Gf3+aIVn/v5R4VQwb6D0Xk8dKqflX5ZLr4mNNYsyKCo8TGxSHt+w+RztLKpTXte58IcJifTT0XE6XWnVmQs0f0ex377LmQm/YmbIEPb2GW/zCr73Y5r3NgYFzbAVxyrpZ/vOG/NRHS94pGTB3/hvNf3wsxJvP9XBttv60439e6ou+7R/XdlIYzbmU8Ol9gmJ8Yk9aO+dKSQh1+c+xslj/Jwv8PP6w6obkuieQb3adDte0UijNpz1tr/L/eZL+nk7SA6CZtgHeTU065Mi79QHv5tC43ghzNhXWk8TN/kXJ89dk0BPjOltHq48/+2RCnriQJnyutWFQzNT6OqEtrSqxkz5VwF9VlyvuuxtP84idgSrBzM25NbQ7G2ta3WA1wovTSAImmEn+C0f+b7/t6bu4mWKeifbL21X8QJ+yQsZCMZ/mE+HzjcEMoSeZJH1TAD6I/dCE6WvzfN7D4hziHUZfscv1+PCy6WSRrKxRlvQDMNEolz+xVW96dnxCcb8Pr+TPiqgvSX+39A9dwygiX0jfcZanRxkZk3clE/8TmgBxtGRWSkEg0MXz7D+XcZ62B8yB0bT+zclS7tB/0EPAgN7RVDOnDRpP6tGWxg2gRdrf2nzG34tL/RuXnAZdB96bkYvWjMtSTaFsk00fpSdWi6APtCpC0iHQby7Cusu+h3y1pS+dP8VMdJ+fVbl0Pn6S55rd6VH07ob5YyVDm5ptIVh4mLhpa1YkE4xEd3a3PdwWQON/SC/TbusYT/L92sClO8zWZdWNTYviGxOtN3EBs1TV8stONUYWMF4Rh2cn59OCT3aPvtXbHCMFgyOldf2oYdGxOpM6dPHFoZ9nF9LM/5d6J140/R+dEdqlPdcPPgW65sDGvrGaqeK84X6OK+myWOJVjRYvwigY/GwWPrrt/tISVp5vJKW7mm1puH7DZcYJtLBQqMtDKtlkREtGBT3sUj4G4sGGV5n836xhnmPsY+ztfg8W42dBXgL0z4+R7s0fb1jmak0qndb6xD0T2b9/XmL/k6NDqe8uXJ/1d+z2sIw3ASmPUx8oCdbSiUcsegV0Vapg7nQB0Ua+gBzZV2fRAsGt/VpcC3U0InOGDRAokCyyHC6uomGrGu1MB8dFUcvTJRHQmTjxTbbGLaarZ97hSjAG9f1pe8PlSvfN3mX/UBzl0Envj0liRYN6Vim/YRDaa/4CaWJC3mYrc4x8XKf6pcHy+i5w83RIIxpj3427mUbw7Bz+q3O9Sr9sexPfWHhT+ma+CAU+xTuwvJxCdpRCeMBA/2Frlq0q5g25dVqD4UEgCSQAeuSuiaXylp04JDYCDp1V+DmvDG3bQzDhAg9IQRlYMut/ejWAXLj4xhbTVcKVpMxxup3anJPeo2VukpPWI3Vuba1oI4e+LSEYGjoIrZ7NzqWmUJp0fLg8YtfVdIje1uNDehk6Ob2wlaGnWyJehj+681sQm/l2KAKZs9f1c/cDqPmFTaLoyU60txX57yk/iLdv6uEPjqrv6uMeWFcgR4ZEJTPWJtL+TXN/htcnYJ70qQuj2y8rM1WhuEGd28vovU5zcYHznfM6E/X886QAVbYZI7P6UQ/xPEILlcvzCCb+OURV4nv5Yi30Dq+PSWKNt8iNzQwwZ95dz0q7C6rKJDWDbmT7QwzB3lHspl7ZFaqUvd8U9XEzvRZb45Ih3CIWYhbOwGHHo69LpJ7htNRFoV9I8OlQ87VXqThHGM1HHnEGHPmpin7SyeRNNrOMNxj7n+KaG126y7zl/fZfq6ObmfHWzdNglgl3lY7AT0DfaMD6K2dLDmsIv0L2GJ+ryVuiDnbk6yU0RIShp1lmT1sfR7BQgIgu5HKuIItJBU+ZB8OqYeWIapunvZAY4GWk7VcNKc+VGPgY0IvX5ekjkVu5DRKppBGGczZbDjVGBssQsIwEGU2KEazaIT/YUX0u6cv0MKd1hldML9yYbrH1A/24cXx1U2XKC4rhwyDSbxmHEeEhbFznEy3se5SoZgDAiNYFBpmPPoFkpRVzWu0h4xhuIEYxcf5j4fH0quT5bE2XAfWscFyH/tBRt1Dc2vr/5lp0bTx5sCj3K0zqI+QYIUOliGJdRbSJlY7C+O+s7WQNgvWJiL3iODbhZAy7AyHZJBcLBcCp3/ikMwjHJqxApKimRzqwq8ZCOkgtBMKILkIyWDGJE7FbGBmoWbFCk9/UU6/5j8D8Bf3cQmCXe4H5g0pw3ADvG1460ToxAchouDEisYL5rAKAYn3aM/xFs46wPgRoRv3A50wtgyASYj0DI2VB4ONfoH+hpxhIAhvHd4+Ef+clkxzMqLFJukxog8P7yklFLAgz4R8U6hQzxZPDOuxJq78Q3rnVY6qWFmCBh2o80C9h4j1vCNnc/bZbnQIw0A0aghRS2gABtM/OP6mUzUEyxG1j4fLG+hljnCEEkjjI82vmyHYxi7JzE8KfXTum6yzHlBEP4KlvcMYButrnsk/g5Gb1Y5Sr2Af2q7xcEXu3l5MjUKZnY6ODub+HcYwg0ikYJCKEYFiSjjXTsJvOF3yJKdNRAQb2BXnUh13OMMg3r7HvpYYBQBx0BVruSjFyrlWPURHtiOUNp/pN8c/X+LS7Ie5RDvU6HCGGQ9kTsUY7SiQQSGplYNt9O3o3z9y1e+yQ2U++go0QK8uaUdBTXvo7zSGgVjVBw2o2VsxIYHmcblbVwDCVijTxu4SgdoMlFurshFiX7uOO5VheIij5Y00h1MyMicZ4SwEeRcMjlFG++1aCPM8MJLWsW/1PDvSsujHnWlR9PepSdKSNvNcdp53OsOMh7H6uiWDd9ziYTFcIxJLeKtDCaRD3jpVTS8dryJ8bGEG0imwBDu6xsSgo8swDASdYpHz4O4SgrOswi2cC4OPhDe8H8f37ACiKjsK6ynrdDW9842vBSvODz0FSzCO0yudhS7FMGMRkB/Dx39rstWLh774SmYGR86RJEUIaGhchBYT8eEEagTxt5ujFKjKVQHZgR8Nj/HEP7HTOxtdkmHGomTzFyMrWTS9/nWVT7rCuK76RWQdYSx80RkpfPCABCk+nECtvD+gKnfpyFiPGJbVV/obH6rrXZphxkMjxreadxt2HXZEqNCdmYuPFJZwGkj3o8JQ0aKa1xEME4lHCdqW/DrWc7UeXafzRYk43nx8ZXx3ms56cTpXeOFDCaT/uzIcxzDzYqLkG6XQyL3hDxnfisbLhIJQ5OEgESEe4/kvgUXkAM5p4QP0QayPhrDe60rizvxssnPHM0z2UP/PbS7DHMZdl2Euwxy2Ag4j191hLsMctgIOI9fdYS7DHLYCDiPX3WEuwxy2Ag4j191hLsMctgIOI9fdYS7DHLYCDiPX3WEuwxy2Ag4j191hLsMctgIOI9fdYQ5j2P8Ayv/GMrDq4rwAAAAASUVORK5CYII=;imageBorder=default;dashed=1;" vertex="1" parent="1">
          <mxGeometry x="54.990000000000045" y="384" width="47.37" height="50" as="geometry" />
        </mxCell>
        <mxCell id="5jTDvBwV7yWnziTKpoq--20" value="" style="shape=image;verticalLabelPosition=bottom;labelBackgroundColor=default;verticalAlign=top;aspect=fixed;imageAspect=0;image=data:image/png,iVBORw0KGgoAAAANSUhEUgAAAGwAAAByCAYAAAC2ujQmAAAAAXNSR0IArs4c6QAAAJZlWElmTU0AKgAAAAgABAEaAAUAAAABAAAAPgEbAAUAAAABAAAARgEoAAMAAAABAAIAAIdpAAQAAAABAAAATgAAAAAAAACQAAAAAQAAAJAAAAABAASShgAHAAAAEgAAAISgAQADAAAAAQABAACgAgAEAAAAAQAAAGygAwAEAAAAAQAAAHIAAAAAQVNDSUkAAABTY3JlZW5zaG90SpNP0QAAAAlwSFlzAAAWJQAAFiUBSVIk8AAAAdZpVFh0WE1MOmNvbS5hZG9iZS54bXAAAAAAADx4OnhtcG1ldGEgeG1sbnM6eD0iYWRvYmU6bnM6bWV0YS8iIHg6eG1wdGs9IlhNUCBDb3JlIDYuMC4wIj4KICAgPHJkZjpSREYgeG1sbnM6cmRmPSJodHRwOi8vd3d3LnczLm9yZy8xOTk5LzAyLzIyLXJkZi1zeW50YXgtbnMjIj4KICAgICAgPHJkZjpEZXNjcmlwdGlvbiByZGY6YWJvdXQ9IiIKICAgICAgICAgICAgeG1sbnM6ZXhpZj0iaHR0cDovL25zLmFkb2JlLmNvbS9leGlmLzEuMC8iPgogICAgICAgICA8ZXhpZjpQaXhlbFlEaW1lbnNpb24+MTE0PC9leGlmOlBpeGVsWURpbWVuc2lvbj4KICAgICAgICAgPGV4aWY6UGl4ZWxYRGltZW5zaW9uPjEwODwvZXhpZjpQaXhlbFhEaW1lbnNpb24+CiAgICAgICAgIDxleGlmOlVzZXJDb21tZW50PlNjcmVlbnNob3Q8L2V4aWY6VXNlckNvbW1lbnQ+CiAgICAgIDwvcmRmOkRlc2NyaXB0aW9uPgogICA8L3JkZjpSREY+CjwveDp4bXBtZXRhPgqpEfr/AAAAHGlET1QAAAACAAAAAAAAADkAAAAoAAAAOQAAADkAAAuFM8yaVQAAC1FJREFUeAHsXAmQFNUZ/nfZgz3ZZS/2RlhATiUoQkBRDkEU5BZJgRo1iSbeibFMNB6pMkpMNJKYeMUygAe364EgEYggiIASDpFz2ZO92fvE/F+Ht9Mz87qnZ6Zndrpqvqqpnn3zuvv1+/v9x/f/b0O+Z1AQlpmBkKDALCMrZaBBgVlLXhQUWFBgFpsBiw03uMKCArPYDFhsuMEVFhSYxWbAYsMNrrCgwCw2AxYbbnCFBQVmsRmw2HCDKywoMIvNgMWGa/kVVtV6nk43dNCphnblWN5ynmrb/v85136eQlggiRGhlMCfxMhQyojqQRfFhlO/uDA+hlHPHuhhHVhOYGXNnbS5tJm2lLYon6KmDo9nO5RlNSopkian9+RPFI1LiaTIABegJQQGIa041Ujvnm6kPZWtHgvI1YmxYaE0MzuKbr4ohqZmRFE4JBpgCGiBbSpppmcOnqOtZS1uTVtyZA9F/SWxCuzkfHoNq83qtk6q5qNRQIXe2j+WHh3ei1J69jB6ms/7BaTANhY30xPf1NJuF6tpcK9wui4zioYkRFAe26S8uHDKjNaf3ILGDjpex5/6dvpvTRvlFzXTGW7TQhSryF9cHE8PD4snvAjdjYASGJyHu3dX0ccsMC1AQNP5c2N2NGXHhGl1c6v9yLl2+ojvmV/YRNvOyldzTFgIPXFJAv1yaC+3rm1254AR2NMHaunxr2ulzwfh3JoXq9gVvPG+xDn2MNez4F76to72VrU53Qqr+h9jk+jK1J5Ov/mjodsFdrSuneZuLadDte1Oz3tp7whaNjqJxqVGOv3mj4ZVBY30yL4aOllvrzLxytw7OJ6e/UGi373KbhXY37+rp7t2VTnNfR+OlZ4blUiL+8U6/dYdDc8fruPVX0NNHfYVgSMSI+i9CSk0KD7cb8PqNoHdtqOS3jzR4PSgv2Gv7NHhCRTNNiOQgNDi17za3pKMeRULbV5ujF+G63eB1TP7MOPf5U7GHbZhzdWphGMg4zMOMW7eXkFnWzq7holXC3btzgFxXW2++uJXgZXzQ07efFZxp9UPdD/bgz9f3lvdFNDfK1s7afHnlYTwQ42nLk2gx0YkqJtM/+43gTVzBDvmo1I6wLGPAN7MN8cl0xIOUK2In3xRRa8eq7cb+jPsiDwyzHeuv18EBlM9k9XgB0VNXQ8H73z5lSm0sK9/dH/XjU3+cs+X1bSMQwABvISrJqTS3Nxo0WTq0S8Cg7F+jikmNeBdzTdgqGs4LgLb3h0A6w+KyhUe3ltDSw/ZP9/O69JpLJPJZsPnAsvnVYXVpcY/WQ2Cp9ND+/nvFR5x6cE62j8jXaGd9Pqb/RtelH5rixRHArbJVRrG0esFj3noxkxKM5mH9KnAwNeNzC+lhg4b6foCOxf3sZOhhxMcqM7mYBpcHwDmfOPkNL1TTP/tpxwfvsJxIoA4a8PEVN14i98vWrC9nNYU2NQ+Vtj2aelkZoTiU4ENe7/YjsG4a1Ac/e2KJN3J/YQZ+gXbKqiO3X81VrC9W8RpD39gV0Urjf241O5W8eGh9D4LbUKaPiU18oMS+rra5lj9irlHkABmwWcCA9v+JH8EwAp8dX26bo5pxclGWrKjgvC2OgIq5uisLMLRlwCZMXRDMX3HlJkjwkJClJUG8lkLILBH5JcQ4k2BfTdk0Eim2cyATwR2igcN/S8Qx2/ngRkZ1JdT8lpYzbzdTRyQyoQlzgFV9db4ZPGnT45PMQn9Ow0SGjeM4KTmh5NSlQy11gAc7fYYVo1fsBNiBnwisGs2ldklHV8a3VvJKWkN+PPyFrr6kzIl2ajVR7RvmpJGUzid7wtgVWF1tCLrqQPQZl9dn6HLysxntY6XUODtq8wJYUwXGGotJm8uE+MkMO77WSVooZQ5Otg6o9lgJCiPzc4iX6RZYLdgv4wAyVJ4rygrkKG4qZMGrCsiEAZADufuCuZmybq61Wa6wCby6gLfJvDl9HS6PFk7HhnN7Ie7dRoPDImnP11mLpX1+vEGumNnpRi2oeOcnGiF/9TqjNgMMZrA6z9Mph9zXs8bmCqwfewdjWIvSWBGVrTiWYm/HY+Psa34PdsMdwE2Ya+JhhxE7qD1xYTkpbtYPj6FftRP7r1idWWuKiTEdMBADg+OcGzmTW2PqQKb/Vm5kq0VDw1DC4Mrg6NwZX302oYmhNPBmZl6XQz/tpCdHVRkeQI4VMdmawfIjpl0b1MxpgkMDHbae4VdXt5VHK9sm9pHcw7Gsb3YadBeaF3kaWYgfuslO47KrKmfntW6haH2uzm+/KtGfInVhVUmbJmreXF1Q9ME9ixzhUinC+i9SY5urzjH3SNc7IMzM2iAhxlfTOLAdcXkTTEqxgwiG44QKolluJNZ/ddUrP7JOdp9Zeer20wTWN81RYQSMqAXE6YVC7I1g+RL2HVWp1nUA3L3+xXs0Oxix8YTPLCnml44YmPaPbmGOOd2diZeY6dChh3lrTR+o405eZy1wpOsHTyBKQI7zGViYAcEUKDyokZCEmVkiLnMBOgu0F7uADb0MnaQ9CMu41dEiXfJvGzqrcHE5LGLD44UyGUX/7SHLr4pAnMsptFzNuYwqbvujI0gNT4l2j1RMwjaylURqfoKZq5ycV09m4oSPjggAp6qRVMEpvayMHn1i3KVXSNicOKIqqOYlQXiT90jaCzwckYBfu/DScYYfcf4SO8esI/HJLyi7BzYMAhCBsSmiFEFXuUakDs8qAExRWDp7AWhqgi4gWOvfGa1ZdjABZqz2PU3grVckAM7BxLZKIwkRcFzQn0Lr83VtUHc/oXtnKzCS3buVvaMZYx+Czs4ie+cIRwBZB6QgXAXXgushCmYzNWFXfdFMQ2KamRADSLUpyuMZkdi9wVHApMLG2kESBYenZWpOD1a/UGbgT4zggeZUXmeGRV4kdmrbWS23rl69lvNAmF/2gn2LN2F1wLDXq1ruRJKYMu1fWhiH3nOCMSqSEqK/rIjyt1A+wD7L7AnRp2D29hbe0PDW1t+skGpdpLd07ENKvkwsxKCs1zCVVL/4vNdYTinkZCZkOE+9kqxWgU6FvdVQgLxt5Gj1wJ7kQdwPw9EoHR+NqFy1xHIDyWwStBLn+Ac7BApmZ9lFxLg+riPUSBgR4CqBmin/uypYcemETheA1uekIUwgqqbcqTe4stH65XNHuIaeCHcrcP0WmDYbYKBAChYqVmYI8ZjdzTqzstUCpyVIawaRZxnd2HJH1A3oK3E6kAXx5oLyWldTSBoQdQ6IodjzUKdrUmiv5aWcRT6hmtSeQOhe9VVXgts0X8q6G3eHQnopVLeYDb8dgNs+LucN1ogKX1zVL1icrSO2Ba09EJq3ujLgmvp2UGULmCDhCu8PCaJfjbQOS7EPrRcFrrAMo4ff+5m/Oi1wOZtsxWeqJ0FMShxNMrMn2K3WCszfQvX48tq28U91EfQRXs4yTiES78H8+qEd2gEepQaSvVQsucKD7Gz8kdJ+qeN7UHkcltYoxe3ad3Da4GhhA3cIIA9U9unyQlf5JqQc9IDYrgGjuG0ACJ1MKdB1HXtWn3RjjoKVFz9gSfaCLAPbT2rKS1go+H0LTYHS6vfLVzCh4pmGeJWnumqIlNrAVlfWZvXApvGTDcqnYBJvBv/0ylygalVp2wgaDOSlUUaBIG62QD/iZBAr44QiVYkXF0BO1mwUmWA4yP2m2HzxCscQLsDrwWGnSiiBFsvdaBWnVoDRGXVNxousfoc9T3V7d58B3ELAlcPjsVFWn3hSMChkOFi1hDYxAhoOTey80Sb1wJTrxyoIDADMmCLzjsukoT92bs7biCYhErMW1vcpVpk93OnTe9FU1/nWw7gYQ9dAf82YqUGi5HBrBDqWABPdu38DwAA//8JFEdRAAAKyklEQVTtWwtwFdUZ/kMCISEJSSABkpAA8hYRLCAVFBUfVAtBAeXRUdvSOlQZHduptmOx4lTtg9oqo9WOj9oaBQoIikWmCAV0kLfyELAIeZCQF3mSN9D/u8nenLs5Z++5uXuTbGe/meTunj3n7L/n3/O/N+wyg4LAg7tL6bWTVZ4ZhsV1p5OzU6WzPfR5Kb18ormftAM3JkZ2o9J701WXfdr/wvdcwvcOFj26hdEJpnlQTITfqT4tqqepmwv89ls6Mo5enJQo7ReTlU0XmpqXfNnYeHp6XLy0n6oxLFiG/Xx/Gf3+aIVn/v5R4VQwb6D0Xk8dKqflX5ZLr4mNNYsyKCo8TGxSHt+w+RztLKpTXte58IcJifTT0XE6XWnVmQs0f0ex377LmQm/YmbIEPb2GW/zCr73Y5r3NgYFzbAVxyrpZ/vOG/NRHS94pGTB3/hvNf3wsxJvP9XBttv60439e6ou+7R/XdlIYzbmU8Ol9gmJ8Yk9aO+dKSQh1+c+xslj/Jwv8PP6w6obkuieQb3adDte0UijNpz1tr/L/eZL+nk7SA6CZtgHeTU065Mi79QHv5tC43ghzNhXWk8TN/kXJ89dk0BPjOltHq48/+2RCnriQJnyutWFQzNT6OqEtrSqxkz5VwF9VlyvuuxtP84idgSrBzM25NbQ7G2ta3WA1wovTSAImmEn+C0f+b7/t6bu4mWKeifbL21X8QJ+yQsZCMZ/mE+HzjcEMoSeZJH1TAD6I/dCE6WvzfN7D4hziHUZfscv1+PCy6WSRrKxRlvQDMNEolz+xVW96dnxCcb8Pr+TPiqgvSX+39A9dwygiX0jfcZanRxkZk3clE/8TmgBxtGRWSkEg0MXz7D+XcZ62B8yB0bT+zclS7tB/0EPAgN7RVDOnDRpP6tGWxg2gRdrf2nzG34tL/RuXnAZdB96bkYvWjMtSTaFsk00fpSdWi6APtCpC0iHQby7Cusu+h3y1pS+dP8VMdJ+fVbl0Pn6S55rd6VH07ob5YyVDm5ptIVh4mLhpa1YkE4xEd3a3PdwWQON/SC/TbusYT/L92sClO8zWZdWNTYviGxOtN3EBs1TV8stONUYWMF4Rh2cn59OCT3aPvtXbHCMFgyOldf2oYdGxOpM6dPHFoZ9nF9LM/5d6J140/R+dEdqlPdcPPgW65sDGvrGaqeK84X6OK+myWOJVjRYvwigY/GwWPrrt/tISVp5vJKW7mm1puH7DZcYJtLBQqMtDKtlkREtGBT3sUj4G4sGGV5n836xhnmPsY+ztfg8W42dBXgL0z4+R7s0fb1jmak0qndb6xD0T2b9/XmL/k6NDqe8uXJ/1d+z2sIw3ASmPUx8oCdbSiUcsegV0Vapg7nQB0Ua+gBzZV2fRAsGt/VpcC3U0InOGDRAokCyyHC6uomGrGu1MB8dFUcvTJRHQmTjxTbbGLaarZ97hSjAG9f1pe8PlSvfN3mX/UBzl0Envj0liRYN6Vim/YRDaa/4CaWJC3mYrc4x8XKf6pcHy+i5w83RIIxpj3427mUbw7Bz+q3O9Sr9sexPfWHhT+ma+CAU+xTuwvJxCdpRCeMBA/2Frlq0q5g25dVqD4UEgCSQAeuSuiaXylp04JDYCDp1V+DmvDG3bQzDhAg9IQRlYMut/ejWAXLj4xhbTVcKVpMxxup3anJPeo2VukpPWI3Vuba1oI4e+LSEYGjoIrZ7NzqWmUJp0fLg8YtfVdIje1uNDehk6Ob2wlaGnWyJehj+681sQm/l2KAKZs9f1c/cDqPmFTaLoyU60txX57yk/iLdv6uEPjqrv6uMeWFcgR4ZEJTPWJtL+TXN/htcnYJ70qQuj2y8rM1WhuEGd28vovU5zcYHznfM6E/X886QAVbYZI7P6UQ/xPEILlcvzCCb+OURV4nv5Yi30Dq+PSWKNt8iNzQwwZ95dz0q7C6rKJDWDbmT7QwzB3lHspl7ZFaqUvd8U9XEzvRZb45Ih3CIWYhbOwGHHo69LpJ7htNRFoV9I8OlQ87VXqThHGM1HHnEGHPmpin7SyeRNNrOMNxj7n+KaG126y7zl/fZfq6ObmfHWzdNglgl3lY7AT0DfaMD6K2dLDmsIv0L2GJ+ryVuiDnbk6yU0RIShp1lmT1sfR7BQgIgu5HKuIItJBU+ZB8OqYeWIapunvZAY4GWk7VcNKc+VGPgY0IvX5ekjkVu5DRKppBGGczZbDjVGBssQsIwEGU2KEazaIT/YUX0u6cv0MKd1hldML9yYbrH1A/24cXx1U2XKC4rhwyDSbxmHEeEhbFznEy3se5SoZgDAiNYFBpmPPoFkpRVzWu0h4xhuIEYxcf5j4fH0quT5bE2XAfWscFyH/tBRt1Dc2vr/5lp0bTx5sCj3K0zqI+QYIUOliGJdRbSJlY7C+O+s7WQNgvWJiL3iODbhZAy7AyHZJBcLBcCp3/ikMwjHJqxApKimRzqwq8ZCOkgtBMKILkIyWDGJE7FbGBmoWbFCk9/UU6/5j8D8Bf3cQmCXe4H5g0pw3ADvG1460ToxAchouDEisYL5rAKAYn3aM/xFs46wPgRoRv3A50wtgyASYj0DI2VB4ONfoH+hpxhIAhvHd4+Ef+clkxzMqLFJukxog8P7yklFLAgz4R8U6hQzxZPDOuxJq78Q3rnVY6qWFmCBh2o80C9h4j1vCNnc/bZbnQIw0A0aghRS2gABtM/OP6mUzUEyxG1j4fLG+hljnCEEkjjI82vmyHYxi7JzE8KfXTum6yzHlBEP4KlvcMYButrnsk/g5Gb1Y5Sr2Af2q7xcEXu3l5MjUKZnY6ODub+HcYwg0ikYJCKEYFiSjjXTsJvOF3yJKdNRAQb2BXnUh13OMMg3r7HvpYYBQBx0BVruSjFyrlWPURHtiOUNp/pN8c/X+LS7Ie5RDvU6HCGGQ9kTsUY7SiQQSGplYNt9O3o3z9y1e+yQ2U++go0QK8uaUdBTXvo7zSGgVjVBw2o2VsxIYHmcblbVwDCVijTxu4SgdoMlFurshFiX7uOO5VheIij5Y00h1MyMicZ4SwEeRcMjlFG++1aCPM8MJLWsW/1PDvSsujHnWlR9PepSdKSNvNcdp53OsOMh7H6uiWDd9ziYTFcIxJLeKtDCaRD3jpVTS8dryJ8bGEG0imwBDu6xsSgo8swDASdYpHz4O4SgrOswi2cC4OPhDe8H8f37ACiKjsK6ynrdDW9842vBSvODz0FSzCO0yudhS7FMGMRkB/Dx39rstWLh774SmYGR86RJEUIaGhchBYT8eEEagTxt5ujFKjKVQHZgR8Nj/HEP7HTOxtdkmHGomTzFyMrWTS9/nWVT7rCuK76RWQdYSx80RkpfPCABCk+nECtvD+gKnfpyFiPGJbVV/obH6rrXZphxkMjxreadxt2HXZEqNCdmYuPFJZwGkj3o8JQ0aKa1xEME4lHCdqW/DrWc7UeXafzRYk43nx8ZXx3ms56cTpXeOFDCaT/uzIcxzDzYqLkG6XQyL3hDxnfisbLhIJQ5OEgESEe4/kvgUXkAM5p4QP0QayPhrDe60rizvxssnPHM0z2UP/PbS7DHMZdl2Euwxy2Ag4j191hLsMctgIOI9fdYS7DHLYCDiPX3WEuwxy2Ag4j191hLsMctgIOI9fdYS7DHLYCDiPX3WEuwxy2Ag4j191hLsMctgIOI9fdYQ5j2P8Ayv/GMrDq4rwAAAAASUVORK5CYII=;imageBorder=default;dashed=1;" vertex="1" parent="1">
          <mxGeometry x="168.67000000000007" y="384" width="47.37" height="50" as="geometry" />
        </mxCell>
        <mxCell id="5jTDvBwV7yWnziTKpoq--21" value="" style="shape=image;verticalLabelPosition=bottom;labelBackgroundColor=default;verticalAlign=top;aspect=fixed;imageAspect=0;image=data:image/png,iVBORw0KGgoAAAANSUhEUgAAAGwAAAByCAYAAAC2ujQmAAAAAXNSR0IArs4c6QAAAJZlWElmTU0AKgAAAAgABAEaAAUAAAABAAAAPgEbAAUAAAABAAAARgEoAAMAAAABAAIAAIdpAAQAAAABAAAATgAAAAAAAACQAAAAAQAAAJAAAAABAASShgAHAAAAEgAAAISgAQADAAAAAQABAACgAgAEAAAAAQAAAGygAwAEAAAAAQAAAHIAAAAAQVNDSUkAAABTY3JlZW5zaG90SpNP0QAAAAlwSFlzAAAWJQAAFiUBSVIk8AAAAdZpVFh0WE1MOmNvbS5hZG9iZS54bXAAAAAAADx4OnhtcG1ldGEgeG1sbnM6eD0iYWRvYmU6bnM6bWV0YS8iIHg6eG1wdGs9IlhNUCBDb3JlIDYuMC4wIj4KICAgPHJkZjpSREYgeG1sbnM6cmRmPSJodHRwOi8vd3d3LnczLm9yZy8xOTk5LzAyLzIyLXJkZi1zeW50YXgtbnMjIj4KICAgICAgPHJkZjpEZXNjcmlwdGlvbiByZGY6YWJvdXQ9IiIKICAgICAgICAgICAgeG1sbnM6ZXhpZj0iaHR0cDovL25zLmFkb2JlLmNvbS9leGlmLzEuMC8iPgogICAgICAgICA8ZXhpZjpQaXhlbFlEaW1lbnNpb24+MTE0PC9leGlmOlBpeGVsWURpbWVuc2lvbj4KICAgICAgICAgPGV4aWY6UGl4ZWxYRGltZW5zaW9uPjEwODwvZXhpZjpQaXhlbFhEaW1lbnNpb24+CiAgICAgICAgIDxleGlmOlVzZXJDb21tZW50PlNjcmVlbnNob3Q8L2V4aWY6VXNlckNvbW1lbnQ+CiAgICAgIDwvcmRmOkRlc2NyaXB0aW9uPgogICA8L3JkZjpSREY+CjwveDp4bXBtZXRhPgqpEfr/AAAAHGlET1QAAAACAAAAAAAAADkAAAAoAAAAOQAAADkAAAuFM8yaVQAAC1FJREFUeAHsXAmQFNUZ/nfZgz3ZZS/2RlhATiUoQkBRDkEU5BZJgRo1iSbeibFMNB6pMkpMNJKYeMUygAe364EgEYggiIASDpFz2ZO92fvE/F+Ht9Mz87qnZ6Zndrpqvqqpnn3zuvv1+/v9x/f/b0O+Z1AQlpmBkKDALCMrZaBBgVlLXhQUWFBgFpsBiw03uMKCArPYDFhsuMEVFhSYxWbAYsMNrrCgwCw2AxYbbnCFBQVmsRmw2HCDKywoMIvNgMWGa/kVVtV6nk43dNCphnblWN5ynmrb/v85136eQlggiRGhlMCfxMhQyojqQRfFhlO/uDA+hlHPHuhhHVhOYGXNnbS5tJm2lLYon6KmDo9nO5RlNSopkian9+RPFI1LiaTIABegJQQGIa041Ujvnm6kPZWtHgvI1YmxYaE0MzuKbr4ohqZmRFE4JBpgCGiBbSpppmcOnqOtZS1uTVtyZA9F/SWxCuzkfHoNq83qtk6q5qNRQIXe2j+WHh3ei1J69jB6ms/7BaTANhY30xPf1NJuF6tpcK9wui4zioYkRFAe26S8uHDKjNaf3ILGDjpex5/6dvpvTRvlFzXTGW7TQhSryF9cHE8PD4snvAjdjYASGJyHu3dX0ccsMC1AQNP5c2N2NGXHhGl1c6v9yLl2+ojvmV/YRNvOyldzTFgIPXFJAv1yaC+3rm1254AR2NMHaunxr2ulzwfh3JoXq9gVvPG+xDn2MNez4F76to72VrU53Qqr+h9jk+jK1J5Ov/mjodsFdrSuneZuLadDte1Oz3tp7whaNjqJxqVGOv3mj4ZVBY30yL4aOllvrzLxytw7OJ6e/UGi373KbhXY37+rp7t2VTnNfR+OlZ4blUiL+8U6/dYdDc8fruPVX0NNHfYVgSMSI+i9CSk0KD7cb8PqNoHdtqOS3jzR4PSgv2Gv7NHhCRTNNiOQgNDi17za3pKMeRULbV5ujF+G63eB1TP7MOPf5U7GHbZhzdWphGMg4zMOMW7eXkFnWzq7holXC3btzgFxXW2++uJXgZXzQ07efFZxp9UPdD/bgz9f3lvdFNDfK1s7afHnlYTwQ42nLk2gx0YkqJtM/+43gTVzBDvmo1I6wLGPAN7MN8cl0xIOUK2In3xRRa8eq7cb+jPsiDwyzHeuv18EBlM9k9XgB0VNXQ8H73z5lSm0sK9/dH/XjU3+cs+X1bSMQwABvISrJqTS3Nxo0WTq0S8Cg7F+jikmNeBdzTdgqGs4LgLb3h0A6w+KyhUe3ltDSw/ZP9/O69JpLJPJZsPnAsvnVYXVpcY/WQ2Cp9ND+/nvFR5x6cE62j8jXaGd9Pqb/RtelH5rixRHArbJVRrG0esFj3noxkxKM5mH9KnAwNeNzC+lhg4b6foCOxf3sZOhhxMcqM7mYBpcHwDmfOPkNL1TTP/tpxwfvsJxIoA4a8PEVN14i98vWrC9nNYU2NQ+Vtj2aelkZoTiU4ENe7/YjsG4a1Ac/e2KJN3J/YQZ+gXbKqiO3X81VrC9W8RpD39gV0Urjf241O5W8eGh9D4LbUKaPiU18oMS+rra5lj9irlHkABmwWcCA9v+JH8EwAp8dX26bo5pxclGWrKjgvC2OgIq5uisLMLRlwCZMXRDMX3HlJkjwkJClJUG8lkLILBH5JcQ4k2BfTdk0Eim2cyATwR2igcN/S8Qx2/ngRkZ1JdT8lpYzbzdTRyQyoQlzgFV9db4ZPGnT45PMQn9Ow0SGjeM4KTmh5NSlQy11gAc7fYYVo1fsBNiBnwisGs2ldklHV8a3VvJKWkN+PPyFrr6kzIl2ajVR7RvmpJGUzid7wtgVWF1tCLrqQPQZl9dn6HLysxntY6XUODtq8wJYUwXGGotJm8uE+MkMO77WSVooZQ5Otg6o9lgJCiPzc4iX6RZYLdgv4wAyVJ4rygrkKG4qZMGrCsiEAZADufuCuZmybq61Wa6wCby6gLfJvDl9HS6PFk7HhnN7Ie7dRoPDImnP11mLpX1+vEGumNnpRi2oeOcnGiF/9TqjNgMMZrA6z9Mph9zXs8bmCqwfewdjWIvSWBGVrTiWYm/HY+Psa34PdsMdwE2Ya+JhhxE7qD1xYTkpbtYPj6FftRP7r1idWWuKiTEdMBADg+OcGzmTW2PqQKb/Vm5kq0VDw1DC4Mrg6NwZX302oYmhNPBmZl6XQz/tpCdHVRkeQI4VMdmawfIjpl0b1MxpgkMDHbae4VdXt5VHK9sm9pHcw7Gsb3YadBeaF3kaWYgfuslO47KrKmfntW6haH2uzm+/KtGfInVhVUmbJmreXF1Q9ME9ixzhUinC+i9SY5urzjH3SNc7IMzM2iAhxlfTOLAdcXkTTEqxgwiG44QKolluJNZ/ddUrP7JOdp9Zeer20wTWN81RYQSMqAXE6YVC7I1g+RL2HVWp1nUA3L3+xXs0Oxix8YTPLCnml44YmPaPbmGOOd2diZeY6dChh3lrTR+o405eZy1wpOsHTyBKQI7zGViYAcEUKDyokZCEmVkiLnMBOgu0F7uADb0MnaQ9CMu41dEiXfJvGzqrcHE5LGLD44UyGUX/7SHLr4pAnMsptFzNuYwqbvujI0gNT4l2j1RMwjaylURqfoKZq5ycV09m4oSPjggAp6qRVMEpvayMHn1i3KVXSNicOKIqqOYlQXiT90jaCzwckYBfu/DScYYfcf4SO8esI/HJLyi7BzYMAhCBsSmiFEFXuUakDs8qAExRWDp7AWhqgi4gWOvfGa1ZdjABZqz2PU3grVckAM7BxLZKIwkRcFzQn0Lr83VtUHc/oXtnKzCS3buVvaMZYx+Czs4ie+cIRwBZB6QgXAXXgushCmYzNWFXfdFMQ2KamRADSLUpyuMZkdi9wVHApMLG2kESBYenZWpOD1a/UGbgT4zggeZUXmeGRV4kdmrbWS23rl69lvNAmF/2gn2LN2F1wLDXq1ruRJKYMu1fWhiH3nOCMSqSEqK/rIjyt1A+wD7L7AnRp2D29hbe0PDW1t+skGpdpLd07ENKvkwsxKCs1zCVVL/4vNdYTinkZCZkOE+9kqxWgU6FvdVQgLxt5Gj1wJ7kQdwPw9EoHR+NqFy1xHIDyWwStBLn+Ac7BApmZ9lFxLg+riPUSBgR4CqBmin/uypYcemETheA1uekIUwgqqbcqTe4stH65XNHuIaeCHcrcP0WmDYbYKBAChYqVmYI8ZjdzTqzstUCpyVIawaRZxnd2HJH1A3oK3E6kAXx5oLyWldTSBoQdQ6IodjzUKdrUmiv5aWcRT6hmtSeQOhe9VVXgts0X8q6G3eHQnopVLeYDb8dgNs+LucN1ogKX1zVL1icrSO2Ba09EJq3ujLgmvp2UGULmCDhCu8PCaJfjbQOS7EPrRcFrrAMo4ff+5m/Oi1wOZtsxWeqJ0FMShxNMrMn2K3WCszfQvX48tq28U91EfQRXs4yTiES78H8+qEd2gEepQaSvVQsucKD7Gz8kdJ+qeN7UHkcltYoxe3ad3Da4GhhA3cIIA9U9unyQlf5JqQc9IDYrgGjuG0ACJ1MKdB1HXtWn3RjjoKVFz9gSfaCLAPbT2rKS1go+H0LTYHS6vfLVzCh4pmGeJWnumqIlNrAVlfWZvXApvGTDcqnYBJvBv/0ylygalVp2wgaDOSlUUaBIG62QD/iZBAr44QiVYkXF0BO1mwUmWA4yP2m2HzxCscQLsDrwWGnSiiBFsvdaBWnVoDRGXVNxousfoc9T3V7d58B3ELAlcPjsVFWn3hSMChkOFi1hDYxAhoOTey80Sb1wJTrxyoIDADMmCLzjsukoT92bs7biCYhErMW1vcpVpk93OnTe9FU1/nWw7gYQ9dAf82YqUGi5HBrBDqWABPdu38DwAA//8JFEdRAAAKyklEQVTtWwtwFdUZ/kMCISEJSSABkpAA8hYRLCAVFBUfVAtBAeXRUdvSOlQZHduptmOx4lTtg9oqo9WOj9oaBQoIikWmCAV0kLfyELAIeZCQF3mSN9D/u8nenLs5Z++5uXuTbGe/meTunj3n7L/n3/O/N+wyg4LAg7tL6bWTVZ4ZhsV1p5OzU6WzPfR5Kb18ormftAM3JkZ2o9J701WXfdr/wvdcwvcOFj26hdEJpnlQTITfqT4tqqepmwv89ls6Mo5enJQo7ReTlU0XmpqXfNnYeHp6XLy0n6oxLFiG/Xx/Gf3+aIVn/v5R4VQwb6D0Xk8dKqflX5ZLr4mNNYsyKCo8TGxSHt+w+RztLKpTXte58IcJifTT0XE6XWnVmQs0f0ex377LmQm/YmbIEPb2GW/zCr73Y5r3NgYFzbAVxyrpZ/vOG/NRHS94pGTB3/hvNf3wsxJvP9XBttv60439e6ou+7R/XdlIYzbmU8Ol9gmJ8Yk9aO+dKSQh1+c+xslj/Jwv8PP6w6obkuieQb3adDte0UijNpz1tr/L/eZL+nk7SA6CZtgHeTU065Mi79QHv5tC43ghzNhXWk8TN/kXJ89dk0BPjOltHq48/+2RCnriQJnyutWFQzNT6OqEtrSqxkz5VwF9VlyvuuxtP84idgSrBzM25NbQ7G2ta3WA1wovTSAImmEn+C0f+b7/t6bu4mWKeifbL21X8QJ+yQsZCMZ/mE+HzjcEMoSeZJH1TAD6I/dCE6WvzfN7D4hziHUZfscv1+PCy6WSRrKxRlvQDMNEolz+xVW96dnxCcb8Pr+TPiqgvSX+39A9dwygiX0jfcZanRxkZk3clE/8TmgBxtGRWSkEg0MXz7D+XcZ62B8yB0bT+zclS7tB/0EPAgN7RVDOnDRpP6tGWxg2gRdrf2nzG34tL/RuXnAZdB96bkYvWjMtSTaFsk00fpSdWi6APtCpC0iHQby7Cusu+h3y1pS+dP8VMdJ+fVbl0Pn6S55rd6VH07ob5YyVDm5ptIVh4mLhpa1YkE4xEd3a3PdwWQON/SC/TbusYT/L92sClO8zWZdWNTYviGxOtN3EBs1TV8stONUYWMF4Rh2cn59OCT3aPvtXbHCMFgyOldf2oYdGxOpM6dPHFoZ9nF9LM/5d6J140/R+dEdqlPdcPPgW65sDGvrGaqeK84X6OK+myWOJVjRYvwigY/GwWPrrt/tISVp5vJKW7mm1puH7DZcYJtLBQqMtDKtlkREtGBT3sUj4G4sGGV5n836xhnmPsY+ztfg8W42dBXgL0z4+R7s0fb1jmak0qndb6xD0T2b9/XmL/k6NDqe8uXJ/1d+z2sIw3ASmPUx8oCdbSiUcsegV0Vapg7nQB0Ua+gBzZV2fRAsGt/VpcC3U0InOGDRAokCyyHC6uomGrGu1MB8dFUcvTJRHQmTjxTbbGLaarZ97hSjAG9f1pe8PlSvfN3mX/UBzl0Envj0liRYN6Vim/YRDaa/4CaWJC3mYrc4x8XKf6pcHy+i5w83RIIxpj3427mUbw7Bz+q3O9Sr9sexPfWHhT+ma+CAU+xTuwvJxCdpRCeMBA/2Frlq0q5g25dVqD4UEgCSQAeuSuiaXylp04JDYCDp1V+DmvDG3bQzDhAg9IQRlYMut/ejWAXLj4xhbTVcKVpMxxup3anJPeo2VukpPWI3Vuba1oI4e+LSEYGjoIrZ7NzqWmUJp0fLg8YtfVdIje1uNDehk6Ob2wlaGnWyJehj+681sQm/l2KAKZs9f1c/cDqPmFTaLoyU60txX57yk/iLdv6uEPjqrv6uMeWFcgR4ZEJTPWJtL+TXN/htcnYJ70qQuj2y8rM1WhuEGd28vovU5zcYHznfM6E/X886QAVbYZI7P6UQ/xPEILlcvzCCb+OURV4nv5Yi30Dq+PSWKNt8iNzQwwZ95dz0q7C6rKJDWDbmT7QwzB3lHspl7ZFaqUvd8U9XEzvRZb45Ih3CIWYhbOwGHHo69LpJ7htNRFoV9I8OlQ87VXqThHGM1HHnEGHPmpin7SyeRNNrOMNxj7n+KaG126y7zl/fZfq6ObmfHWzdNglgl3lY7AT0DfaMD6K2dLDmsIv0L2GJ+ryVuiDnbk6yU0RIShp1lmT1sfR7BQgIgu5HKuIItJBU+ZB8OqYeWIapunvZAY4GWk7VcNKc+VGPgY0IvX5ekjkVu5DRKppBGGczZbDjVGBssQsIwEGU2KEazaIT/YUX0u6cv0MKd1hldML9yYbrH1A/24cXx1U2XKC4rhwyDSbxmHEeEhbFznEy3se5SoZgDAiNYFBpmPPoFkpRVzWu0h4xhuIEYxcf5j4fH0quT5bE2XAfWscFyH/tBRt1Dc2vr/5lp0bTx5sCj3K0zqI+QYIUOliGJdRbSJlY7C+O+s7WQNgvWJiL3iODbhZAy7AyHZJBcLBcCp3/ikMwjHJqxApKimRzqwq8ZCOkgtBMKILkIyWDGJE7FbGBmoWbFCk9/UU6/5j8D8Bf3cQmCXe4H5g0pw3ADvG1460ToxAchouDEisYL5rAKAYn3aM/xFs46wPgRoRv3A50wtgyASYj0DI2VB4ONfoH+hpxhIAhvHd4+Ef+clkxzMqLFJukxog8P7yklFLAgz4R8U6hQzxZPDOuxJq78Q3rnVY6qWFmCBh2o80C9h4j1vCNnc/bZbnQIw0A0aghRS2gABtM/OP6mUzUEyxG1j4fLG+hljnCEEkjjI82vmyHYxi7JzE8KfXTum6yzHlBEP4KlvcMYButrnsk/g5Gb1Y5Sr2Af2q7xcEXu3l5MjUKZnY6ODub+HcYwg0ikYJCKEYFiSjjXTsJvOF3yJKdNRAQb2BXnUh13OMMg3r7HvpYYBQBx0BVruSjFyrlWPURHtiOUNp/pN8c/X+LS7Ie5RDvU6HCGGQ9kTsUY7SiQQSGplYNt9O3o3z9y1e+yQ2U++go0QK8uaUdBTXvo7zSGgVjVBw2o2VsxIYHmcblbVwDCVijTxu4SgdoMlFurshFiX7uOO5VheIij5Y00h1MyMicZ4SwEeRcMjlFG++1aCPM8MJLWsW/1PDvSsujHnWlR9PepSdKSNvNcdp53OsOMh7H6uiWDd9ziYTFcIxJLeKtDCaRD3jpVTS8dryJ8bGEG0imwBDu6xsSgo8swDASdYpHz4O4SgrOswi2cC4OPhDe8H8f37ACiKjsK6ynrdDW9842vBSvODz0FSzCO0yudhS7FMGMRkB/Dx39rstWLh774SmYGR86RJEUIaGhchBYT8eEEagTxt5ujFKjKVQHZgR8Nj/HEP7HTOxtdkmHGomTzFyMrWTS9/nWVT7rCuK76RWQdYSx80RkpfPCABCk+nECtvD+gKnfpyFiPGJbVV/obH6rrXZphxkMjxreadxt2HXZEqNCdmYuPFJZwGkj3o8JQ0aKa1xEME4lHCdqW/DrWc7UeXafzRYk43nx8ZXx3ms56cTpXeOFDCaT/uzIcxzDzYqLkG6XQyL3hDxnfisbLhIJQ5OEgESEe4/kvgUXkAM5p4QP0QayPhrDe60rizvxssnPHM0z2UP/PbS7DHMZdl2Euwxy2Ag4j191hLsMctgIOI9fdYS7DHLYCDiPX3WEuwxy2Ag4j191hLsMctgIOI9fdYS7DHLYCDiPX3WEuwxy2Ag4j191hLsMctgIOI9fdYQ5j2P8Ayv/GMrDq4rwAAAAASUVORK5CYII=;imageBorder=default;dashed=1;" vertex="1" parent="1">
          <mxGeometry x="178.67000000000007" y="394" width="47.37" height="50" as="geometry" />
        </mxCell>
        <mxCell id="5jTDvBwV7yWnziTKpoq--22" value="" style="shape=image;verticalLabelPosition=bottom;labelBackgroundColor=default;verticalAlign=top;aspect=fixed;imageAspect=0;image=data:image/png,iVBORw0KGgoAAAANSUhEUgAAAGwAAAByCAYAAAC2ujQmAAAAAXNSR0IArs4c6QAAAJZlWElmTU0AKgAAAAgABAEaAAUAAAABAAAAPgEbAAUAAAABAAAARgEoAAMAAAABAAIAAIdpAAQAAAABAAAATgAAAAAAAACQAAAAAQAAAJAAAAABAASShgAHAAAAEgAAAISgAQADAAAAAQABAACgAgAEAAAAAQAAAGygAwAEAAAAAQAAAHIAAAAAQVNDSUkAAABTY3JlZW5zaG90SpNP0QAAAAlwSFlzAAAWJQAAFiUBSVIk8AAAAdZpVFh0WE1MOmNvbS5hZG9iZS54bXAAAAAAADx4OnhtcG1ldGEgeG1sbnM6eD0iYWRvYmU6bnM6bWV0YS8iIHg6eG1wdGs9IlhNUCBDb3JlIDYuMC4wIj4KICAgPHJkZjpSREYgeG1sbnM6cmRmPSJodHRwOi8vd3d3LnczLm9yZy8xOTk5LzAyLzIyLXJkZi1zeW50YXgtbnMjIj4KICAgICAgPHJkZjpEZXNjcmlwdGlvbiByZGY6YWJvdXQ9IiIKICAgICAgICAgICAgeG1sbnM6ZXhpZj0iaHR0cDovL25zLmFkb2JlLmNvbS9leGlmLzEuMC8iPgogICAgICAgICA8ZXhpZjpQaXhlbFlEaW1lbnNpb24+MTE0PC9leGlmOlBpeGVsWURpbWVuc2lvbj4KICAgICAgICAgPGV4aWY6UGl4ZWxYRGltZW5zaW9uPjEwODwvZXhpZjpQaXhlbFhEaW1lbnNpb24+CiAgICAgICAgIDxleGlmOlVzZXJDb21tZW50PlNjcmVlbnNob3Q8L2V4aWY6VXNlckNvbW1lbnQ+CiAgICAgIDwvcmRmOkRlc2NyaXB0aW9uPgogICA8L3JkZjpSREY+CjwveDp4bXBtZXRhPgqpEfr/AAAAHGlET1QAAAACAAAAAAAAADkAAAAoAAAAOQAAADkAAAuFM8yaVQAAC1FJREFUeAHsXAmQFNUZ/nfZgz3ZZS/2RlhATiUoQkBRDkEU5BZJgRo1iSbeibFMNB6pMkpMNJKYeMUygAe364EgEYggiIASDpFz2ZO92fvE/F+Ht9Mz87qnZ6Zndrpqvqqpnn3zuvv1+/v9x/f/b0O+Z1AQlpmBkKDALCMrZaBBgVlLXhQUWFBgFpsBiw03uMKCArPYDFhsuMEVFhSYxWbAYsMNrrCgwCw2AxYbbnCFBQVmsRmw2HCDKywoMIvNgMWGa/kVVtV6nk43dNCphnblWN5ynmrb/v85136eQlggiRGhlMCfxMhQyojqQRfFhlO/uDA+hlHPHuhhHVhOYGXNnbS5tJm2lLYon6KmDo9nO5RlNSopkian9+RPFI1LiaTIABegJQQGIa041Ujvnm6kPZWtHgvI1YmxYaE0MzuKbr4ohqZmRFE4JBpgCGiBbSpppmcOnqOtZS1uTVtyZA9F/SWxCuzkfHoNq83qtk6q5qNRQIXe2j+WHh3ei1J69jB6ms/7BaTANhY30xPf1NJuF6tpcK9wui4zioYkRFAe26S8uHDKjNaf3ILGDjpex5/6dvpvTRvlFzXTGW7TQhSryF9cHE8PD4snvAjdjYASGJyHu3dX0ccsMC1AQNP5c2N2NGXHhGl1c6v9yLl2+ojvmV/YRNvOyldzTFgIPXFJAv1yaC+3rm1254AR2NMHaunxr2ulzwfh3JoXq9gVvPG+xDn2MNez4F76to72VrU53Qqr+h9jk+jK1J5Ov/mjodsFdrSuneZuLadDte1Oz3tp7whaNjqJxqVGOv3mj4ZVBY30yL4aOllvrzLxytw7OJ6e/UGi373KbhXY37+rp7t2VTnNfR+OlZ4blUiL+8U6/dYdDc8fruPVX0NNHfYVgSMSI+i9CSk0KD7cb8PqNoHdtqOS3jzR4PSgv2Gv7NHhCRTNNiOQgNDi17za3pKMeRULbV5ujF+G63eB1TP7MOPf5U7GHbZhzdWphGMg4zMOMW7eXkFnWzq7holXC3btzgFxXW2++uJXgZXzQ07efFZxp9UPdD/bgz9f3lvdFNDfK1s7afHnlYTwQ42nLk2gx0YkqJtM/+43gTVzBDvmo1I6wLGPAN7MN8cl0xIOUK2In3xRRa8eq7cb+jPsiDwyzHeuv18EBlM9k9XgB0VNXQ8H73z5lSm0sK9/dH/XjU3+cs+X1bSMQwABvISrJqTS3Nxo0WTq0S8Cg7F+jikmNeBdzTdgqGs4LgLb3h0A6w+KyhUe3ltDSw/ZP9/O69JpLJPJZsPnAsvnVYXVpcY/WQ2Cp9ND+/nvFR5x6cE62j8jXaGd9Pqb/RtelH5rixRHArbJVRrG0esFj3noxkxKM5mH9KnAwNeNzC+lhg4b6foCOxf3sZOhhxMcqM7mYBpcHwDmfOPkNL1TTP/tpxwfvsJxIoA4a8PEVN14i98vWrC9nNYU2NQ+Vtj2aelkZoTiU4ENe7/YjsG4a1Ac/e2KJN3J/YQZ+gXbKqiO3X81VrC9W8RpD39gV0Urjf241O5W8eGh9D4LbUKaPiU18oMS+rra5lj9irlHkABmwWcCA9v+JH8EwAp8dX26bo5pxclGWrKjgvC2OgIq5uisLMLRlwCZMXRDMX3HlJkjwkJClJUG8lkLILBH5JcQ4k2BfTdk0Eim2cyATwR2igcN/S8Qx2/ngRkZ1JdT8lpYzbzdTRyQyoQlzgFV9db4ZPGnT45PMQn9Ow0SGjeM4KTmh5NSlQy11gAc7fYYVo1fsBNiBnwisGs2ldklHV8a3VvJKWkN+PPyFrr6kzIl2ajVR7RvmpJGUzid7wtgVWF1tCLrqQPQZl9dn6HLysxntY6XUODtq8wJYUwXGGotJm8uE+MkMO77WSVooZQ5Otg6o9lgJCiPzc4iX6RZYLdgv4wAyVJ4rygrkKG4qZMGrCsiEAZADufuCuZmybq61Wa6wCby6gLfJvDl9HS6PFk7HhnN7Ie7dRoPDImnP11mLpX1+vEGumNnpRi2oeOcnGiF/9TqjNgMMZrA6z9Mph9zXs8bmCqwfewdjWIvSWBGVrTiWYm/HY+Psa34PdsMdwE2Ya+JhhxE7qD1xYTkpbtYPj6FftRP7r1idWWuKiTEdMBADg+OcGzmTW2PqQKb/Vm5kq0VDw1DC4Mrg6NwZX302oYmhNPBmZl6XQz/tpCdHVRkeQI4VMdmawfIjpl0b1MxpgkMDHbae4VdXt5VHK9sm9pHcw7Gsb3YadBeaF3kaWYgfuslO47KrKmfntW6haH2uzm+/KtGfInVhVUmbJmreXF1Q9ME9ixzhUinC+i9SY5urzjH3SNc7IMzM2iAhxlfTOLAdcXkTTEqxgwiG44QKolluJNZ/ddUrP7JOdp9Zeer20wTWN81RYQSMqAXE6YVC7I1g+RL2HVWp1nUA3L3+xXs0Oxix8YTPLCnml44YmPaPbmGOOd2diZeY6dChh3lrTR+o405eZy1wpOsHTyBKQI7zGViYAcEUKDyokZCEmVkiLnMBOgu0F7uADb0MnaQ9CMu41dEiXfJvGzqrcHE5LGLD44UyGUX/7SHLr4pAnMsptFzNuYwqbvujI0gNT4l2j1RMwjaylURqfoKZq5ycV09m4oSPjggAp6qRVMEpvayMHn1i3KVXSNicOKIqqOYlQXiT90jaCzwckYBfu/DScYYfcf4SO8esI/HJLyi7BzYMAhCBsSmiFEFXuUakDs8qAExRWDp7AWhqgi4gWOvfGa1ZdjABZqz2PU3grVckAM7BxLZKIwkRcFzQn0Lr83VtUHc/oXtnKzCS3buVvaMZYx+Czs4ie+cIRwBZB6QgXAXXgushCmYzNWFXfdFMQ2KamRADSLUpyuMZkdi9wVHApMLG2kESBYenZWpOD1a/UGbgT4zggeZUXmeGRV4kdmrbWS23rl69lvNAmF/2gn2LN2F1wLDXq1ruRJKYMu1fWhiH3nOCMSqSEqK/rIjyt1A+wD7L7AnRp2D29hbe0PDW1t+skGpdpLd07ENKvkwsxKCs1zCVVL/4vNdYTinkZCZkOE+9kqxWgU6FvdVQgLxt5Gj1wJ7kQdwPw9EoHR+NqFy1xHIDyWwStBLn+Ac7BApmZ9lFxLg+riPUSBgR4CqBmin/uypYcemETheA1uekIUwgqqbcqTe4stH65XNHuIaeCHcrcP0WmDYbYKBAChYqVmYI8ZjdzTqzstUCpyVIawaRZxnd2HJH1A3oK3E6kAXx5oLyWldTSBoQdQ6IodjzUKdrUmiv5aWcRT6hmtSeQOhe9VVXgts0X8q6G3eHQnopVLeYDb8dgNs+LucN1ogKX1zVL1icrSO2Ba09EJq3ujLgmvp2UGULmCDhCu8PCaJfjbQOS7EPrRcFrrAMo4ff+5m/Oi1wOZtsxWeqJ0FMShxNMrMn2K3WCszfQvX48tq28U91EfQRXs4yTiES78H8+qEd2gEepQaSvVQsucKD7Gz8kdJ+qeN7UHkcltYoxe3ad3Da4GhhA3cIIA9U9unyQlf5JqQc9IDYrgGjuG0ACJ1MKdB1HXtWn3RjjoKVFz9gSfaCLAPbT2rKS1go+H0LTYHS6vfLVzCh4pmGeJWnumqIlNrAVlfWZvXApvGTDcqnYBJvBv/0ylygalVp2wgaDOSlUUaBIG62QD/iZBAr44QiVYkXF0BO1mwUmWA4yP2m2HzxCscQLsDrwWGnSiiBFsvdaBWnVoDRGXVNxousfoc9T3V7d58B3ELAlcPjsVFWn3hSMChkOFi1hDYxAhoOTey80Sb1wJTrxyoIDADMmCLzjsukoT92bs7biCYhErMW1vcpVpk93OnTe9FU1/nWw7gYQ9dAf82YqUGi5HBrBDqWABPdu38DwAA//8JFEdRAAAKyklEQVTtWwtwFdUZ/kMCISEJSSABkpAA8hYRLCAVFBUfVAtBAeXRUdvSOlQZHduptmOx4lTtg9oqo9WOj9oaBQoIikWmCAV0kLfyELAIeZCQF3mSN9D/u8nenLs5Z++5uXuTbGe/meTunj3n7L/n3/O/N+wyg4LAg7tL6bWTVZ4ZhsV1p5OzU6WzPfR5Kb18ormftAM3JkZ2o9J701WXfdr/wvdcwvcOFj26hdEJpnlQTITfqT4tqqepmwv89ls6Mo5enJQo7ReTlU0XmpqXfNnYeHp6XLy0n6oxLFiG/Xx/Gf3+aIVn/v5R4VQwb6D0Xk8dKqflX5ZLr4mNNYsyKCo8TGxSHt+w+RztLKpTXte58IcJifTT0XE6XWnVmQs0f0ex377LmQm/YmbIEPb2GW/zCr73Y5r3NgYFzbAVxyrpZ/vOG/NRHS94pGTB3/hvNf3wsxJvP9XBttv60439e6ou+7R/XdlIYzbmU8Ol9gmJ8Yk9aO+dKSQh1+c+xslj/Jwv8PP6w6obkuieQb3adDte0UijNpz1tr/L/eZL+nk7SA6CZtgHeTU065Mi79QHv5tC43ghzNhXWk8TN/kXJ89dk0BPjOltHq48/+2RCnriQJnyutWFQzNT6OqEtrSqxkz5VwF9VlyvuuxtP84idgSrBzM25NbQ7G2ta3WA1wovTSAImmEn+C0f+b7/t6bu4mWKeifbL21X8QJ+yQsZCMZ/mE+HzjcEMoSeZJH1TAD6I/dCE6WvzfN7D4hziHUZfscv1+PCy6WSRrKxRlvQDMNEolz+xVW96dnxCcb8Pr+TPiqgvSX+39A9dwygiX0jfcZanRxkZk3clE/8TmgBxtGRWSkEg0MXz7D+XcZ62B8yB0bT+zclS7tB/0EPAgN7RVDOnDRpP6tGWxg2gRdrf2nzG34tL/RuXnAZdB96bkYvWjMtSTaFsk00fpSdWi6APtCpC0iHQby7Cusu+h3y1pS+dP8VMdJ+fVbl0Pn6S55rd6VH07ob5YyVDm5ptIVh4mLhpa1YkE4xEd3a3PdwWQON/SC/TbusYT/L92sClO8zWZdWNTYviGxOtN3EBs1TV8stONUYWMF4Rh2cn59OCT3aPvtXbHCMFgyOldf2oYdGxOpM6dPHFoZ9nF9LM/5d6J140/R+dEdqlPdcPPgW65sDGvrGaqeK84X6OK+myWOJVjRYvwigY/GwWPrrt/tISVp5vJKW7mm1puH7DZcYJtLBQqMtDKtlkREtGBT3sUj4G4sGGV5n836xhnmPsY+ztfg8W42dBXgL0z4+R7s0fb1jmak0qndb6xD0T2b9/XmL/k6NDqe8uXJ/1d+z2sIw3ASmPUx8oCdbSiUcsegV0Vapg7nQB0Ua+gBzZV2fRAsGt/VpcC3U0InOGDRAokCyyHC6uomGrGu1MB8dFUcvTJRHQmTjxTbbGLaarZ97hSjAG9f1pe8PlSvfN3mX/UBzl0Envj0liRYN6Vim/YRDaa/4CaWJC3mYrc4x8XKf6pcHy+i5w83RIIxpj3427mUbw7Bz+q3O9Sr9sexPfWHhT+ma+CAU+xTuwvJxCdpRCeMBA/2Frlq0q5g25dVqD4UEgCSQAeuSuiaXylp04JDYCDp1V+DmvDG3bQzDhAg9IQRlYMut/ejWAXLj4xhbTVcKVpMxxup3anJPeo2VukpPWI3Vuba1oI4e+LSEYGjoIrZ7NzqWmUJp0fLg8YtfVdIje1uNDehk6Ob2wlaGnWyJehj+681sQm/l2KAKZs9f1c/cDqPmFTaLoyU60txX57yk/iLdv6uEPjqrv6uMeWFcgR4ZEJTPWJtL+TXN/htcnYJ70qQuj2y8rM1WhuEGd28vovU5zcYHznfM6E/X886QAVbYZI7P6UQ/xPEILlcvzCCb+OURV4nv5Yi30Dq+PSWKNt8iNzQwwZ95dz0q7C6rKJDWDbmT7QwzB3lHspl7ZFaqUvd8U9XEzvRZb45Ih3CIWYhbOwGHHo69LpJ7htNRFoV9I8OlQ87VXqThHGM1HHnEGHPmpin7SyeRNNrOMNxj7n+KaG126y7zl/fZfq6ObmfHWzdNglgl3lY7AT0DfaMD6K2dLDmsIv0L2GJ+ryVuiDnbk6yU0RIShp1lmT1sfR7BQgIgu5HKuIItJBU+ZB8OqYeWIapunvZAY4GWk7VcNKc+VGPgY0IvX5ekjkVu5DRKppBGGczZbDjVGBssQsIwEGU2KEazaIT/YUX0u6cv0MKd1hldML9yYbrH1A/24cXx1U2XKC4rhwyDSbxmHEeEhbFznEy3se5SoZgDAiNYFBpmPPoFkpRVzWu0h4xhuIEYxcf5j4fH0quT5bE2XAfWscFyH/tBRt1Dc2vr/5lp0bTx5sCj3K0zqI+QYIUOliGJdRbSJlY7C+O+s7WQNgvWJiL3iODbhZAy7AyHZJBcLBcCp3/ikMwjHJqxApKimRzqwq8ZCOkgtBMKILkIyWDGJE7FbGBmoWbFCk9/UU6/5j8D8Bf3cQmCXe4H5g0pw3ADvG1460ToxAchouDEisYL5rAKAYn3aM/xFs46wPgRoRv3A50wtgyASYj0DI2VB4ONfoH+hpxhIAhvHd4+Ef+clkxzMqLFJukxog8P7yklFLAgz4R8U6hQzxZPDOuxJq78Q3rnVY6qWFmCBh2o80C9h4j1vCNnc/bZbnQIw0A0aghRS2gABtM/OP6mUzUEyxG1j4fLG+hljnCEEkjjI82vmyHYxi7JzE8KfXTum6yzHlBEP4KlvcMYButrnsk/g5Gb1Y5Sr2Af2q7xcEXu3l5MjUKZnY6ODub+HcYwg0ikYJCKEYFiSjjXTsJvOF3yJKdNRAQb2BXnUh13OMMg3r7HvpYYBQBx0BVruSjFyrlWPURHtiOUNp/pN8c/X+LS7Ie5RDvU6HCGGQ9kTsUY7SiQQSGplYNt9O3o3z9y1e+yQ2U++go0QK8uaUdBTXvo7zSGgVjVBw2o2VsxIYHmcblbVwDCVijTxu4SgdoMlFurshFiX7uOO5VheIij5Y00h1MyMicZ4SwEeRcMjlFG++1aCPM8MJLWsW/1PDvSsujHnWlR9PepSdKSNvNcdp53OsOMh7H6uiWDd9ziYTFcIxJLeKtDCaRD3jpVTS8dryJ8bGEG0imwBDu6xsSgo8swDASdYpHz4O4SgrOswi2cC4OPhDe8H8f37ACiKjsK6ynrdDW9842vBSvODz0FSzCO0yudhS7FMGMRkB/Dx39rstWLh774SmYGR86RJEUIaGhchBYT8eEEagTxt5ujFKjKVQHZgR8Nj/HEP7HTOxtdkmHGomTzFyMrWTS9/nWVT7rCuK76RWQdYSx80RkpfPCABCk+nECtvD+gKnfpyFiPGJbVV/obH6rrXZphxkMjxreadxt2HXZEqNCdmYuPFJZwGkj3o8JQ0aKa1xEME4lHCdqW/DrWc7UeXafzRYk43nx8ZXx3ms56cTpXeOFDCaT/uzIcxzDzYqLkG6XQyL3hDxnfisbLhIJQ5OEgESEe4/kvgUXkAM5p4QP0QayPhrDe60rizvxssnPHM0z2UP/PbS7DHMZdl2Euwxy2Ag4j191hLsMctgIOI9fdYS7DHLYCDiPX3WEuwxy2Ag4j191hLsMctgIOI9fdYS7DHLYCDiPX3WEuwxy2Ag4j191hLsMctgIOI9fdYQ5j2P8Ayv/GMrDq4rwAAAAASUVORK5CYII=;imageBorder=default;dashed=1;" vertex="1" parent="1">
          <mxGeometry x="64.99000000000004" y="394" width="47.37" height="50" as="geometry" />
        </mxCell>
        <mxCell id="5jTDvBwV7yWnziTKpoq--23" value="" style="shape=image;verticalLabelPosition=bottom;labelBackgroundColor=default;verticalAlign=top;aspect=fixed;imageAspect=0;image=data:image/png,iVBORw0KGgoAAAANSUhEUgAAAGwAAAByCAYAAAC2ujQmAAAAAXNSR0IArs4c6QAAAJZlWElmTU0AKgAAAAgABAEaAAUAAAABAAAAPgEbAAUAAAABAAAARgEoAAMAAAABAAIAAIdpAAQAAAABAAAATgAAAAAAAACQAAAAAQAAAJAAAAABAASShgAHAAAAEgAAAISgAQADAAAAAQABAACgAgAEAAAAAQAAAGygAwAEAAAAAQAAAHIAAAAAQVNDSUkAAABTY3JlZW5zaG90SpNP0QAAAAlwSFlzAAAWJQAAFiUBSVIk8AAAAdZpVFh0WE1MOmNvbS5hZG9iZS54bXAAAAAAADx4OnhtcG1ldGEgeG1sbnM6eD0iYWRvYmU6bnM6bWV0YS8iIHg6eG1wdGs9IlhNUCBDb3JlIDYuMC4wIj4KICAgPHJkZjpSREYgeG1sbnM6cmRmPSJodHRwOi8vd3d3LnczLm9yZy8xOTk5LzAyLzIyLXJkZi1zeW50YXgtbnMjIj4KICAgICAgPHJkZjpEZXNjcmlwdGlvbiByZGY6YWJvdXQ9IiIKICAgICAgICAgICAgeG1sbnM6ZXhpZj0iaHR0cDovL25zLmFkb2JlLmNvbS9leGlmLzEuMC8iPgogICAgICAgICA8ZXhpZjpQaXhlbFlEaW1lbnNpb24+MTE0PC9leGlmOlBpeGVsWURpbWVuc2lvbj4KICAgICAgICAgPGV4aWY6UGl4ZWxYRGltZW5zaW9uPjEwODwvZXhpZjpQaXhlbFhEaW1lbnNpb24+CiAgICAgICAgIDxleGlmOlVzZXJDb21tZW50PlNjcmVlbnNob3Q8L2V4aWY6VXNlckNvbW1lbnQ+CiAgICAgIDwvcmRmOkRlc2NyaXB0aW9uPgogICA8L3JkZjpSREY+CjwveDp4bXBtZXRhPgqpEfr/AAAAHGlET1QAAAACAAAAAAAAADkAAAAoAAAAOQAAADkAAAuFM8yaVQAAC1FJREFUeAHsXAmQFNUZ/nfZgz3ZZS/2RlhATiUoQkBRDkEU5BZJgRo1iSbeibFMNB6pMkpMNJKYeMUygAe364EgEYggiIASDpFz2ZO92fvE/F+Ht9Mz87qnZ6Zndrpqvqqpnn3zuvv1+/v9x/f/b0O+Z1AQlpmBkKDALCMrZaBBgVlLXhQUWFBgFpsBiw03uMKCArPYDFhsuMEVFhSYxWbAYsMNrrCgwCw2AxYbbnCFBQVmsRmw2HCDKywoMIvNgMWGa/kVVtV6nk43dNCphnblWN5ynmrb/v85136eQlggiRGhlMCfxMhQyojqQRfFhlO/uDA+hlHPHuhhHVhOYGXNnbS5tJm2lLYon6KmDo9nO5RlNSopkian9+RPFI1LiaTIABegJQQGIa041Ujvnm6kPZWtHgvI1YmxYaE0MzuKbr4ohqZmRFE4JBpgCGiBbSpppmcOnqOtZS1uTVtyZA9F/SWxCuzkfHoNq83qtk6q5qNRQIXe2j+WHh3ei1J69jB6ms/7BaTANhY30xPf1NJuF6tpcK9wui4zioYkRFAe26S8uHDKjNaf3ILGDjpex5/6dvpvTRvlFzXTGW7TQhSryF9cHE8PD4snvAjdjYASGJyHu3dX0ccsMC1AQNP5c2N2NGXHhGl1c6v9yLl2+ojvmV/YRNvOyldzTFgIPXFJAv1yaC+3rm1254AR2NMHaunxr2ulzwfh3JoXq9gVvPG+xDn2MNez4F76to72VrU53Qqr+h9jk+jK1J5Ov/mjodsFdrSuneZuLadDte1Oz3tp7whaNjqJxqVGOv3mj4ZVBY30yL4aOllvrzLxytw7OJ6e/UGi373KbhXY37+rp7t2VTnNfR+OlZ4blUiL+8U6/dYdDc8fruPVX0NNHfYVgSMSI+i9CSk0KD7cb8PqNoHdtqOS3jzR4PSgv2Gv7NHhCRTNNiOQgNDi17za3pKMeRULbV5ujF+G63eB1TP7MOPf5U7GHbZhzdWphGMg4zMOMW7eXkFnWzq7holXC3btzgFxXW2++uJXgZXzQ07efFZxp9UPdD/bgz9f3lvdFNDfK1s7afHnlYTwQ42nLk2gx0YkqJtM/+43gTVzBDvmo1I6wLGPAN7MN8cl0xIOUK2In3xRRa8eq7cb+jPsiDwyzHeuv18EBlM9k9XgB0VNXQ8H73z5lSm0sK9/dH/XjU3+cs+X1bSMQwABvISrJqTS3Nxo0WTq0S8Cg7F+jikmNeBdzTdgqGs4LgLb3h0A6w+KyhUe3ltDSw/ZP9/O69JpLJPJZsPnAsvnVYXVpcY/WQ2Cp9ND+/nvFR5x6cE62j8jXaGd9Pqb/RtelH5rixRHArbJVRrG0esFj3noxkxKM5mH9KnAwNeNzC+lhg4b6foCOxf3sZOhhxMcqM7mYBpcHwDmfOPkNL1TTP/tpxwfvsJxIoA4a8PEVN14i98vWrC9nNYU2NQ+Vtj2aelkZoTiU4ENe7/YjsG4a1Ac/e2KJN3J/YQZ+gXbKqiO3X81VrC9W8RpD39gV0Urjf241O5W8eGh9D4LbUKaPiU18oMS+rra5lj9irlHkABmwWcCA9v+JH8EwAp8dX26bo5pxclGWrKjgvC2OgIq5uisLMLRlwCZMXRDMX3HlJkjwkJClJUG8lkLILBH5JcQ4k2BfTdk0Eim2cyATwR2igcN/S8Qx2/ngRkZ1JdT8lpYzbzdTRyQyoQlzgFV9db4ZPGnT45PMQn9Ow0SGjeM4KTmh5NSlQy11gAc7fYYVo1fsBNiBnwisGs2ldklHV8a3VvJKWkN+PPyFrr6kzIl2ajVR7RvmpJGUzid7wtgVWF1tCLrqQPQZl9dn6HLysxntY6XUODtq8wJYUwXGGotJm8uE+MkMO77WSVooZQ5Otg6o9lgJCiPzc4iX6RZYLdgv4wAyVJ4rygrkKG4qZMGrCsiEAZADufuCuZmybq61Wa6wCby6gLfJvDl9HS6PFk7HhnN7Ie7dRoPDImnP11mLpX1+vEGumNnpRi2oeOcnGiF/9TqjNgMMZrA6z9Mph9zXs8bmCqwfewdjWIvSWBGVrTiWYm/HY+Psa34PdsMdwE2Ya+JhhxE7qD1xYTkpbtYPj6FftRP7r1idWWuKiTEdMBADg+OcGzmTW2PqQKb/Vm5kq0VDw1DC4Mrg6NwZX302oYmhNPBmZl6XQz/tpCdHVRkeQI4VMdmawfIjpl0b1MxpgkMDHbae4VdXt5VHK9sm9pHcw7Gsb3YadBeaF3kaWYgfuslO47KrKmfntW6haH2uzm+/KtGfInVhVUmbJmreXF1Q9ME9ixzhUinC+i9SY5urzjH3SNc7IMzM2iAhxlfTOLAdcXkTTEqxgwiG44QKolluJNZ/ddUrP7JOdp9Zeer20wTWN81RYQSMqAXE6YVC7I1g+RL2HVWp1nUA3L3+xXs0Oxix8YTPLCnml44YmPaPbmGOOd2diZeY6dChh3lrTR+o405eZy1wpOsHTyBKQI7zGViYAcEUKDyokZCEmVkiLnMBOgu0F7uADb0MnaQ9CMu41dEiXfJvGzqrcHE5LGLD44UyGUX/7SHLr4pAnMsptFzNuYwqbvujI0gNT4l2j1RMwjaylURqfoKZq5ycV09m4oSPjggAp6qRVMEpvayMHn1i3KVXSNicOKIqqOYlQXiT90jaCzwckYBfu/DScYYfcf4SO8esI/HJLyi7BzYMAhCBsSmiFEFXuUakDs8qAExRWDp7AWhqgi4gWOvfGa1ZdjABZqz2PU3grVckAM7BxLZKIwkRcFzQn0Lr83VtUHc/oXtnKzCS3buVvaMZYx+Czs4ie+cIRwBZB6QgXAXXgushCmYzNWFXfdFMQ2KamRADSLUpyuMZkdi9wVHApMLG2kESBYenZWpOD1a/UGbgT4zggeZUXmeGRV4kdmrbWS23rl69lvNAmF/2gn2LN2F1wLDXq1ruRJKYMu1fWhiH3nOCMSqSEqK/rIjyt1A+wD7L7AnRp2D29hbe0PDW1t+skGpdpLd07ENKvkwsxKCs1zCVVL/4vNdYTinkZCZkOE+9kqxWgU6FvdVQgLxt5Gj1wJ7kQdwPw9EoHR+NqFy1xHIDyWwStBLn+Ac7BApmZ9lFxLg+riPUSBgR4CqBmin/uypYcemETheA1uekIUwgqqbcqTe4stH65XNHuIaeCHcrcP0WmDYbYKBAChYqVmYI8ZjdzTqzstUCpyVIawaRZxnd2HJH1A3oK3E6kAXx5oLyWldTSBoQdQ6IodjzUKdrUmiv5aWcRT6hmtSeQOhe9VVXgts0X8q6G3eHQnopVLeYDb8dgNs+LucN1ogKX1zVL1icrSO2Ba09EJq3ujLgmvp2UGULmCDhCu8PCaJfjbQOS7EPrRcFrrAMo4ff+5m/Oi1wOZtsxWeqJ0FMShxNMrMn2K3WCszfQvX48tq28U91EfQRXs4yTiES78H8+qEd2gEepQaSvVQsucKD7Gz8kdJ+qeN7UHkcltYoxe3ad3Da4GhhA3cIIA9U9unyQlf5JqQc9IDYrgGjuG0ACJ1MKdB1HXtWn3RjjoKVFz9gSfaCLAPbT2rKS1go+H0LTYHS6vfLVzCh4pmGeJWnumqIlNrAVlfWZvXApvGTDcqnYBJvBv/0ylygalVp2wgaDOSlUUaBIG62QD/iZBAr44QiVYkXF0BO1mwUmWA4yP2m2HzxCscQLsDrwWGnSiiBFsvdaBWnVoDRGXVNxousfoc9T3V7d58B3ELAlcPjsVFWn3hSMChkOFi1hDYxAhoOTey80Sb1wJTrxyoIDADMmCLzjsukoT92bs7biCYhErMW1vcpVpk93OnTe9FU1/nWw7gYQ9dAf82YqUGi5HBrBDqWABPdu38DwAA//8JFEdRAAAKyklEQVTtWwtwFdUZ/kMCISEJSSABkpAA8hYRLCAVFBUfVAtBAeXRUdvSOlQZHduptmOx4lTtg9oqo9WOj9oaBQoIikWmCAV0kLfyELAIeZCQF3mSN9D/u8nenLs5Z++5uXuTbGe/meTunj3n7L/n3/O/N+wyg4LAg7tL6bWTVZ4ZhsV1p5OzU6WzPfR5Kb18ormftAM3JkZ2o9J701WXfdr/wvdcwvcOFj26hdEJpnlQTITfqT4tqqepmwv89ls6Mo5enJQo7ReTlU0XmpqXfNnYeHp6XLy0n6oxLFiG/Xx/Gf3+aIVn/v5R4VQwb6D0Xk8dKqflX5ZLr4mNNYsyKCo8TGxSHt+w+RztLKpTXte58IcJifTT0XE6XWnVmQs0f0ex377LmQm/YmbIEPb2GW/zCr73Y5r3NgYFzbAVxyrpZ/vOG/NRHS94pGTB3/hvNf3wsxJvP9XBttv60439e6ou+7R/XdlIYzbmU8Ol9gmJ8Yk9aO+dKSQh1+c+xslj/Jwv8PP6w6obkuieQb3adDte0UijNpz1tr/L/eZL+nk7SA6CZtgHeTU065Mi79QHv5tC43ghzNhXWk8TN/kXJ89dk0BPjOltHq48/+2RCnriQJnyutWFQzNT6OqEtrSqxkz5VwF9VlyvuuxtP84idgSrBzM25NbQ7G2ta3WA1wovTSAImmEn+C0f+b7/t6bu4mWKeifbL21X8QJ+yQsZCMZ/mE+HzjcEMoSeZJH1TAD6I/dCE6WvzfN7D4hziHUZfscv1+PCy6WSRrKxRlvQDMNEolz+xVW96dnxCcb8Pr+TPiqgvSX+39A9dwygiX0jfcZanRxkZk3clE/8TmgBxtGRWSkEg0MXz7D+XcZ62B8yB0bT+zclS7tB/0EPAgN7RVDOnDRpP6tGWxg2gRdrf2nzG34tL/RuXnAZdB96bkYvWjMtSTaFsk00fpSdWi6APtCpC0iHQby7Cusu+h3y1pS+dP8VMdJ+fVbl0Pn6S55rd6VH07ob5YyVDm5ptIVh4mLhpa1YkE4xEd3a3PdwWQON/SC/TbusYT/L92sClO8zWZdWNTYviGxOtN3EBs1TV8stONUYWMF4Rh2cn59OCT3aPvtXbHCMFgyOldf2oYdGxOpM6dPHFoZ9nF9LM/5d6J140/R+dEdqlPdcPPgW65sDGvrGaqeK84X6OK+myWOJVjRYvwigY/GwWPrrt/tISVp5vJKW7mm1puH7DZcYJtLBQqMtDKtlkREtGBT3sUj4G4sGGV5n836xhnmPsY+ztfg8W42dBXgL0z4+R7s0fb1jmak0qndb6xD0T2b9/XmL/k6NDqe8uXJ/1d+z2sIw3ASmPUx8oCdbSiUcsegV0Vapg7nQB0Ua+gBzZV2fRAsGt/VpcC3U0InOGDRAokCyyHC6uomGrGu1MB8dFUcvTJRHQmTjxTbbGLaarZ97hSjAG9f1pe8PlSvfN3mX/UBzl0Envj0liRYN6Vim/YRDaa/4CaWJC3mYrc4x8XKf6pcHy+i5w83RIIxpj3427mUbw7Bz+q3O9Sr9sexPfWHhT+ma+CAU+xTuwvJxCdpRCeMBA/2Frlq0q5g25dVqD4UEgCSQAeuSuiaXylp04JDYCDp1V+DmvDG3bQzDhAg9IQRlYMut/ejWAXLj4xhbTVcKVpMxxup3anJPeo2VukpPWI3Vuba1oI4e+LSEYGjoIrZ7NzqWmUJp0fLg8YtfVdIje1uNDehk6Ob2wlaGnWyJehj+681sQm/l2KAKZs9f1c/cDqPmFTaLoyU60txX57yk/iLdv6uEPjqrv6uMeWFcgR4ZEJTPWJtL+TXN/htcnYJ70qQuj2y8rM1WhuEGd28vovU5zcYHznfM6E/X886QAVbYZI7P6UQ/xPEILlcvzCCb+OURV4nv5Yi30Dq+PSWKNt8iNzQwwZ95dz0q7C6rKJDWDbmT7QwzB3lHspl7ZFaqUvd8U9XEzvRZb45Ih3CIWYhbOwGHHo69LpJ7htNRFoV9I8OlQ87VXqThHGM1HHnEGHPmpin7SyeRNNrOMNxj7n+KaG126y7zl/fZfq6ObmfHWzdNglgl3lY7AT0DfaMD6K2dLDmsIv0L2GJ+ryVuiDnbk6yU0RIShp1lmT1sfR7BQgIgu5HKuIItJBU+ZB8OqYeWIapunvZAY4GWk7VcNKc+VGPgY0IvX5ekjkVu5DRKppBGGczZbDjVGBssQsIwEGU2KEazaIT/YUX0u6cv0MKd1hldML9yYbrH1A/24cXx1U2XKC4rhwyDSbxmHEeEhbFznEy3se5SoZgDAiNYFBpmPPoFkpRVzWu0h4xhuIEYxcf5j4fH0quT5bE2XAfWscFyH/tBRt1Dc2vr/5lp0bTx5sCj3K0zqI+QYIUOliGJdRbSJlY7C+O+s7WQNgvWJiL3iODbhZAy7AyHZJBcLBcCp3/ikMwjHJqxApKimRzqwq8ZCOkgtBMKILkIyWDGJE7FbGBmoWbFCk9/UU6/5j8D8Bf3cQmCXe4H5g0pw3ADvG1460ToxAchouDEisYL5rAKAYn3aM/xFs46wPgRoRv3A50wtgyASYj0DI2VB4ONfoH+hpxhIAhvHd4+Ef+clkxzMqLFJukxog8P7yklFLAgz4R8U6hQzxZPDOuxJq78Q3rnVY6qWFmCBh2o80C9h4j1vCNnc/bZbnQIw0A0aghRS2gABtM/OP6mUzUEyxG1j4fLG+hljnCEEkjjI82vmyHYxi7JzE8KfXTum6yzHlBEP4KlvcMYButrnsk/g5Gb1Y5Sr2Af2q7xcEXu3l5MjUKZnY6ODub+HcYwg0ikYJCKEYFiSjjXTsJvOF3yJKdNRAQb2BXnUh13OMMg3r7HvpYYBQBx0BVruSjFyrlWPURHtiOUNp/pN8c/X+LS7Ie5RDvU6HCGGQ9kTsUY7SiQQSGplYNt9O3o3z9y1e+yQ2U++go0QK8uaUdBTXvo7zSGgVjVBw2o2VsxIYHmcblbVwDCVijTxu4SgdoMlFurshFiX7uOO5VheIij5Y00h1MyMicZ4SwEeRcMjlFG++1aCPM8MJLWsW/1PDvSsujHnWlR9PepSdKSNvNcdp53OsOMh7H6uiWDd9ziYTFcIxJLeKtDCaRD3jpVTS8dryJ8bGEG0imwBDu6xsSgo8swDASdYpHz4O4SgrOswi2cC4OPhDe8H8f37ACiKjsK6ynrdDW9842vBSvODz0FSzCO0yudhS7FMGMRkB/Dx39rstWLh774SmYGR86RJEUIaGhchBYT8eEEagTxt5ujFKjKVQHZgR8Nj/HEP7HTOxtdkmHGomTzFyMrWTS9/nWVT7rCuK76RWQdYSx80RkpfPCABCk+nECtvD+gKnfpyFiPGJbVV/obH6rrXZphxkMjxreadxt2HXZEqNCdmYuPFJZwGkj3o8JQ0aKa1xEME4lHCdqW/DrWc7UeXafzRYk43nx8ZXx3ms56cTpXeOFDCaT/uzIcxzDzYqLkG6XQyL3hDxnfisbLhIJQ5OEgESEe4/kvgUXkAM5p4QP0QayPhrDe60rizvxssnPHM0z2UP/PbS7DHMZdl2Euwxy2Ag4j191hLsMctgIOI9fdYS7DHLYCDiPX3WEuwxy2Ag4j191hLsMctgIOI9fdYS7DHLYCDiPX3WEuwxy2Ag4j191hLsMctgIOI9fdYQ5j2P8Ayv/GMrDq4rwAAAAASUVORK5CYII=;imageBorder=default;dashed=1;" vertex="1" parent="1">
          <mxGeometry x="294.62000000000006" y="384" width="47.37" height="50" as="geometry" />
        </mxCell>
        <mxCell id="5jTDvBwV7yWnziTKpoq--24" value="" style="shape=image;verticalLabelPosition=bottom;labelBackgroundColor=default;verticalAlign=top;aspect=fixed;imageAspect=0;image=data:image/png,iVBORw0KGgoAAAANSUhEUgAAAGwAAAByCAYAAAC2ujQmAAAAAXNSR0IArs4c6QAAAJZlWElmTU0AKgAAAAgABAEaAAUAAAABAAAAPgEbAAUAAAABAAAARgEoAAMAAAABAAIAAIdpAAQAAAABAAAATgAAAAAAAACQAAAAAQAAAJAAAAABAASShgAHAAAAEgAAAISgAQADAAAAAQABAACgAgAEAAAAAQAAAGygAwAEAAAAAQAAAHIAAAAAQVNDSUkAAABTY3JlZW5zaG90SpNP0QAAAAlwSFlzAAAWJQAAFiUBSVIk8AAAAdZpVFh0WE1MOmNvbS5hZG9iZS54bXAAAAAAADx4OnhtcG1ldGEgeG1sbnM6eD0iYWRvYmU6bnM6bWV0YS8iIHg6eG1wdGs9IlhNUCBDb3JlIDYuMC4wIj4KICAgPHJkZjpSREYgeG1sbnM6cmRmPSJodHRwOi8vd3d3LnczLm9yZy8xOTk5LzAyLzIyLXJkZi1zeW50YXgtbnMjIj4KICAgICAgPHJkZjpEZXNjcmlwdGlvbiByZGY6YWJvdXQ9IiIKICAgICAgICAgICAgeG1sbnM6ZXhpZj0iaHR0cDovL25zLmFkb2JlLmNvbS9leGlmLzEuMC8iPgogICAgICAgICA8ZXhpZjpQaXhlbFlEaW1lbnNpb24+MTE0PC9leGlmOlBpeGVsWURpbWVuc2lvbj4KICAgICAgICAgPGV4aWY6UGl4ZWxYRGltZW5zaW9uPjEwODwvZXhpZjpQaXhlbFhEaW1lbnNpb24+CiAgICAgICAgIDxleGlmOlVzZXJDb21tZW50PlNjcmVlbnNob3Q8L2V4aWY6VXNlckNvbW1lbnQ+CiAgICAgIDwvcmRmOkRlc2NyaXB0aW9uPgogICA8L3JkZjpSREY+CjwveDp4bXBtZXRhPgqpEfr/AAAAHGlET1QAAAACAAAAAAAAADkAAAAoAAAAOQAAADkAAAuFM8yaVQAAC1FJREFUeAHsXAmQFNUZ/nfZgz3ZZS/2RlhATiUoQkBRDkEU5BZJgRo1iSbeibFMNB6pMkpMNJKYeMUygAe364EgEYggiIASDpFz2ZO92fvE/F+Ht9Mz87qnZ6Zndrpqvqqpnn3zuvv1+/v9x/f/b0O+Z1AQlpmBkKDALCMrZaBBgVlLXhQUWFBgFpsBiw03uMKCArPYDFhsuMEVFhSYxWbAYsMNrrCgwCw2AxYbbnCFBQVmsRmw2HCDKywoMIvNgMWGa/kVVtV6nk43dNCphnblWN5ynmrb/v85136eQlggiRGhlMCfxMhQyojqQRfFhlO/uDA+hlHPHuhhHVhOYGXNnbS5tJm2lLYon6KmDo9nO5RlNSopkian9+RPFI1LiaTIABegJQQGIa041Ujvnm6kPZWtHgvI1YmxYaE0MzuKbr4ohqZmRFE4JBpgCGiBbSpppmcOnqOtZS1uTVtyZA9F/SWxCuzkfHoNq83qtk6q5qNRQIXe2j+WHh3ei1J69jB6ms/7BaTANhY30xPf1NJuF6tpcK9wui4zioYkRFAe26S8uHDKjNaf3ILGDjpex5/6dvpvTRvlFzXTGW7TQhSryF9cHE8PD4snvAjdjYASGJyHu3dX0ccsMC1AQNP5c2N2NGXHhGl1c6v9yLl2+ojvmV/YRNvOyldzTFgIPXFJAv1yaC+3rm1254AR2NMHaunxr2ulzwfh3JoXq9gVvPG+xDn2MNez4F76to72VrU53Qqr+h9jk+jK1J5Ov/mjodsFdrSuneZuLadDte1Oz3tp7whaNjqJxqVGOv3mj4ZVBY30yL4aOllvrzLxytw7OJ6e/UGi373KbhXY37+rp7t2VTnNfR+OlZ4blUiL+8U6/dYdDc8fruPVX0NNHfYVgSMSI+i9CSk0KD7cb8PqNoHdtqOS3jzR4PSgv2Gv7NHhCRTNNiOQgNDi17za3pKMeRULbV5ujF+G63eB1TP7MOPf5U7GHbZhzdWphGMg4zMOMW7eXkFnWzq7holXC3btzgFxXW2++uJXgZXzQ07efFZxp9UPdD/bgz9f3lvdFNDfK1s7afHnlYTwQ42nLk2gx0YkqJtM/+43gTVzBDvmo1I6wLGPAN7MN8cl0xIOUK2In3xRRa8eq7cb+jPsiDwyzHeuv18EBlM9k9XgB0VNXQ8H73z5lSm0sK9/dH/XjU3+cs+X1bSMQwABvISrJqTS3Nxo0WTq0S8Cg7F+jikmNeBdzTdgqGs4LgLb3h0A6w+KyhUe3ltDSw/ZP9/O69JpLJPJZsPnAsvnVYXVpcY/WQ2Cp9ND+/nvFR5x6cE62j8jXaGd9Pqb/RtelH5rixRHArbJVRrG0esFj3noxkxKM5mH9KnAwNeNzC+lhg4b6foCOxf3sZOhhxMcqM7mYBpcHwDmfOPkNL1TTP/tpxwfvsJxIoA4a8PEVN14i98vWrC9nNYU2NQ+Vtj2aelkZoTiU4ENe7/YjsG4a1Ac/e2KJN3J/YQZ+gXbKqiO3X81VrC9W8RpD39gV0Urjf241O5W8eGh9D4LbUKaPiU18oMS+rra5lj9irlHkABmwWcCA9v+JH8EwAp8dX26bo5pxclGWrKjgvC2OgIq5uisLMLRlwCZMXRDMX3HlJkjwkJClJUG8lkLILBH5JcQ4k2BfTdk0Eim2cyATwR2igcN/S8Qx2/ngRkZ1JdT8lpYzbzdTRyQyoQlzgFV9db4ZPGnT45PMQn9Ow0SGjeM4KTmh5NSlQy11gAc7fYYVo1fsBNiBnwisGs2ldklHV8a3VvJKWkN+PPyFrr6kzIl2ajVR7RvmpJGUzid7wtgVWF1tCLrqQPQZl9dn6HLysxntY6XUODtq8wJYUwXGGotJm8uE+MkMO77WSVooZQ5Otg6o9lgJCiPzc4iX6RZYLdgv4wAyVJ4rygrkKG4qZMGrCsiEAZADufuCuZmybq61Wa6wCby6gLfJvDl9HS6PFk7HhnN7Ie7dRoPDImnP11mLpX1+vEGumNnpRi2oeOcnGiF/9TqjNgMMZrA6z9Mph9zXs8bmCqwfewdjWIvSWBGVrTiWYm/HY+Psa34PdsMdwE2Ya+JhhxE7qD1xYTkpbtYPj6FftRP7r1idWWuKiTEdMBADg+OcGzmTW2PqQKb/Vm5kq0VDw1DC4Mrg6NwZX302oYmhNPBmZl6XQz/tpCdHVRkeQI4VMdmawfIjpl0b1MxpgkMDHbae4VdXt5VHK9sm9pHcw7Gsb3YadBeaF3kaWYgfuslO47KrKmfntW6haH2uzm+/KtGfInVhVUmbJmreXF1Q9ME9ixzhUinC+i9SY5urzjH3SNc7IMzM2iAhxlfTOLAdcXkTTEqxgwiG44QKolluJNZ/ddUrP7JOdp9Zeer20wTWN81RYQSMqAXE6YVC7I1g+RL2HVWp1nUA3L3+xXs0Oxix8YTPLCnml44YmPaPbmGOOd2diZeY6dChh3lrTR+o405eZy1wpOsHTyBKQI7zGViYAcEUKDyokZCEmVkiLnMBOgu0F7uADb0MnaQ9CMu41dEiXfJvGzqrcHE5LGLD44UyGUX/7SHLr4pAnMsptFzNuYwqbvujI0gNT4l2j1RMwjaylURqfoKZq5ycV09m4oSPjggAp6qRVMEpvayMHn1i3KVXSNicOKIqqOYlQXiT90jaCzwckYBfu/DScYYfcf4SO8esI/HJLyi7BzYMAhCBsSmiFEFXuUakDs8qAExRWDp7AWhqgi4gWOvfGa1ZdjABZqz2PU3grVckAM7BxLZKIwkRcFzQn0Lr83VtUHc/oXtnKzCS3buVvaMZYx+Czs4ie+cIRwBZB6QgXAXXgushCmYzNWFXfdFMQ2KamRADSLUpyuMZkdi9wVHApMLG2kESBYenZWpOD1a/UGbgT4zggeZUXmeGRV4kdmrbWS23rl69lvNAmF/2gn2LN2F1wLDXq1ruRJKYMu1fWhiH3nOCMSqSEqK/rIjyt1A+wD7L7AnRp2D29hbe0PDW1t+skGpdpLd07ENKvkwsxKCs1zCVVL/4vNdYTinkZCZkOE+9kqxWgU6FvdVQgLxt5Gj1wJ7kQdwPw9EoHR+NqFy1xHIDyWwStBLn+Ac7BApmZ9lFxLg+riPUSBgR4CqBmin/uypYcemETheA1uekIUwgqqbcqTe4stH65XNHuIaeCHcrcP0WmDYbYKBAChYqVmYI8ZjdzTqzstUCpyVIawaRZxnd2HJH1A3oK3E6kAXx5oLyWldTSBoQdQ6IodjzUKdrUmiv5aWcRT6hmtSeQOhe9VVXgts0X8q6G3eHQnopVLeYDb8dgNs+LucN1ogKX1zVL1icrSO2Ba09EJq3ujLgmvp2UGULmCDhCu8PCaJfjbQOS7EPrRcFrrAMo4ff+5m/Oi1wOZtsxWeqJ0FMShxNMrMn2K3WCszfQvX48tq28U91EfQRXs4yTiES78H8+qEd2gEepQaSvVQsucKD7Gz8kdJ+qeN7UHkcltYoxe3ad3Da4GhhA3cIIA9U9unyQlf5JqQc9IDYrgGjuG0ACJ1MKdB1HXtWn3RjjoKVFz9gSfaCLAPbT2rKS1go+H0LTYHS6vfLVzCh4pmGeJWnumqIlNrAVlfWZvXApvGTDcqnYBJvBv/0ylygalVp2wgaDOSlUUaBIG62QD/iZBAr44QiVYkXF0BO1mwUmWA4yP2m2HzxCscQLsDrwWGnSiiBFsvdaBWnVoDRGXVNxousfoc9T3V7d58B3ELAlcPjsVFWn3hSMChkOFi1hDYxAhoOTey80Sb1wJTrxyoIDADMmCLzjsukoT92bs7biCYhErMW1vcpVpk93OnTe9FU1/nWw7gYQ9dAf82YqUGi5HBrBDqWABPdu38DwAA//8JFEdRAAAKyklEQVTtWwtwFdUZ/kMCISEJSSABkpAA8hYRLCAVFBUfVAtBAeXRUdvSOlQZHduptmOx4lTtg9oqo9WOj9oaBQoIikWmCAV0kLfyELAIeZCQF3mSN9D/u8nenLs5Z++5uXuTbGe/meTunj3n7L/n3/O/N+wyg4LAg7tL6bWTVZ4ZhsV1p5OzU6WzPfR5Kb18ormftAM3JkZ2o9J701WXfdr/wvdcwvcOFj26hdEJpnlQTITfqT4tqqepmwv89ls6Mo5enJQo7ReTlU0XmpqXfNnYeHp6XLy0n6oxLFiG/Xx/Gf3+aIVn/v5R4VQwb6D0Xk8dKqflX5ZLr4mNNYsyKCo8TGxSHt+w+RztLKpTXte58IcJifTT0XE6XWnVmQs0f0ex377LmQm/YmbIEPb2GW/zCr73Y5r3NgYFzbAVxyrpZ/vOG/NRHS94pGTB3/hvNf3wsxJvP9XBttv60439e6ou+7R/XdlIYzbmU8Ol9gmJ8Yk9aO+dKSQh1+c+xslj/Jwv8PP6w6obkuieQb3adDte0UijNpz1tr/L/eZL+nk7SA6CZtgHeTU065Mi79QHv5tC43ghzNhXWk8TN/kXJ89dk0BPjOltHq48/+2RCnriQJnyutWFQzNT6OqEtrSqxkz5VwF9VlyvuuxtP84idgSrBzM25NbQ7G2ta3WA1wovTSAImmEn+C0f+b7/t6bu4mWKeifbL21X8QJ+yQsZCMZ/mE+HzjcEMoSeZJH1TAD6I/dCE6WvzfN7D4hziHUZfscv1+PCy6WSRrKxRlvQDMNEolz+xVW96dnxCcb8Pr+TPiqgvSX+39A9dwygiX0jfcZanRxkZk3clE/8TmgBxtGRWSkEg0MXz7D+XcZ62B8yB0bT+zclS7tB/0EPAgN7RVDOnDRpP6tGWxg2gRdrf2nzG34tL/RuXnAZdB96bkYvWjMtSTaFsk00fpSdWi6APtCpC0iHQby7Cusu+h3y1pS+dP8VMdJ+fVbl0Pn6S55rd6VH07ob5YyVDm5ptIVh4mLhpa1YkE4xEd3a3PdwWQON/SC/TbusYT/L92sClO8zWZdWNTYviGxOtN3EBs1TV8stONUYWMF4Rh2cn59OCT3aPvtXbHCMFgyOldf2oYdGxOpM6dPHFoZ9nF9LM/5d6J140/R+dEdqlPdcPPgW65sDGvrGaqeK84X6OK+myWOJVjRYvwigY/GwWPrrt/tISVp5vJKW7mm1puH7DZcYJtLBQqMtDKtlkREtGBT3sUj4G4sGGV5n836xhnmPsY+ztfg8W42dBXgL0z4+R7s0fb1jmak0qndb6xD0T2b9/XmL/k6NDqe8uXJ/1d+z2sIw3ASmPUx8oCdbSiUcsegV0Vapg7nQB0Ua+gBzZV2fRAsGt/VpcC3U0InOGDRAokCyyHC6uomGrGu1MB8dFUcvTJRHQmTjxTbbGLaarZ97hSjAG9f1pe8PlSvfN3mX/UBzl0Envj0liRYN6Vim/YRDaa/4CaWJC3mYrc4x8XKf6pcHy+i5w83RIIxpj3427mUbw7Bz+q3O9Sr9sexPfWHhT+ma+CAU+xTuwvJxCdpRCeMBA/2Frlq0q5g25dVqD4UEgCSQAeuSuiaXylp04JDYCDp1V+DmvDG3bQzDhAg9IQRlYMut/ejWAXLj4xhbTVcKVpMxxup3anJPeo2VukpPWI3Vuba1oI4e+LSEYGjoIrZ7NzqWmUJp0fLg8YtfVdIje1uNDehk6Ob2wlaGnWyJehj+681sQm/l2KAKZs9f1c/cDqPmFTaLoyU60txX57yk/iLdv6uEPjqrv6uMeWFcgR4ZEJTPWJtL+TXN/htcnYJ70qQuj2y8rM1WhuEGd28vovU5zcYHznfM6E/X886QAVbYZI7P6UQ/xPEILlcvzCCb+OURV4nv5Yi30Dq+PSWKNt8iNzQwwZ95dz0q7C6rKJDWDbmT7QwzB3lHspl7ZFaqUvd8U9XEzvRZb45Ih3CIWYhbOwGHHo69LpJ7htNRFoV9I8OlQ87VXqThHGM1HHnEGHPmpin7SyeRNNrOMNxj7n+KaG126y7zl/fZfq6ObmfHWzdNglgl3lY7AT0DfaMD6K2dLDmsIv0L2GJ+ryVuiDnbk6yU0RIShp1lmT1sfR7BQgIgu5HKuIItJBU+ZB8OqYeWIapunvZAY4GWk7VcNKc+VGPgY0IvX5ekjkVu5DRKppBGGczZbDjVGBssQsIwEGU2KEazaIT/YUX0u6cv0MKd1hldML9yYbrH1A/24cXx1U2XKC4rhwyDSbxmHEeEhbFznEy3se5SoZgDAiNYFBpmPPoFkpRVzWu0h4xhuIEYxcf5j4fH0quT5bE2XAfWscFyH/tBRt1Dc2vr/5lp0bTx5sCj3K0zqI+QYIUOliGJdRbSJlY7C+O+s7WQNgvWJiL3iODbhZAy7AyHZJBcLBcCp3/ikMwjHJqxApKimRzqwq8ZCOkgtBMKILkIyWDGJE7FbGBmoWbFCk9/UU6/5j8D8Bf3cQmCXe4H5g0pw3ADvG1460ToxAchouDEisYL5rAKAYn3aM/xFs46wPgRoRv3A50wtgyASYj0DI2VB4ONfoH+hpxhIAhvHd4+Ef+clkxzMqLFJukxog8P7yklFLAgz4R8U6hQzxZPDOuxJq78Q3rnVY6qWFmCBh2o80C9h4j1vCNnc/bZbnQIw0A0aghRS2gABtM/OP6mUzUEyxG1j4fLG+hljnCEEkjjI82vmyHYxi7JzE8KfXTum6yzHlBEP4KlvcMYButrnsk/g5Gb1Y5Sr2Af2q7xcEXu3l5MjUKZnY6ODub+HcYwg0ikYJCKEYFiSjjXTsJvOF3yJKdNRAQb2BXnUh13OMMg3r7HvpYYBQBx0BVruSjFyrlWPURHtiOUNp/pN8c/X+LS7Ie5RDvU6HCGGQ9kTsUY7SiQQSGplYNt9O3o3z9y1e+yQ2U++go0QK8uaUdBTXvo7zSGgVjVBw2o2VsxIYHmcblbVwDCVijTxu4SgdoMlFurshFiX7uOO5VheIij5Y00h1MyMicZ4SwEeRcMjlFG++1aCPM8MJLWsW/1PDvSsujHnWlR9PepSdKSNvNcdp53OsOMh7H6uiWDd9ziYTFcIxJLeKtDCaRD3jpVTS8dryJ8bGEG0imwBDu6xsSgo8swDASdYpHz4O4SgrOswi2cC4OPhDe8H8f37ACiKjsK6ynrdDW9842vBSvODz0FSzCO0yudhS7FMGMRkB/Dx39rstWLh774SmYGR86RJEUIaGhchBYT8eEEagTxt5ujFKjKVQHZgR8Nj/HEP7HTOxtdkmHGomTzFyMrWTS9/nWVT7rCuK76RWQdYSx80RkpfPCABCk+nECtvD+gKnfpyFiPGJbVV/obH6rrXZphxkMjxreadxt2HXZEqNCdmYuPFJZwGkj3o8JQ0aKa1xEME4lHCdqW/DrWc7UeXafzRYk43nx8ZXx3ms56cTpXeOFDCaT/uzIcxzDzYqLkG6XQyL3hDxnfisbLhIJQ5OEgESEe4/kvgUXkAM5p4QP0QayPhrDe60rizvxssnPHM0z2UP/PbS7DHMZdl2Euwxy2Ag4j191hLsMctgIOI9fdYS7DHLYCDiPX3WEuwxy2Ag4j191hLsMctgIOI9fdYS7DHLYCDiPX3WEuwxy2Ag4j191hLsMctgIOI9fdYQ5j2P8Ayv/GMrDq4rwAAAAASUVORK5CYII=;imageBorder=default;dashed=1;" vertex="1" parent="1">
          <mxGeometry x="304.62000000000006" y="394" width="47.37" height="50" as="geometry" />
        </mxCell>
        <mxCell id="5jTDvBwV7yWnziTKpoq--25" value="" style="shape=image;verticalLabelPosition=bottom;labelBackgroundColor=default;verticalAlign=top;aspect=fixed;imageAspect=0;image=data:image/png,iVBORw0KGgoAAAANSUhEUgAAAGwAAAByCAYAAAC2ujQmAAAAAXNSR0IArs4c6QAAAJZlWElmTU0AKgAAAAgABAEaAAUAAAABAAAAPgEbAAUAAAABAAAARgEoAAMAAAABAAIAAIdpAAQAAAABAAAATgAAAAAAAACQAAAAAQAAAJAAAAABAASShgAHAAAAEgAAAISgAQADAAAAAQABAACgAgAEAAAAAQAAAGygAwAEAAAAAQAAAHIAAAAAQVNDSUkAAABTY3JlZW5zaG90SpNP0QAAAAlwSFlzAAAWJQAAFiUBSVIk8AAAAdZpVFh0WE1MOmNvbS5hZG9iZS54bXAAAAAAADx4OnhtcG1ldGEgeG1sbnM6eD0iYWRvYmU6bnM6bWV0YS8iIHg6eG1wdGs9IlhNUCBDb3JlIDYuMC4wIj4KICAgPHJkZjpSREYgeG1sbnM6cmRmPSJodHRwOi8vd3d3LnczLm9yZy8xOTk5LzAyLzIyLXJkZi1zeW50YXgtbnMjIj4KICAgICAgPHJkZjpEZXNjcmlwdGlvbiByZGY6YWJvdXQ9IiIKICAgICAgICAgICAgeG1sbnM6ZXhpZj0iaHR0cDovL25zLmFkb2JlLmNvbS9leGlmLzEuMC8iPgogICAgICAgICA8ZXhpZjpQaXhlbFlEaW1lbnNpb24+MTE0PC9leGlmOlBpeGVsWURpbWVuc2lvbj4KICAgICAgICAgPGV4aWY6UGl4ZWxYRGltZW5zaW9uPjEwODwvZXhpZjpQaXhlbFhEaW1lbnNpb24+CiAgICAgICAgIDxleGlmOlVzZXJDb21tZW50PlNjcmVlbnNob3Q8L2V4aWY6VXNlckNvbW1lbnQ+CiAgICAgIDwvcmRmOkRlc2NyaXB0aW9uPgogICA8L3JkZjpSREY+CjwveDp4bXBtZXRhPgqpEfr/AAAAHGlET1QAAAACAAAAAAAAADkAAAAoAAAAOQAAADkAAAuFM8yaVQAAC1FJREFUeAHsXAmQFNUZ/nfZgz3ZZS/2RlhATiUoQkBRDkEU5BZJgRo1iSbeibFMNB6pMkpMNJKYeMUygAe364EgEYggiIASDpFz2ZO92fvE/F+Ht9Mz87qnZ6Zndrpqvqqpnn3zuvv1+/v9x/f/b0O+Z1AQlpmBkKDALCMrZaBBgVlLXhQUWFBgFpsBiw03uMKCArPYDFhsuMEVFhSYxWbAYsMNrrCgwCw2AxYbbnCFBQVmsRmw2HCDKywoMIvNgMWGa/kVVtV6nk43dNCphnblWN5ynmrb/v85136eQlggiRGhlMCfxMhQyojqQRfFhlO/uDA+hlHPHuhhHVhOYGXNnbS5tJm2lLYon6KmDo9nO5RlNSopkian9+RPFI1LiaTIABegJQQGIa041Ujvnm6kPZWtHgvI1YmxYaE0MzuKbr4ohqZmRFE4JBpgCGiBbSpppmcOnqOtZS1uTVtyZA9F/SWxCuzkfHoNq83qtk6q5qNRQIXe2j+WHh3ei1J69jB6ms/7BaTANhY30xPf1NJuF6tpcK9wui4zioYkRFAe26S8uHDKjNaf3ILGDjpex5/6dvpvTRvlFzXTGW7TQhSryF9cHE8PD4snvAjdjYASGJyHu3dX0ccsMC1AQNP5c2N2NGXHhGl1c6v9yLl2+ojvmV/YRNvOyldzTFgIPXFJAv1yaC+3rm1254AR2NMHaunxr2ulzwfh3JoXq9gVvPG+xDn2MNez4F76to72VrU53Qqr+h9jk+jK1J5Ov/mjodsFdrSuneZuLadDte1Oz3tp7whaNjqJxqVGOv3mj4ZVBY30yL4aOllvrzLxytw7OJ6e/UGi373KbhXY37+rp7t2VTnNfR+OlZ4blUiL+8U6/dYdDc8fruPVX0NNHfYVgSMSI+i9CSk0KD7cb8PqNoHdtqOS3jzR4PSgv2Gv7NHhCRTNNiOQgNDi17za3pKMeRULbV5ujF+G63eB1TP7MOPf5U7GHbZhzdWphGMg4zMOMW7eXkFnWzq7holXC3btzgFxXW2++uJXgZXzQ07efFZxp9UPdD/bgz9f3lvdFNDfK1s7afHnlYTwQ42nLk2gx0YkqJtM/+43gTVzBDvmo1I6wLGPAN7MN8cl0xIOUK2In3xRRa8eq7cb+jPsiDwyzHeuv18EBlM9k9XgB0VNXQ8H73z5lSm0sK9/dH/XjU3+cs+X1bSMQwABvISrJqTS3Nxo0WTq0S8Cg7F+jikmNeBdzTdgqGs4LgLb3h0A6w+KyhUe3ltDSw/ZP9/O69JpLJPJZsPnAsvnVYXVpcY/WQ2Cp9ND+/nvFR5x6cE62j8jXaGd9Pqb/RtelH5rixRHArbJVRrG0esFj3noxkxKM5mH9KnAwNeNzC+lhg4b6foCOxf3sZOhhxMcqM7mYBpcHwDmfOPkNL1TTP/tpxwfvsJxIoA4a8PEVN14i98vWrC9nNYU2NQ+Vtj2aelkZoTiU4ENe7/YjsG4a1Ac/e2KJN3J/YQZ+gXbKqiO3X81VrC9W8RpD39gV0Urjf241O5W8eGh9D4LbUKaPiU18oMS+rra5lj9irlHkABmwWcCA9v+JH8EwAp8dX26bo5pxclGWrKjgvC2OgIq5uisLMLRlwCZMXRDMX3HlJkjwkJClJUG8lkLILBH5JcQ4k2BfTdk0Eim2cyATwR2igcN/S8Qx2/ngRkZ1JdT8lpYzbzdTRyQyoQlzgFV9db4ZPGnT45PMQn9Ow0SGjeM4KTmh5NSlQy11gAc7fYYVo1fsBNiBnwisGs2ldklHV8a3VvJKWkN+PPyFrr6kzIl2ajVR7RvmpJGUzid7wtgVWF1tCLrqQPQZl9dn6HLysxntY6XUODtq8wJYUwXGGotJm8uE+MkMO77WSVooZQ5Otg6o9lgJCiPzc4iX6RZYLdgv4wAyVJ4rygrkKG4qZMGrCsiEAZADufuCuZmybq61Wa6wCby6gLfJvDl9HS6PFk7HhnN7Ie7dRoPDImnP11mLpX1+vEGumNnpRi2oeOcnGiF/9TqjNgMMZrA6z9Mph9zXs8bmCqwfewdjWIvSWBGVrTiWYm/HY+Psa34PdsMdwE2Ya+JhhxE7qD1xYTkpbtYPj6FftRP7r1idWWuKiTEdMBADg+OcGzmTW2PqQKb/Vm5kq0VDw1DC4Mrg6NwZX302oYmhNPBmZl6XQz/tpCdHVRkeQI4VMdmawfIjpl0b1MxpgkMDHbae4VdXt5VHK9sm9pHcw7Gsb3YadBeaF3kaWYgfuslO47KrKmfntW6haH2uzm+/KtGfInVhVUmbJmreXF1Q9ME9ixzhUinC+i9SY5urzjH3SNc7IMzM2iAhxlfTOLAdcXkTTEqxgwiG44QKolluJNZ/ddUrP7JOdp9Zeer20wTWN81RYQSMqAXE6YVC7I1g+RL2HVWp1nUA3L3+xXs0Oxix8YTPLCnml44YmPaPbmGOOd2diZeY6dChh3lrTR+o405eZy1wpOsHTyBKQI7zGViYAcEUKDyokZCEmVkiLnMBOgu0F7uADb0MnaQ9CMu41dEiXfJvGzqrcHE5LGLD44UyGUX/7SHLr4pAnMsptFzNuYwqbvujI0gNT4l2j1RMwjaylURqfoKZq5ycV09m4oSPjggAp6qRVMEpvayMHn1i3KVXSNicOKIqqOYlQXiT90jaCzwckYBfu/DScYYfcf4SO8esI/HJLyi7BzYMAhCBsSmiFEFXuUakDs8qAExRWDp7AWhqgi4gWOvfGa1ZdjABZqz2PU3grVckAM7BxLZKIwkRcFzQn0Lr83VtUHc/oXtnKzCS3buVvaMZYx+Czs4ie+cIRwBZB6QgXAXXgushCmYzNWFXfdFMQ2KamRADSLUpyuMZkdi9wVHApMLG2kESBYenZWpOD1a/UGbgT4zggeZUXmeGRV4kdmrbWS23rl69lvNAmF/2gn2LN2F1wLDXq1ruRJKYMu1fWhiH3nOCMSqSEqK/rIjyt1A+wD7L7AnRp2D29hbe0PDW1t+skGpdpLd07ENKvkwsxKCs1zCVVL/4vNdYTinkZCZkOE+9kqxWgU6FvdVQgLxt5Gj1wJ7kQdwPw9EoHR+NqFy1xHIDyWwStBLn+Ac7BApmZ9lFxLg+riPUSBgR4CqBmin/uypYcemETheA1uekIUwgqqbcqTe4stH65XNHuIaeCHcrcP0WmDYbYKBAChYqVmYI8ZjdzTqzstUCpyVIawaRZxnd2HJH1A3oK3E6kAXx5oLyWldTSBoQdQ6IodjzUKdrUmiv5aWcRT6hmtSeQOhe9VVXgts0X8q6G3eHQnopVLeYDb8dgNs+LucN1ogKX1zVL1icrSO2Ba09EJq3ujLgmvp2UGULmCDhCu8PCaJfjbQOS7EPrRcFrrAMo4ff+5m/Oi1wOZtsxWeqJ0FMShxNMrMn2K3WCszfQvX48tq28U91EfQRXs4yTiES78H8+qEd2gEepQaSvVQsucKD7Gz8kdJ+qeN7UHkcltYoxe3ad3Da4GhhA3cIIA9U9unyQlf5JqQc9IDYrgGjuG0ACJ1MKdB1HXtWn3RjjoKVFz9gSfaCLAPbT2rKS1go+H0LTYHS6vfLVzCh4pmGeJWnumqIlNrAVlfWZvXApvGTDcqnYBJvBv/0ylygalVp2wgaDOSlUUaBIG62QD/iZBAr44QiVYkXF0BO1mwUmWA4yP2m2HzxCscQLsDrwWGnSiiBFsvdaBWnVoDRGXVNxousfoc9T3V7d58B3ELAlcPjsVFWn3hSMChkOFi1hDYxAhoOTey80Sb1wJTrxyoIDADMmCLzjsukoT92bs7biCYhErMW1vcpVpk93OnTe9FU1/nWw7gYQ9dAf82YqUGi5HBrBDqWABPdu38DwAA//8JFEdRAAAKyklEQVTtWwtwFdUZ/kMCISEJSSABkpAA8hYRLCAVFBUfVAtBAeXRUdvSOlQZHduptmOx4lTtg9oqo9WOj9oaBQoIikWmCAV0kLfyELAIeZCQF3mSN9D/u8nenLs5Z++5uXuTbGe/meTunj3n7L/n3/O/N+wyg4LAg7tL6bWTVZ4ZhsV1p5OzU6WzPfR5Kb18ormftAM3JkZ2o9J701WXfdr/wvdcwvcOFj26hdEJpnlQTITfqT4tqqepmwv89ls6Mo5enJQo7ReTlU0XmpqXfNnYeHp6XLy0n6oxLFiG/Xx/Gf3+aIVn/v5R4VQwb6D0Xk8dKqflX5ZLr4mNNYsyKCo8TGxSHt+w+RztLKpTXte58IcJifTT0XE6XWnVmQs0f0ex377LmQm/YmbIEPb2GW/zCr73Y5r3NgYFzbAVxyrpZ/vOG/NRHS94pGTB3/hvNf3wsxJvP9XBttv60439e6ou+7R/XdlIYzbmU8Ol9gmJ8Yk9aO+dKSQh1+c+xslj/Jwv8PP6w6obkuieQb3adDte0UijNpz1tr/L/eZL+nk7SA6CZtgHeTU065Mi79QHv5tC43ghzNhXWk8TN/kXJ89dk0BPjOltHq48/+2RCnriQJnyutWFQzNT6OqEtrSqxkz5VwF9VlyvuuxtP84idgSrBzM25NbQ7G2ta3WA1wovTSAImmEn+C0f+b7/t6bu4mWKeifbL21X8QJ+yQsZCMZ/mE+HzjcEMoSeZJH1TAD6I/dCE6WvzfN7D4hziHUZfscv1+PCy6WSRrKxRlvQDMNEolz+xVW96dnxCcb8Pr+TPiqgvSX+39A9dwygiX0jfcZanRxkZk3clE/8TmgBxtGRWSkEg0MXz7D+XcZ62B8yB0bT+zclS7tB/0EPAgN7RVDOnDRpP6tGWxg2gRdrf2nzG34tL/RuXnAZdB96bkYvWjMtSTaFsk00fpSdWi6APtCpC0iHQby7Cusu+h3y1pS+dP8VMdJ+fVbl0Pn6S55rd6VH07ob5YyVDm5ptIVh4mLhpa1YkE4xEd3a3PdwWQON/SC/TbusYT/L92sClO8zWZdWNTYviGxOtN3EBs1TV8stONUYWMF4Rh2cn59OCT3aPvtXbHCMFgyOldf2oYdGxOpM6dPHFoZ9nF9LM/5d6J140/R+dEdqlPdcPPgW65sDGvrGaqeK84X6OK+myWOJVjRYvwigY/GwWPrrt/tISVp5vJKW7mm1puH7DZcYJtLBQqMtDKtlkREtGBT3sUj4G4sGGV5n836xhnmPsY+ztfg8W42dBXgL0z4+R7s0fb1jmak0qndb6xD0T2b9/XmL/k6NDqe8uXJ/1d+z2sIw3ASmPUx8oCdbSiUcsegV0Vapg7nQB0Ua+gBzZV2fRAsGt/VpcC3U0InOGDRAokCyyHC6uomGrGu1MB8dFUcvTJRHQmTjxTbbGLaarZ97hSjAG9f1pe8PlSvfN3mX/UBzl0Envj0liRYN6Vim/YRDaa/4CaWJC3mYrc4x8XKf6pcHy+i5w83RIIxpj3427mUbw7Bz+q3O9Sr9sexPfWHhT+ma+CAU+xTuwvJxCdpRCeMBA/2Frlq0q5g25dVqD4UEgCSQAeuSuiaXylp04JDYCDp1V+DmvDG3bQzDhAg9IQRlYMut/ejWAXLj4xhbTVcKVpMxxup3anJPeo2VukpPWI3Vuba1oI4e+LSEYGjoIrZ7NzqWmUJp0fLg8YtfVdIje1uNDehk6Ob2wlaGnWyJehj+681sQm/l2KAKZs9f1c/cDqPmFTaLoyU60txX57yk/iLdv6uEPjqrv6uMeWFcgR4ZEJTPWJtL+TXN/htcnYJ70qQuj2y8rM1WhuEGd28vovU5zcYHznfM6E/X886QAVbYZI7P6UQ/xPEILlcvzCCb+OURV4nv5Yi30Dq+PSWKNt8iNzQwwZ95dz0q7C6rKJDWDbmT7QwzB3lHspl7ZFaqUvd8U9XEzvRZb45Ih3CIWYhbOwGHHo69LpJ7htNRFoV9I8OlQ87VXqThHGM1HHnEGHPmpin7SyeRNNrOMNxj7n+KaG126y7zl/fZfq6ObmfHWzdNglgl3lY7AT0DfaMD6K2dLDmsIv0L2GJ+ryVuiDnbk6yU0RIShp1lmT1sfR7BQgIgu5HKuIItJBU+ZB8OqYeWIapunvZAY4GWk7VcNKc+VGPgY0IvX5ekjkVu5DRKppBGGczZbDjVGBssQsIwEGU2KEazaIT/YUX0u6cv0MKd1hldML9yYbrH1A/24cXx1U2XKC4rhwyDSbxmHEeEhbFznEy3se5SoZgDAiNYFBpmPPoFkpRVzWu0h4xhuIEYxcf5j4fH0quT5bE2XAfWscFyH/tBRt1Dc2vr/5lp0bTx5sCj3K0zqI+QYIUOliGJdRbSJlY7C+O+s7WQNgvWJiL3iODbhZAy7AyHZJBcLBcCp3/ikMwjHJqxApKimRzqwq8ZCOkgtBMKILkIyWDGJE7FbGBmoWbFCk9/UU6/5j8D8Bf3cQmCXe4H5g0pw3ADvG1460ToxAchouDEisYL5rAKAYn3aM/xFs46wPgRoRv3A50wtgyASYj0DI2VB4ONfoH+hpxhIAhvHd4+Ef+clkxzMqLFJukxog8P7yklFLAgz4R8U6hQzxZPDOuxJq78Q3rnVY6qWFmCBh2o80C9h4j1vCNnc/bZbnQIw0A0aghRS2gABtM/OP6mUzUEyxG1j4fLG+hljnCEEkjjI82vmyHYxi7JzE8KfXTum6yzHlBEP4KlvcMYButrnsk/g5Gb1Y5Sr2Af2q7xcEXu3l5MjUKZnY6ODub+HcYwg0ikYJCKEYFiSjjXTsJvOF3yJKdNRAQb2BXnUh13OMMg3r7HvpYYBQBx0BVruSjFyrlWPURHtiOUNp/pN8c/X+LS7Ie5RDvU6HCGGQ9kTsUY7SiQQSGplYNt9O3o3z9y1e+yQ2U++go0QK8uaUdBTXvo7zSGgVjVBw2o2VsxIYHmcblbVwDCVijTxu4SgdoMlFurshFiX7uOO5VheIij5Y00h1MyMicZ4SwEeRcMjlFG++1aCPM8MJLWsW/1PDvSsujHnWlR9PepSdKSNvNcdp53OsOMh7H6uiWDd9ziYTFcIxJLeKtDCaRD3jpVTS8dryJ8bGEG0imwBDu6xsSgo8swDASdYpHz4O4SgrOswi2cC4OPhDe8H8f37ACiKjsK6ynrdDW9842vBSvODz0FSzCO0yudhS7FMGMRkB/Dx39rstWLh774SmYGR86RJEUIaGhchBYT8eEEagTxt5ujFKjKVQHZgR8Nj/HEP7HTOxtdkmHGomTzFyMrWTS9/nWVT7rCuK76RWQdYSx80RkpfPCABCk+nECtvD+gKnfpyFiPGJbVV/obH6rrXZphxkMjxreadxt2HXZEqNCdmYuPFJZwGkj3o8JQ0aKa1xEME4lHCdqW/DrWc7UeXafzRYk43nx8ZXx3ms56cTpXeOFDCaT/uzIcxzDzYqLkG6XQyL3hDxnfisbLhIJQ5OEgESEe4/kvgUXkAM5p4QP0QayPhrDe60rizvxssnPHM0z2UP/PbS7DHMZdl2Euwxy2Ag4j191hLsMctgIOI9fdYS7DHLYCDiPX3WEuwxy2Ag4j191hLsMctgIOI9fdYS7DHLYCDiPX3WEuwxy2Ag4j191hLsMctgIOI9fdYQ5j2P8Ayv/GMrDq4rwAAAAASUVORK5CYII=;imageBorder=default;dashed=1;" vertex="1" parent="1">
          <mxGeometry x="436.99000000000007" y="384" width="47.37" height="50" as="geometry" />
        </mxCell>
        <mxCell id="5jTDvBwV7yWnziTKpoq--26" value="" style="shape=image;verticalLabelPosition=bottom;labelBackgroundColor=default;verticalAlign=top;aspect=fixed;imageAspect=0;image=data:image/png,iVBORw0KGgoAAAANSUhEUgAAAGwAAAByCAYAAAC2ujQmAAAAAXNSR0IArs4c6QAAAJZlWElmTU0AKgAAAAgABAEaAAUAAAABAAAAPgEbAAUAAAABAAAARgEoAAMAAAABAAIAAIdpAAQAAAABAAAATgAAAAAAAACQAAAAAQAAAJAAAAABAASShgAHAAAAEgAAAISgAQADAAAAAQABAACgAgAEAAAAAQAAAGygAwAEAAAAAQAAAHIAAAAAQVNDSUkAAABTY3JlZW5zaG90SpNP0QAAAAlwSFlzAAAWJQAAFiUBSVIk8AAAAdZpVFh0WE1MOmNvbS5hZG9iZS54bXAAAAAAADx4OnhtcG1ldGEgeG1sbnM6eD0iYWRvYmU6bnM6bWV0YS8iIHg6eG1wdGs9IlhNUCBDb3JlIDYuMC4wIj4KICAgPHJkZjpSREYgeG1sbnM6cmRmPSJodHRwOi8vd3d3LnczLm9yZy8xOTk5LzAyLzIyLXJkZi1zeW50YXgtbnMjIj4KICAgICAgPHJkZjpEZXNjcmlwdGlvbiByZGY6YWJvdXQ9IiIKICAgICAgICAgICAgeG1sbnM6ZXhpZj0iaHR0cDovL25zLmFkb2JlLmNvbS9leGlmLzEuMC8iPgogICAgICAgICA8ZXhpZjpQaXhlbFlEaW1lbnNpb24+MTE0PC9leGlmOlBpeGVsWURpbWVuc2lvbj4KICAgICAgICAgPGV4aWY6UGl4ZWxYRGltZW5zaW9uPjEwODwvZXhpZjpQaXhlbFhEaW1lbnNpb24+CiAgICAgICAgIDxleGlmOlVzZXJDb21tZW50PlNjcmVlbnNob3Q8L2V4aWY6VXNlckNvbW1lbnQ+CiAgICAgIDwvcmRmOkRlc2NyaXB0aW9uPgogICA8L3JkZjpSREY+CjwveDp4bXBtZXRhPgqpEfr/AAAAHGlET1QAAAACAAAAAAAAADkAAAAoAAAAOQAAADkAAAuFM8yaVQAAC1FJREFUeAHsXAmQFNUZ/nfZgz3ZZS/2RlhATiUoQkBRDkEU5BZJgRo1iSbeibFMNB6pMkpMNJKYeMUygAe364EgEYggiIASDpFz2ZO92fvE/F+Ht9Mz87qnZ6Zndrpqvqqpnn3zuvv1+/v9x/f/b0O+Z1AQlpmBkKDALCMrZaBBgVlLXhQUWFBgFpsBiw03uMKCArPYDFhsuMEVFhSYxWbAYsMNrrCgwCw2AxYbbnCFBQVmsRmw2HCDKywoMIvNgMWGa/kVVtV6nk43dNCphnblWN5ynmrb/v85136eQlggiRGhlMCfxMhQyojqQRfFhlO/uDA+hlHPHuhhHVhOYGXNnbS5tJm2lLYon6KmDo9nO5RlNSopkian9+RPFI1LiaTIABegJQQGIa041Ujvnm6kPZWtHgvI1YmxYaE0MzuKbr4ohqZmRFE4JBpgCGiBbSpppmcOnqOtZS1uTVtyZA9F/SWxCuzkfHoNq83qtk6q5qNRQIXe2j+WHh3ei1J69jB6ms/7BaTANhY30xPf1NJuF6tpcK9wui4zioYkRFAe26S8uHDKjNaf3ILGDjpex5/6dvpvTRvlFzXTGW7TQhSryF9cHE8PD4snvAjdjYASGJyHu3dX0ccsMC1AQNP5c2N2NGXHhGl1c6v9yLl2+ojvmV/YRNvOyldzTFgIPXFJAv1yaC+3rm1254AR2NMHaunxr2ulzwfh3JoXq9gVvPG+xDn2MNez4F76to72VrU53Qqr+h9jk+jK1J5Ov/mjodsFdrSuneZuLadDte1Oz3tp7whaNjqJxqVGOv3mj4ZVBY30yL4aOllvrzLxytw7OJ6e/UGi373KbhXY37+rp7t2VTnNfR+OlZ4blUiL+8U6/dYdDc8fruPVX0NNHfYVgSMSI+i9CSk0KD7cb8PqNoHdtqOS3jzR4PSgv2Gv7NHhCRTNNiOQgNDi17za3pKMeRULbV5ujF+G63eB1TP7MOPf5U7GHbZhzdWphGMg4zMOMW7eXkFnWzq7holXC3btzgFxXW2++uJXgZXzQ07efFZxp9UPdD/bgz9f3lvdFNDfK1s7afHnlYTwQ42nLk2gx0YkqJtM/+43gTVzBDvmo1I6wLGPAN7MN8cl0xIOUK2In3xRRa8eq7cb+jPsiDwyzHeuv18EBlM9k9XgB0VNXQ8H73z5lSm0sK9/dH/XjU3+cs+X1bSMQwABvISrJqTS3Nxo0WTq0S8Cg7F+jikmNeBdzTdgqGs4LgLb3h0A6w+KyhUe3ltDSw/ZP9/O69JpLJPJZsPnAsvnVYXVpcY/WQ2Cp9ND+/nvFR5x6cE62j8jXaGd9Pqb/RtelH5rixRHArbJVRrG0esFj3noxkxKM5mH9KnAwNeNzC+lhg4b6foCOxf3sZOhhxMcqM7mYBpcHwDmfOPkNL1TTP/tpxwfvsJxIoA4a8PEVN14i98vWrC9nNYU2NQ+Vtj2aelkZoTiU4ENe7/YjsG4a1Ac/e2KJN3J/YQZ+gXbKqiO3X81VrC9W8RpD39gV0Urjf241O5W8eGh9D4LbUKaPiU18oMS+rra5lj9irlHkABmwWcCA9v+JH8EwAp8dX26bo5pxclGWrKjgvC2OgIq5uisLMLRlwCZMXRDMX3HlJkjwkJClJUG8lkLILBH5JcQ4k2BfTdk0Eim2cyATwR2igcN/S8Qx2/ngRkZ1JdT8lpYzbzdTRyQyoQlzgFV9db4ZPGnT45PMQn9Ow0SGjeM4KTmh5NSlQy11gAc7fYYVo1fsBNiBnwisGs2ldklHV8a3VvJKWkN+PPyFrr6kzIl2ajVR7RvmpJGUzid7wtgVWF1tCLrqQPQZl9dn6HLysxntY6XUODtq8wJYUwXGGotJm8uE+MkMO77WSVooZQ5Otg6o9lgJCiPzc4iX6RZYLdgv4wAyVJ4rygrkKG4qZMGrCsiEAZADufuCuZmybq61Wa6wCby6gLfJvDl9HS6PFk7HhnN7Ie7dRoPDImnP11mLpX1+vEGumNnpRi2oeOcnGiF/9TqjNgMMZrA6z9Mph9zXs8bmCqwfewdjWIvSWBGVrTiWYm/HY+Psa34PdsMdwE2Ya+JhhxE7qD1xYTkpbtYPj6FftRP7r1idWWuKiTEdMBADg+OcGzmTW2PqQKb/Vm5kq0VDw1DC4Mrg6NwZX302oYmhNPBmZl6XQz/tpCdHVRkeQI4VMdmawfIjpl0b1MxpgkMDHbae4VdXt5VHK9sm9pHcw7Gsb3YadBeaF3kaWYgfuslO47KrKmfntW6haH2uzm+/KtGfInVhVUmbJmreXF1Q9ME9ixzhUinC+i9SY5urzjH3SNc7IMzM2iAhxlfTOLAdcXkTTEqxgwiG44QKolluJNZ/ddUrP7JOdp9Zeer20wTWN81RYQSMqAXE6YVC7I1g+RL2HVWp1nUA3L3+xXs0Oxix8YTPLCnml44YmPaPbmGOOd2diZeY6dChh3lrTR+o405eZy1wpOsHTyBKQI7zGViYAcEUKDyokZCEmVkiLnMBOgu0F7uADb0MnaQ9CMu41dEiXfJvGzqrcHE5LGLD44UyGUX/7SHLr4pAnMsptFzNuYwqbvujI0gNT4l2j1RMwjaylURqfoKZq5ycV09m4oSPjggAp6qRVMEpvayMHn1i3KVXSNicOKIqqOYlQXiT90jaCzwckYBfu/DScYYfcf4SO8esI/HJLyi7BzYMAhCBsSmiFEFXuUakDs8qAExRWDp7AWhqgi4gWOvfGa1ZdjABZqz2PU3grVckAM7BxLZKIwkRcFzQn0Lr83VtUHc/oXtnKzCS3buVvaMZYx+Czs4ie+cIRwBZB6QgXAXXgushCmYzNWFXfdFMQ2KamRADSLUpyuMZkdi9wVHApMLG2kESBYenZWpOD1a/UGbgT4zggeZUXmeGRV4kdmrbWS23rl69lvNAmF/2gn2LN2F1wLDXq1ruRJKYMu1fWhiH3nOCMSqSEqK/rIjyt1A+wD7L7AnRp2D29hbe0PDW1t+skGpdpLd07ENKvkwsxKCs1zCVVL/4vNdYTinkZCZkOE+9kqxWgU6FvdVQgLxt5Gj1wJ7kQdwPw9EoHR+NqFy1xHIDyWwStBLn+Ac7BApmZ9lFxLg+riPUSBgR4CqBmin/uypYcemETheA1uekIUwgqqbcqTe4stH65XNHuIaeCHcrcP0WmDYbYKBAChYqVmYI8ZjdzTqzstUCpyVIawaRZxnd2HJH1A3oK3E6kAXx5oLyWldTSBoQdQ6IodjzUKdrUmiv5aWcRT6hmtSeQOhe9VVXgts0X8q6G3eHQnopVLeYDb8dgNs+LucN1ogKX1zVL1icrSO2Ba09EJq3ujLgmvp2UGULmCDhCu8PCaJfjbQOS7EPrRcFrrAMo4ff+5m/Oi1wOZtsxWeqJ0FMShxNMrMn2K3WCszfQvX48tq28U91EfQRXs4yTiES78H8+qEd2gEepQaSvVQsucKD7Gz8kdJ+qeN7UHkcltYoxe3ad3Da4GhhA3cIIA9U9unyQlf5JqQc9IDYrgGjuG0ACJ1MKdB1HXtWn3RjjoKVFz9gSfaCLAPbT2rKS1go+H0LTYHS6vfLVzCh4pmGeJWnumqIlNrAVlfWZvXApvGTDcqnYBJvBv/0ylygalVp2wgaDOSlUUaBIG62QD/iZBAr44QiVYkXF0BO1mwUmWA4yP2m2HzxCscQLsDrwWGnSiiBFsvdaBWnVoDRGXVNxousfoc9T3V7d58B3ELAlcPjsVFWn3hSMChkOFi1hDYxAhoOTey80Sb1wJTrxyoIDADMmCLzjsukoT92bs7biCYhErMW1vcpVpk93OnTe9FU1/nWw7gYQ9dAf82YqUGi5HBrBDqWABPdu38DwAA//8JFEdRAAAKyklEQVTtWwtwFdUZ/kMCISEJSSABkpAA8hYRLCAVFBUfVAtBAeXRUdvSOlQZHduptmOx4lTtg9oqo9WOj9oaBQoIikWmCAV0kLfyELAIeZCQF3mSN9D/u8nenLs5Z++5uXuTbGe/meTunj3n7L/n3/O/N+wyg4LAg7tL6bWTVZ4ZhsV1p5OzU6WzPfR5Kb18ormftAM3JkZ2o9J701WXfdr/wvdcwvcOFj26hdEJpnlQTITfqT4tqqepmwv89ls6Mo5enJQo7ReTlU0XmpqXfNnYeHp6XLy0n6oxLFiG/Xx/Gf3+aIVn/v5R4VQwb6D0Xk8dKqflX5ZLr4mNNYsyKCo8TGxSHt+w+RztLKpTXte58IcJifTT0XE6XWnVmQs0f0ex377LmQm/YmbIEPb2GW/zCr73Y5r3NgYFzbAVxyrpZ/vOG/NRHS94pGTB3/hvNf3wsxJvP9XBttv60439e6ou+7R/XdlIYzbmU8Ol9gmJ8Yk9aO+dKSQh1+c+xslj/Jwv8PP6w6obkuieQb3adDte0UijNpz1tr/L/eZL+nk7SA6CZtgHeTU065Mi79QHv5tC43ghzNhXWk8TN/kXJ89dk0BPjOltHq48/+2RCnriQJnyutWFQzNT6OqEtrSqxkz5VwF9VlyvuuxtP84idgSrBzM25NbQ7G2ta3WA1wovTSAImmEn+C0f+b7/t6bu4mWKeifbL21X8QJ+yQsZCMZ/mE+HzjcEMoSeZJH1TAD6I/dCE6WvzfN7D4hziHUZfscv1+PCy6WSRrKxRlvQDMNEolz+xVW96dnxCcb8Pr+TPiqgvSX+39A9dwygiX0jfcZanRxkZk3clE/8TmgBxtGRWSkEg0MXz7D+XcZ62B8yB0bT+zclS7tB/0EPAgN7RVDOnDRpP6tGWxg2gRdrf2nzG34tL/RuXnAZdB96bkYvWjMtSTaFsk00fpSdWi6APtCpC0iHQby7Cusu+h3y1pS+dP8VMdJ+fVbl0Pn6S55rd6VH07ob5YyVDm5ptIVh4mLhpa1YkE4xEd3a3PdwWQON/SC/TbusYT/L92sClO8zWZdWNTYviGxOtN3EBs1TV8stONUYWMF4Rh2cn59OCT3aPvtXbHCMFgyOldf2oYdGxOpM6dPHFoZ9nF9LM/5d6J140/R+dEdqlPdcPPgW65sDGvrGaqeK84X6OK+myWOJVjRYvwigY/GwWPrrt/tISVp5vJKW7mm1puH7DZcYJtLBQqMtDKtlkREtGBT3sUj4G4sGGV5n836xhnmPsY+ztfg8W42dBXgL0z4+R7s0fb1jmak0qndb6xD0T2b9/XmL/k6NDqe8uXJ/1d+z2sIw3ASmPUx8oCdbSiUcsegV0Vapg7nQB0Ua+gBzZV2fRAsGt/VpcC3U0InOGDRAokCyyHC6uomGrGu1MB8dFUcvTJRHQmTjxTbbGLaarZ97hSjAG9f1pe8PlSvfN3mX/UBzl0Envj0liRYN6Vim/YRDaa/4CaWJC3mYrc4x8XKf6pcHy+i5w83RIIxpj3427mUbw7Bz+q3O9Sr9sexPfWHhT+ma+CAU+xTuwvJxCdpRCeMBA/2Frlq0q5g25dVqD4UEgCSQAeuSuiaXylp04JDYCDp1V+DmvDG3bQzDhAg9IQRlYMut/ejWAXLj4xhbTVcKVpMxxup3anJPeo2VukpPWI3Vuba1oI4e+LSEYGjoIrZ7NzqWmUJp0fLg8YtfVdIje1uNDehk6Ob2wlaGnWyJehj+681sQm/l2KAKZs9f1c/cDqPmFTaLoyU60txX57yk/iLdv6uEPjqrv6uMeWFcgR4ZEJTPWJtL+TXN/htcnYJ70qQuj2y8rM1WhuEGd28vovU5zcYHznfM6E/X886QAVbYZI7P6UQ/xPEILlcvzCCb+OURV4nv5Yi30Dq+PSWKNt8iNzQwwZ95dz0q7C6rKJDWDbmT7QwzB3lHspl7ZFaqUvd8U9XEzvRZb45Ih3CIWYhbOwGHHo69LpJ7htNRFoV9I8OlQ87VXqThHGM1HHnEGHPmpin7SyeRNNrOMNxj7n+KaG126y7zl/fZfq6ObmfHWzdNglgl3lY7AT0DfaMD6K2dLDmsIv0L2GJ+ryVuiDnbk6yU0RIShp1lmT1sfR7BQgIgu5HKuIItJBU+ZB8OqYeWIapunvZAY4GWk7VcNKc+VGPgY0IvX5ekjkVu5DRKppBGGczZbDjVGBssQsIwEGU2KEazaIT/YUX0u6cv0MKd1hldML9yYbrH1A/24cXx1U2XKC4rhwyDSbxmHEeEhbFznEy3se5SoZgDAiNYFBpmPPoFkpRVzWu0h4xhuIEYxcf5j4fH0quT5bE2XAfWscFyH/tBRt1Dc2vr/5lp0bTx5sCj3K0zqI+QYIUOliGJdRbSJlY7C+O+s7WQNgvWJiL3iODbhZAy7AyHZJBcLBcCp3/ikMwjHJqxApKimRzqwq8ZCOkgtBMKILkIyWDGJE7FbGBmoWbFCk9/UU6/5j8D8Bf3cQmCXe4H5g0pw3ADvG1460ToxAchouDEisYL5rAKAYn3aM/xFs46wPgRoRv3A50wtgyASYj0DI2VB4ONfoH+hpxhIAhvHd4+Ef+clkxzMqLFJukxog8P7yklFLAgz4R8U6hQzxZPDOuxJq78Q3rnVY6qWFmCBh2o80C9h4j1vCNnc/bZbnQIw0A0aghRS2gABtM/OP6mUzUEyxG1j4fLG+hljnCEEkjjI82vmyHYxi7JzE8KfXTum6yzHlBEP4KlvcMYButrnsk/g5Gb1Y5Sr2Af2q7xcEXu3l5MjUKZnY6ODub+HcYwg0ikYJCKEYFiSjjXTsJvOF3yJKdNRAQb2BXnUh13OMMg3r7HvpYYBQBx0BVruSjFyrlWPURHtiOUNp/pN8c/X+LS7Ie5RDvU6HCGGQ9kTsUY7SiQQSGplYNt9O3o3z9y1e+yQ2U++go0QK8uaUdBTXvo7zSGgVjVBw2o2VsxIYHmcblbVwDCVijTxu4SgdoMlFurshFiX7uOO5VheIij5Y00h1MyMicZ4SwEeRcMjlFG++1aCPM8MJLWsW/1PDvSsujHnWlR9PepSdKSNvNcdp53OsOMh7H6uiWDd9ziYTFcIxJLeKtDCaRD3jpVTS8dryJ8bGEG0imwBDu6xsSgo8swDASdYpHz4O4SgrOswi2cC4OPhDe8H8f37ACiKjsK6ynrdDW9842vBSvODz0FSzCO0yudhS7FMGMRkB/Dx39rstWLh774SmYGR86RJEUIaGhchBYT8eEEagTxt5ujFKjKVQHZgR8Nj/HEP7HTOxtdkmHGomTzFyMrWTS9/nWVT7rCuK76RWQdYSx80RkpfPCABCk+nECtvD+gKnfpyFiPGJbVV/obH6rrXZphxkMjxreadxt2HXZEqNCdmYuPFJZwGkj3o8JQ0aKa1xEME4lHCdqW/DrWc7UeXafzRYk43nx8ZXx3ms56cTpXeOFDCaT/uzIcxzDzYqLkG6XQyL3hDxnfisbLhIJQ5OEgESEe4/kvgUXkAM5p4QP0QayPhrDe60rizvxssnPHM0z2UP/PbS7DHMZdl2Euwxy2Ag4j191hLsMctgIOI9fdYS7DHLYCDiPX3WEuwxy2Ag4j191hLsMctgIOI9fdYS7DHLYCDiPX3WEuwxy2Ag4j191hLsMctgIOI9fdYQ5j2P8Ayv/GMrDq4rwAAAAASUVORK5CYII=;imageBorder=default;dashed=1;" vertex="1" parent="1">
          <mxGeometry x="446.99000000000007" y="394" width="47.37" height="50" as="geometry" />
        </mxCell>
        <mxCell id="5jTDvBwV7yWnziTKpoq--40" style="edgeStyle=orthogonalEdgeStyle;rounded=0;orthogonalLoop=1;jettySize=auto;html=1;dashed=1;" edge="1" parent="1" source="5jTDvBwV7yWnziTKpoq--28">
          <mxGeometry relative="1" as="geometry">
            <mxPoint x="69.99000000000001" y="120" as="targetPoint" />
          </mxGeometry>
        </mxCell>
        <mxCell id="5jTDvBwV7yWnziTKpoq--28" value="non-prod conf" style="sketch=0;outlineConnect=0;fontColor=#232F3E;gradientColor=none;fillColor=#E7157B;strokeColor=none;dashed=0;verticalLabelPosition=bottom;verticalAlign=top;align=center;html=1;fontSize=12;fontStyle=0;aspect=fixed;pointerEvents=1;shape=mxgraph.aws4.http_notification;" vertex="1" parent="1">
          <mxGeometry x="44.989999999999995" y="164" width="50" height="50" as="geometry" />
        </mxCell>
        <mxCell id="5jTDvBwV7yWnziTKpoq--52" style="edgeStyle=orthogonalEdgeStyle;rounded=0;orthogonalLoop=1;jettySize=auto;html=1;dashed=1;" edge="1" parent="1" source="5jTDvBwV7yWnziTKpoq--30">
          <mxGeometry relative="1" as="geometry">
            <mxPoint x="450.99" y="240" as="targetPoint" />
          </mxGeometry>
        </mxCell>
        <mxCell id="5jTDvBwV7yWnziTKpoq--30" value="&lt;font style=&quot;font-size: 8px;&quot;&gt;allow -&amp;gt;&amp;nbsp;&lt;font style=&quot;border-color: var(--border-color);&quot;&gt;10.5.0.0/16&lt;/font&gt;&lt;/font&gt;" style="verticalLabelPosition=bottom;sketch=0;html=1;fillColor=#282828;strokeColor=none;verticalAlign=top;pointerEvents=1;align=center;shape=mxgraph.cisco_safe.security_icons.firewall;" vertex="1" parent="1">
          <mxGeometry x="400.99" y="290" width="100" height="20" as="geometry" />
        </mxCell>
        <mxCell id="5jTDvBwV7yWnziTKpoq--31" value="&lt;font style=&quot;font-size: 8px;&quot;&gt;allow -&amp;gt;&amp;nbsp;&lt;font style=&quot;border-color: var(--border-color);&quot;&gt;10.3.0.0/16&lt;br&gt;&lt;/font&gt;allow -&amp;gt;&amp;nbsp;&lt;font style=&quot;border-color: var(--border-color);&quot;&gt;10.4.0.0/16&lt;/font&gt;&lt;/font&gt;" style="verticalLabelPosition=bottom;sketch=0;html=1;fillColor=#282828;strokeColor=none;verticalAlign=top;pointerEvents=1;align=center;shape=mxgraph.cisco_safe.security_icons.firewall;" vertex="1" parent="1">
          <mxGeometry x="168.67000000000002" y="290" width="176.32" height="20" as="geometry" />
        </mxCell>
        <mxCell id="5jTDvBwV7yWnziTKpoq--32" value="&lt;p style=&quot;margin:0px;margin-top:4px;text-align:center;&quot;&gt;&lt;b&gt;dev.prop&lt;/b&gt;&lt;/p&gt;&lt;hr&gt;&lt;p style=&quot;text-align: left; margin: 4px 0px 0px;&quot;&gt;&lt;font style=&quot;font-size: 8px;&quot;&gt;&amp;nbsp;cart.db.url = a&lt;/font&gt;&lt;/p&gt;&lt;font style=&quot;font-size: 8px;&quot;&gt;&lt;div style=&quot;text-align: left;&quot;&gt;&lt;span style=&quot;background-color: initial;&quot;&gt;&amp;nbsp;cart.db.user = admin&lt;/span&gt;&lt;/div&gt;&lt;div style=&quot;text-align: left;&quot;&gt;&lt;span style=&quot;background-color: initial;&quot;&gt;&amp;nbsp;cart.db.pass = ![d4feq]&lt;/span&gt;&lt;/div&gt;&lt;/font&gt;" style="shape=rect;html=1;overflow=fill;whiteSpace=wrap;" vertex="1" parent="1">
          <mxGeometry x="24.27" y="34" width="88.82" height="76" as="geometry" />
        </mxCell>
        <mxCell id="5jTDvBwV7yWnziTKpoq--36" value="&lt;p style=&quot;margin:0px;margin-top:4px;text-align:center;&quot;&gt;&lt;b&gt;qa.prop&lt;/b&gt;&lt;/p&gt;&lt;hr&gt;&lt;p style=&quot;text-align: left; margin: 4px 0px 0px;&quot;&gt;&lt;font style=&quot;font-size: 8px;&quot;&gt;&amp;nbsp;cart.db.url = b&lt;/font&gt;&lt;/p&gt;&lt;font style=&quot;font-size: 8px;&quot;&gt;&lt;div style=&quot;text-align: left;&quot;&gt;&lt;span style=&quot;background-color: initial;&quot;&gt;&amp;nbsp;cart.db.user = admin&lt;/span&gt;&lt;/div&gt;&lt;div style=&quot;text-align: left;&quot;&gt;&lt;span style=&quot;background-color: initial;&quot;&gt;&amp;nbsp;cart.db.pass = ![e4feq]&lt;/span&gt;&lt;/div&gt;&lt;/font&gt;" style="shape=rect;html=1;overflow=fill;whiteSpace=wrap;" vertex="1" parent="1">
          <mxGeometry x="147.95" y="34" width="88.82" height="76" as="geometry" />
        </mxCell>
        <mxCell id="5jTDvBwV7yWnziTKpoq--37" value="&lt;p style=&quot;margin:0px;margin-top:4px;text-align:center;&quot;&gt;&lt;b&gt;uat.prop&lt;/b&gt;&lt;/p&gt;&lt;hr&gt;&lt;p style=&quot;text-align: left; margin: 4px 0px 0px;&quot;&gt;&lt;font style=&quot;font-size: 8px;&quot;&gt;&amp;nbsp;cart.db.url = c&lt;/font&gt;&lt;/p&gt;&lt;font style=&quot;font-size: 8px;&quot;&gt;&lt;div style=&quot;text-align: left;&quot;&gt;&lt;span style=&quot;background-color: initial;&quot;&gt;&amp;nbsp;cart.db.user = admin&lt;/span&gt;&lt;/div&gt;&lt;div style=&quot;text-align: left;&quot;&gt;&lt;span style=&quot;background-color: initial;&quot;&gt;&amp;nbsp;cart.db.pass = ![f4feq]&lt;/span&gt;&lt;/div&gt;&lt;/font&gt;" style="shape=rect;html=1;overflow=fill;whiteSpace=wrap;" vertex="1" parent="1">
          <mxGeometry x="273.17" y="34" width="88.82" height="76" as="geometry" />
        </mxCell>
        <mxCell id="5jTDvBwV7yWnziTKpoq--38" value="&lt;p style=&quot;margin:0px;margin-top:4px;text-align:center;&quot;&gt;&lt;b&gt;prod.prop&lt;/b&gt;&lt;/p&gt;&lt;hr&gt;&lt;p style=&quot;text-align: left; margin: 4px 0px 0px;&quot;&gt;&lt;font style=&quot;font-size: 8px;&quot;&gt;&amp;nbsp;cart.db.url = d&lt;/font&gt;&lt;/p&gt;&lt;font style=&quot;font-size: 8px;&quot;&gt;&lt;div style=&quot;text-align: left;&quot;&gt;&lt;span style=&quot;background-color: initial;&quot;&gt;&amp;nbsp;cart.db.user = admin&lt;/span&gt;&lt;/div&gt;&lt;div style=&quot;text-align: left;&quot;&gt;&lt;span style=&quot;background-color: initial;&quot;&gt;&amp;nbsp;cart.db.pass = ![g4feq]&lt;/span&gt;&lt;/div&gt;&lt;/font&gt;" style="shape=rect;html=1;overflow=fill;whiteSpace=wrap;" vertex="1" parent="1">
          <mxGeometry x="400.99" y="34" width="88.82" height="76" as="geometry" />
        </mxCell>
        <mxCell id="5jTDvBwV7yWnziTKpoq--58" value="" style="image;html=1;image=img/lib/clip_art/networking/Firewall-page1_128x128.png" vertex="1" parent="1">
          <mxGeometry x="322.99" y="273" width="19" height="28" as="geometry" />
        </mxCell>
        <mxCell id="5jTDvBwV7yWnziTKpoq--59" value="" style="image;html=1;image=img/lib/clip_art/networking/Firewall-page1_128x128.png" vertex="1" parent="1">
          <mxGeometry x="489.81" y="273" width="19" height="28" as="geometry" />
        </mxCell>
        <mxCell id="5jTDvBwV7yWnziTKpoq--60" value="&lt;font style=&quot;font-size: 10px;&quot;&gt;worker pool&lt;/font&gt;" style="text;html=1;strokeColor=none;fillColor=none;align=center;verticalAlign=middle;whiteSpace=wrap;rounded=0;" vertex="1" parent="1">
          <mxGeometry x="40.17" y="444" width="77.01" height="16" as="geometry" />
        </mxCell>
        <mxCell id="5jTDvBwV7yWnziTKpoq--61" value="&lt;font style=&quot;font-size: 10px;&quot;&gt;worker pool&lt;/font&gt;" style="text;html=1;strokeColor=none;fillColor=none;align=center;verticalAlign=middle;whiteSpace=wrap;rounded=0;" vertex="1" parent="1">
          <mxGeometry x="151.48000000000002" y="444" width="77.01" height="16" as="geometry" />
        </mxCell>
        <mxCell id="5jTDvBwV7yWnziTKpoq--62" value="&lt;font style=&quot;font-size: 10px;&quot;&gt;worker pool&lt;/font&gt;" style="text;html=1;strokeColor=none;fillColor=none;align=center;verticalAlign=middle;whiteSpace=wrap;rounded=0;" vertex="1" parent="1">
          <mxGeometry x="279.8" y="444" width="77.01" height="16" as="geometry" />
        </mxCell>
        <mxCell id="5jTDvBwV7yWnziTKpoq--64" value="&lt;font style=&quot;font-size: 10px;&quot;&gt;worker pool&lt;/font&gt;" style="text;html=1;strokeColor=none;fillColor=none;align=center;verticalAlign=middle;whiteSpace=wrap;rounded=0;" vertex="1" parent="1">
          <mxGeometry x="422.17" y="442" width="77.01" height="16" as="geometry" />
        </mxCell>
        <mxCell id="5jTDvBwV7yWnziTKpoq--66" value="" style="endArrow=none;dashed=1;html=1;rounded=0;" edge="1" parent="1">
          <mxGeometry width="50" height="50" relative="1" as="geometry">
            <mxPoint x="391" y="285" as="sourcePoint" />
            <mxPoint x="391" y="155" as="targetPoint" />
          </mxGeometry>
        </mxCell>
        <mxCell id="5jTDvBwV7yWnziTKpoq--67" value="&amp;nbsp;" style="text;html=1;strokeColor=none;fillColor=none;align=center;verticalAlign=middle;whiteSpace=wrap;rounded=0;" vertex="1" parent="1">
          <mxGeometry x="-8.999999999999996" y="8" width="15.73" height="14" as="geometry" />
        </mxCell>
        <mxCell id="5jTDvBwV7yWnziTKpoq--69" style="edgeStyle=orthogonalEdgeStyle;rounded=0;orthogonalLoop=1;jettySize=auto;html=1;dashed=1;" edge="1" parent="1" source="5jTDvBwV7yWnziTKpoq--31">
          <mxGeometry relative="1" as="geometry">
            <mxPoint x="257" y="248" as="targetPoint" />
          </mxGeometry>
        </mxCell>
      </root>
    </mxGraphModel>
  </diagram>
</mxfile>
